<svg xmlns="http://www.w3.org/2000/svg" viewBox="-98.09 -24.00 801.34 354.30" width="801" height="354">
<polygon points="0.00,0.00 11.28,4.10 0.00,8.21 -11.28,4.10" fill="#ebedf0"/>
<polygon points="-13.16,4.79 -1.88,8.89 -13.16,13.00 -24.43,8.89" fill="#ebedf0"/>
<polygon points="13.16,4.79 24.43,8.89 13.16,13.00 1.88,8.89" fill="#ebedf0"/>
<polygon points="-26.31,9.58 -15.04,13.68 -26.31,17.79 -37.59,13.68" fill="#ebedf0"/>
<polygon points="26.31,9.58 37.59,13.68 26.31,17.79 15.04,13.68" fill="#ebedf0"/>
<polygon points="0.00,-8.42 11.28,-4.32 0.00,-0.21 -11.28,-4.32" fill="#30a14e"/>
<polygon points="-11.28,13.68 -11.28,-4.32 0.00,-0.21 0.00,17.79" fill="#2a8d44"/>
<polygon points="0.00,17.79 0.00,-0.21 11.28,-4.32 11.28,13.68" fill="#237739"/>
<polygon points="13.16,-3.64 24.43,0.47 13.16,4.57 1.88,0.47" fill="#40c463"/>
<polygon points="1.88,18.47 1.88,0.47 13.16,4.57 13.16,22.57" fill="#38ac57"/>
<polygon points="13.16,22.57 13.16,4.57 24.43,0.47 24.43,18.47" fill="#2f9149"/>
<polygon points="39.47,-3.64 50.74,0.47 39.47,4.57 28.19,0.47" fill="#40c463"/>
<polygon points="28.19,18.47 28.19,0.47 39.47,4.57 39.47,22.57" fill="#38ac57"/>
<polygon points="39.47,22.57 39.47,4.57 50.74,0.47 50.74,18.47" fill="#2f9149"/>
<polygon points="-39.47,-3.64 -28.19,0.47 -39.47,4.57 -50.74,0.47" fill="#30a14e"/>
<polygon points="-50.74,18.47 -50.74,0.47 -39.47,4.57 -39.47,22.57" fill="#2a8d44"/>
<polygon points="-39.47,22.57 -39.47,4.57 -28.19,0.47 -28.19,18.47" fill="#237739"/>
<polygon points="-13.16,-3.64 -1.88,0.47 -13.16,4.57 -24.43,0.47" fill="#30a14e"/>
<polygon points="-24.43,18.47 -24.43,0.47 -13.16,4.57 -13.16,22.57" fill="#2a8d44"/>
<polygon points="-13.16,22.57 -13.16,4.57 -1.88,0.47 -1.88,18.47" fill="#237739"/>
<polygon points="52.62,19.15 63.90,23.26 52.62,27.36 41.35,23.26" fill="#ebedf0"/>
<polygon points="-52.62,1.15 -41.35,5.26 -52.62,9.36 -63.90,5.26" fill="#40c463"/>
<polygon points="-63.90,23.26 -63.90,5.26 -52.62,9.36 -52.62,27.36" fill="#38ac57"/>
<polygon points="-52.62,27.36 -52.62,9.36 -41.35,5.26 -41.35,23.26" fill="#2f9149"/>
<polygon points="-26.31,1.15 -15.04,5.26 -26.31,9.36 -37.59,5.26" fill="#40c463"/>
<polygon points="-37.59,23.26 -37.59,5.26 -26.31,9.36 -26.31,27.36" fill="#38ac57"/>
<polygon points="-26.31,27.36 -26.31,9.36 -15.04,5.26 -15.04,23.26" fill="#2f9149"/>
<polygon points="0.00,1.15 11.28,5.26 0.00,9.36 -11.28,5.26" fill="#40c463"/>
<polygon points="-11.28,23.26 -11.28,5.26 0.00,9.36 0.00,27.36" fill="#38ac57"/>
<polygon points="0.00,27.36 0.00,9.36 11.28,5.26 11.28,23.26" fill="#2f9149"/>
<polygon points="26.31,1.15 37.59,5.26 26.31,9.36 15.04,5.26" fill="#40c463"/>
<polygon points="15.04,23.26 15.04,5.26 26.31,9.36 26.31,27.36" fill="#38ac57"/>
<polygon points="26.31,27.36 26.31,9.36 37.59,5.26 37.59,23.26" fill="#2f9149"/>
<polygon points="65.78,23.94 77.05,28.05 65.78,32.15 54.50,28.05" fill="#ebedf0"/>
<polygon points="-39.47,5.94 -28.19,10.05 -39.47,14.15 -50.74,10.05" fill="#40c463"/>
<polygon points="-50.74,28.05 -50.74,10.05 -39.47,14.15 -39.47,32.15" fill="#38ac57"/>
<polygon points="-39.47,32.15 -39.47,14.15 -28.19,10.05 -28.19,28.05" fill="#2f9149"/>
<polygon points="13.16,5.94 24.43,10.05 13.16,14.15 1.88,10.05" fill="#40c463"/>
<polygon points="1.88,28.05 1.88,10.05 13.16,14.15 13.16,32.15" fill="#38ac57"/>
<polygon points="13.16,32.15 13.16,14.15 24.43,10.05 24.43,28.05" fill="#2f9149"/>
<polygon points="39.47,5.94 50.74,10.05 39.47,14.15 28.19,10.05" fill="#30a14e"/>
<polygon points="28.19,28.05 28.19,10.05 39.47,14.15 39.47,32.15" fill="#2a8d44"/>
<polygon points="39.47,32.15 39.47,14.15 50.74,10.05 50.74,28.05" fill="#237739"/>
<polygon points="-65.78,5.94 -54.50,10.05 -65.78,14.15 -77.05,10.05" fill="#216e39"/>
<polygon points="-77.05,28.05 -77.05,10.05 -65.78,14.15 -65.78,32.15" fill="#1d6032"/>
<polygon points="-65.78,32.15 -65.78,14.15 -54.50,10.05 -54.50,28.05" fill="#18512a"/>
<polygon points="-13.16,5.94 -1.88,10.05 -13.16,14.15 -24.43,10.05" fill="#216e39"/>
<polygon points="-24.43,28.05 -24.43,10.05 -13.16,14.15 -13.16,32.15" fill="#1d6032"/>
<polygon points="-13.16,32.15 -13.16,14.15 -1.88,10.05 -1.88,28.05" fill="#18512a"/>
<polygon points="-78.93,28.73 -67.66,32.83 -78.93,36.94 -90.21,32.83" fill="#ebedf0"/>
<polygon points="26.31,28.73 37.59,32.83 26.31,36.94 15.04,32.83" fill="#ebedf0"/>
<polygon points="52.62,28.73 63.90,32.83 52.62,36.94 41.35,32.83" fill="#ebedf0"/>
<polygon points="78.93,17.73 90.21,21.83 78.93,25.94 67.66,21.83" fill="#9be9a8"/>
<polygon points="67.66,32.83 67.66,21.83 78.93,25.94 78.93,36.94" fill="#88cd93"/>
<polygon points="78.93,36.94 78.93,25.94 90.21,21.83 90.21,32.83" fill="#72ac7c"/>
<polygon points="-52.62,10.73 -41.35,14.83 -52.62,18.94 -63.90,14.83" fill="#40c463"/>
<polygon points="-63.90,32.83 -63.90,14.83 -52.62,18.94 -52.62,36.94" fill="#38ac57"/>
<polygon points="-52.62,36.94 -52.62,18.94 -41.35,14.83 -41.35,32.83" fill="#2f9149"/>
<polygon points="-26.31,10.73 -15.04,14.83 -26.31,18.94 -37.59,14.83" fill="#30a14e"/>
<polygon points="-37.59,32.83 -37.59,14.83 -26.31,18.94 -26.31,36.94" fill="#2a8d44"/>
<polygon points="-26.31,36.94 -26.31,18.94 -15.04,14.83 -15.04,32.83" fill="#237739"/>
<polygon points="0.00,10.73 11.28,14.83 0.00,18.94 -11.28,14.83" fill="#216e39"/>
<polygon points="-11.28,32.83 -11.28,14.83 0.00,18.94 0.00,36.94" fill="#1d6032"/>
<polygon points="0.00,36.94 0.00,18.94 11.28,14.83 11.28,32.83" fill="#18512a"/>
<polygon points="39.47,33.52 50.74,37.62 39.47,41.73 28.19,37.62" fill="#ebedf0"/>
<polygon points="65.78,33.52 77.05,37.62 65.78,41.73 54.50,37.62" fill="#ebedf0"/>
<polygon points="92.09,33.52 103.37,37.62 92.09,41.73 80.81,37.62" fill="#ebedf0"/>
<polygon points="-65.78,19.52 -54.50,23.62 -65.78,27.73 -77.05,23.62" fill="#9be9a8"/>
<polygon points="-77.05,37.62 -77.05,23.62 -65.78,27.73 -65.78,41.73" fill="#88cd93"/>
<polygon points="-65.78,41.73 -65.78,27.73 -54.50,23.62 -54.50,37.62" fill="#72ac7c"/>
<polygon points="-13.16,15.52 -1.88,19.62 -13.16,23.73 -24.43,19.62" fill="#40c463"/>
<polygon points="-24.43,37.62 -24.43,19.62 -13.16,23.73 -13.16,41.73" fill="#38ac57"/>
<polygon points="-13.16,41.73 -13.16,23.73 -1.88,19.62 -1.88,37.62" fill="#2f9149"/>
<polygon points="13.16,15.52 24.43,19.62 13.16,23.73 1.88,19.62" fill="#40c463"/>
<polygon points="1.88,37.62 1.88,19.62 13.16,23.73 13.16,41.73" fill="#38ac57"/>
<polygon points="13.16,41.73 13.16,23.73 24.43,19.62 24.43,37.62" fill="#2f9149"/>
<polygon points="-39.47,15.52 -28.19,19.62 -39.47,23.73 -50.74,19.62" fill="#30a14e"/>
<polygon points="-50.74,37.62 -50.74,19.62 -39.47,23.73 -39.47,41.73" fill="#2a8d44"/>
<polygon points="-39.47,41.73 -39.47,23.73 -28.19,19.62 -28.19,37.62" fill="#237739"/>
<polygon points="105.25,38.31 116.52,42.41 105.25,46.51 93.97,42.41" fill="#ebedf0"/>
<polygon points="-52.62,25.31 -41.35,29.41 -52.62,33.51 -63.90,29.41" fill="#9be9a8"/>
<polygon points="-63.90,42.41 -63.90,29.41 -52.62,33.51 -52.62,46.51" fill="#88cd93"/>
<polygon points="-52.62,46.51 -52.62,33.51 -41.35,29.41 -41.35,42.41" fill="#72ac7c"/>
<polygon points="0.00,20.31 11.28,24.41 0.00,28.51 -11.28,24.41" fill="#9be9a8"/>
<polygon points="-11.28,42.41 -11.28,24.41 0.00,28.51 0.00,46.51" fill="#88cd93"/>
<polygon points="0.00,46.51 0.00,28.51 11.28,24.41 11.28,42.41" fill="#72ac7c"/>
<polygon points="26.31,27.31 37.59,31.41 26.31,35.51 15.04,31.41" fill="#9be9a8"/>
<polygon points="15.04,42.41 15.04,31.41 26.31,35.51 26.31,46.51" fill="#88cd93"/>
<polygon points="26.31,46.51 26.31,35.51 37.59,31.41 37.59,42.41" fill="#72ac7c"/>
<polygon points="78.93,20.31 90.21,24.41 78.93,28.51 67.66,24.41" fill="#40c463"/>
<polygon points="67.66,42.41 67.66,24.41 78.93,28.51 78.93,46.51" fill="#38ac57"/>
<polygon points="78.93,46.51 78.93,28.51 90.21,24.41 90.21,42.41" fill="#2f9149"/>
<polygon points="-26.31,20.31 -15.04,24.41 -26.31,28.51 -37.59,24.41" fill="#216e39"/>
<polygon points="-37.59,42.41 -37.59,24.41 -26.31,28.51 -26.31,46.51" fill="#1d6032"/>
<polygon points="-26.31,46.51 -26.31,28.51 -15.04,24.41 -15.04,42.41" fill="#18512a"/>
<polygon points="52.62,20.31 63.90,24.41 52.62,28.51 41.35,24.41" fill="#216e39"/>
<polygon points="41.35,42.41 41.35,24.41 52.62,28.51 52.62,46.51" fill="#1d6032"/>
<polygon points="52.62,46.51 52.62,28.51 63.90,24.41 63.90,42.41" fill="#18512a"/>
<polygon points="-13.16,43.09 -1.88,47.20 -13.16,51.30 -24.43,47.20" fill="#ebedf0"/>
<polygon points="-39.47,30.09 -28.19,34.20 -39.47,38.30 -50.74,34.20" fill="#9be9a8"/>
<polygon points="-50.74,47.20 -50.74,34.20 -39.47,38.30 -39.47,51.30" fill="#88cd93"/>
<polygon points="-39.47,51.30 -39.47,38.30 -28.19,34.20 -28.19,47.20" fill="#72ac7c"/>
<polygon points="92.09,25.09 103.37,29.20 92.09,33.30 80.81,29.20" fill="#9be9a8"/>
<polygon points="80.81,47.20 80.81,29.20 92.09,33.30 92.09,51.30" fill="#88cd93"/>
<polygon points="92.09,51.30 92.09,33.30 103.37,29.20 103.37,47.20" fill="#72ac7c"/>
<polygon points="118.40,32.09 129.68,36.20 118.40,40.30 107.12,36.20" fill="#9be9a8"/>
<polygon points="107.12,47.20 107.12,36.20 118.40,40.30 118.40,51.30" fill="#88cd93"/>
<polygon points="118.40,51.30 118.40,40.30 129.68,36.20 129.68,47.20" fill="#72ac7c"/>
<polygon points="13.16,25.09 24.43,29.20 13.16,33.30 1.88,29.20" fill="#40c463"/>
<polygon points="1.88,47.20 1.88,29.20 13.16,33.30 13.16,51.30" fill="#38ac57"/>
<polygon points="13.16,51.30 13.16,33.30 24.43,29.20 24.43,47.20" fill="#2f9149"/>
<polygon points="39.47,25.09 50.74,29.20 39.47,33.30 28.19,29.20" fill="#40c463"/>
<polygon points="28.19,47.20 28.19,29.20 39.47,33.30 39.47,51.30" fill="#38ac57"/>
<polygon points="39.47,51.30 39.47,33.30 50.74,29.20 50.74,47.20" fill="#2f9149"/>
<polygon points="65.78,25.09 77.05,29.20 65.78,33.30 54.50,29.20" fill="#30a14e"/>
<polygon points="54.50,47.20 54.50,29.20 65.78,33.30 65.78,51.30" fill="#2a8d44"/>
<polygon points="65.78,51.30 65.78,33.30 77.05,29.20 77.05,47.20" fill="#237739"/>
<polygon points="-26.31,47.88 -15.04,51.99 -26.31,56.09 -37.59,51.99" fill="#ebedf0"/>
<polygon points="0.00,30.88 11.28,34.99 0.00,39.09 -11.28,34.99" fill="#9be9a8"/>
<polygon points="-11.28,51.99 -11.28,34.99 0.00,39.09 0.00,56.09" fill="#88cd93"/>
<polygon points="0.00,56.09 0.00,39.09 11.28,34.99 11.28,51.99" fill="#72ac7c"/>
<polygon points="26.31,29.88 37.59,33.99 26.31,38.09 15.04,33.99" fill="#40c463"/>
<polygon points="15.04,51.99 15.04,33.99 26.31,38.09 26.31,56.09" fill="#38ac57"/>
<polygon points="26.31,56.09 26.31,38.09 37.59,33.99 37.59,51.99" fill="#2f9149"/>
<polygon points="78.93,29.88 90.21,33.99 78.93,38.09 67.66,33.99" fill="#40c463"/>
<polygon points="67.66,51.99 67.66,33.99 78.93,38.09 78.93,56.09" fill="#38ac57"/>
<polygon points="78.93,56.09 78.93,38.09 90.21,33.99 90.21,51.99" fill="#2f9149"/>
<polygon points="105.25,29.88 116.52,33.99 105.25,38.09 93.97,33.99" fill="#40c463"/>
<polygon points="93.97,51.99 93.97,33.99 105.25,38.09 105.25,56.09" fill="#38ac57"/>
<polygon points="105.25,56.09 105.25,38.09 116.52,33.99 116.52,51.99" fill="#2f9149"/>
<polygon points="131.56,29.88 142.83,33.99 131.56,38.09 120.28,33.99" fill="#40c463"/>
<polygon points="120.28,51.99 120.28,33.99 131.56,38.09 131.56,56.09" fill="#38ac57"/>
<polygon points="131.56,56.09 131.56,38.09 142.83,33.99 142.83,51.99" fill="#2f9149"/>
<polygon points="52.62,29.88 63.90,33.99 52.62,38.09 41.35,33.99" fill="#30a14e"/>
<polygon points="41.35,51.99 41.35,33.99 52.62,38.09 52.62,56.09" fill="#2a8d44"/>
<polygon points="52.62,56.09 52.62,38.09 63.90,33.99 63.90,51.99" fill="#237739"/>
<polygon points="13.16,52.67 24.43,56.78 13.16,60.88 1.88,56.78" fill="#ebedf0"/>
<polygon points="-13.16,34.67 -1.88,38.78 -13.16,42.88 -24.43,38.78" fill="#9be9a8"/>
<polygon points="-24.43,56.78 -24.43,38.78 -13.16,42.88 -13.16,60.88" fill="#88cd93"/>
<polygon points="-13.16,60.88 -13.16,42.88 -1.88,38.78 -1.88,56.78" fill="#72ac7c"/>
<polygon points="65.78,35.67 77.05,39.78 65.78,43.88 54.50,39.78" fill="#9be9a8"/>
<polygon points="54.50,56.78 54.50,39.78 65.78,43.88 65.78,60.88" fill="#88cd93"/>
<polygon points="65.78,60.88 65.78,43.88 77.05,39.78 77.05,56.78" fill="#72ac7c"/>
<polygon points="118.40,34.67 129.68,38.78 118.40,42.88 107.12,38.78" fill="#40c463"/>
<polygon points="107.12,56.78 107.12,38.78 118.40,42.88 118.40,60.88" fill="#38ac57"/>
<polygon points="118.40,60.88 118.40,42.88 129.68,38.78 129.68,56.78" fill="#2f9149"/>
<polygon points="144.71,34.67 155.99,38.78 144.71,42.88 133.44,38.78" fill="#40c463"/>
<polygon points="133.44,56.78 133.44,38.78 144.71,42.88 144.71,60.88" fill="#38ac57"/>
<polygon points="144.71,60.88 144.71,42.88 155.99,38.78 155.99,56.78" fill="#2f9149"/>
<polygon points="92.09,34.67 103.37,38.78 92.09,42.88 80.81,38.78" fill="#30a14e"/>
<polygon points="80.81,56.78 80.81,38.78 92.09,42.88 92.09,60.88" fill="#2a8d44"/>
<polygon points="92.09,60.88 92.09,42.88 103.37,38.78 103.37,56.78" fill="#237739"/>
<polygon points="39.47,34.67 50.74,38.78 39.47,42.88 28.19,38.78" fill="#216e39"/>
<polygon points="28.19,56.78 28.19,38.78 39.47,42.88 39.47,60.88" fill="#1d6032"/>
<polygon points="39.47,60.88 39.47,42.88 50.74,38.78 50.74,56.78" fill="#18512a"/>
<polygon points="0.00,57.46 11.28,61.56 0.00,65.67 -11.28,61.56" fill="#ebedf0"/>
<polygon points="78.93,39.46 90.21,43.56 78.93,47.67 67.66,43.56" fill="#9be9a8"/>
<polygon points="67.66,61.56 67.66,43.56 78.93,47.67 78.93,65.67" fill="#88cd93"/>
<polygon points="78.93,65.67 78.93,47.67 90.21,43.56 90.21,61.56" fill="#72ac7c"/>
<polygon points="105.25,39.46 116.52,43.56 105.25,47.67 93.97,43.56" fill="#9be9a8"/>
<polygon points="93.97,61.56 93.97,43.56 105.25,47.67 105.25,65.67" fill="#88cd93"/>
<polygon points="105.25,65.67 105.25,47.67 116.52,43.56 116.52,61.56" fill="#72ac7c"/>
<polygon points="157.87,39.46 169.14,43.56 157.87,47.67 146.59,43.56" fill="#9be9a8"/>
<polygon points="146.59,61.56 146.59,43.56 157.87,47.67 157.87,65.67" fill="#88cd93"/>
<polygon points="157.87,65.67 157.87,47.67 169.14,43.56 169.14,61.56" fill="#72ac7c"/>
<polygon points="52.62,39.46 63.90,43.56 52.62,47.67 41.35,43.56" fill="#40c463"/>
<polygon points="41.35,61.56 41.35,43.56 52.62,47.67 52.62,65.67" fill="#38ac57"/>
<polygon points="52.62,65.67 52.62,47.67 63.90,43.56 63.90,61.56" fill="#2f9149"/>
<polygon points="131.56,39.46 142.83,43.56 131.56,47.67 120.28,43.56" fill="#40c463"/>
<polygon points="120.28,61.56 120.28,43.56 131.56,47.67 131.56,65.67" fill="#38ac57"/>
<polygon points="131.56,65.67 131.56,47.67 142.83,43.56 142.83,61.56" fill="#2f9149"/>
<polygon points="26.31,39.46 37.59,43.56 26.31,47.67 15.04,43.56" fill="#216e39"/>
<polygon points="15.04,61.56 15.04,43.56 26.31,47.67 26.31,65.67" fill="#1d6032"/>
<polygon points="26.31,65.67 26.31,47.67 37.59,43.56 37.59,61.56" fill="#18512a"/>
<polygon points="13.16,62.25 24.43,66.35 13.16,70.46 1.88,66.35" fill="#ebedf0"/>
<polygon points="171.02,62.25 182.30,66.35 171.02,70.46 159.75,66.35" fill="#ebedf0"/>
<polygon points="39.47,44.25 50.74,48.35 39.47,52.46 28.19,48.35" fill="#40c463"/>
<polygon points="28.19,66.35 28.19,48.35 39.47,52.46 39.47,70.46" fill="#38ac57"/>
<polygon points="39.47,70.46 39.47,52.46 50.74,48.35 50.74,66.35" fill="#2f9149"/>
<polygon points="92.09,44.25 103.37,48.35 92.09,52.46 80.81,48.35" fill="#40c463"/>
<polygon points="80.81,66.35 80.81,48.35 92.09,52.46 92.09,70.46" fill="#38ac57"/>
<polygon points="92.09,70.46 92.09,52.46 103.37,48.35 103.37,66.35" fill="#2f9149"/>
<polygon points="144.71,44.25 155.99,48.35 144.71,52.46 133.44,48.35" fill="#40c463"/>
<polygon points="133.44,66.35 133.44,48.35 144.71,52.46 144.71,70.46" fill="#38ac57"/>
<polygon points="144.71,70.46 144.71,52.46 155.99,48.35 155.99,66.35" fill="#2f9149"/>
<polygon points="65.78,44.25 77.05,48.35 65.78,52.46 54.50,48.35" fill="#30a14e"/>
<polygon points="54.50,66.35 54.50,48.35 65.78,52.46 65.78,70.46" fill="#2a8d44"/>
<polygon points="65.78,70.46 65.78,52.46 77.05,48.35 77.05,66.35" fill="#237739"/>
<polygon points="118.40,44.25 129.68,48.35 118.40,52.46 107.12,48.35" fill="#30a14e"/>
<polygon points="107.12,66.35 107.12,48.35 118.40,52.46 118.40,70.46" fill="#2a8d44"/>
<polygon points="118.40,70.46 118.40,52.46 129.68,48.35 129.68,66.35" fill="#237739"/>
<polygon points="26.31,67.04 37.59,71.14 26.31,75.24 15.04,71.14" fill="#ebedf0"/>
<polygon points="131.56,49.04 142.83,53.14 131.56,57.24 120.28,53.14" fill="#9be9a8"/>
<polygon points="120.28,71.14 120.28,53.14 131.56,57.24 131.56,75.24" fill="#88cd93"/>
<polygon points="131.56,75.24 131.56,57.24 142.83,53.14 142.83,71.14" fill="#72ac7c"/>
<polygon points="184.18,56.04 195.46,60.14 184.18,64.24 172.90,60.14" fill="#9be9a8"/>
<polygon points="172.90,71.14 172.90,60.14 184.18,64.24 184.18,75.24" fill="#88cd93"/>
<polygon points="184.18,75.24 184.18,64.24 195.46,60.14 195.46,71.14" fill="#72ac7c"/>
<polygon points="52.62,49.04 63.90,53.14 52.62,57.24 41.35,53.14" fill="#40c463"/>
<polygon points="41.35,71.14 41.35,53.14 52.62,57.24 52.62,75.24" fill="#38ac57"/>
<polygon points="52.62,75.24 52.62,57.24 63.90,53.14 63.90,71.14" fill="#2f9149"/>
<polygon points="78.93,49.04 90.21,53.14 78.93,57.24 67.66,53.14" fill="#40c463"/>
<polygon points="67.66,71.14 67.66,53.14 78.93,57.24 78.93,75.24" fill="#38ac57"/>
<polygon points="78.93,75.24 78.93,57.24 90.21,53.14 90.21,71.14" fill="#2f9149"/>
<polygon points="105.25,49.04 116.52,53.14 105.25,57.24 93.97,53.14" fill="#40c463"/>
<polygon points="93.97,71.14 93.97,53.14 105.25,57.24 105.25,75.24" fill="#38ac57"/>
<polygon points="105.25,75.24 105.25,57.24 116.52,53.14 116.52,71.14" fill="#2f9149"/>
<polygon points="157.87,49.04 169.14,53.14 157.87,57.24 146.59,53.14" fill="#40c463"/>
<polygon points="146.59,71.14 146.59,53.14 157.87,57.24 157.87,75.24" fill="#38ac57"/>
<polygon points="157.87,75.24 157.87,57.24 169.14,53.14 169.14,71.14" fill="#2f9149"/>
<polygon points="39.47,71.82 50.74,75.93 39.47,80.03 28.19,75.93" fill="#ebedf0"/>
<polygon points="197.34,71.82 208.61,75.93 197.34,80.03 186.06,75.93" fill="#ebedf0"/>
<polygon points="65.78,53.82 77.05,57.93 65.78,62.03 54.50,57.93" fill="#9be9a8"/>
<polygon points="54.50,75.93 54.50,57.93 65.78,62.03 65.78,80.03" fill="#88cd93"/>
<polygon points="65.78,80.03 65.78,62.03 77.05,57.93 77.05,75.93" fill="#72ac7c"/>
<polygon points="92.09,56.82 103.37,60.93 92.09,65.03 80.81,60.93" fill="#9be9a8"/>
<polygon points="80.81,75.93 80.81,60.93 92.09,65.03 92.09,80.03" fill="#88cd93"/>
<polygon points="92.09,80.03 92.09,65.03 103.37,60.93 103.37,75.93" fill="#72ac7c"/>
<polygon points="118.40,60.82 129.68,64.93 118.40,69.03 107.12,64.93" fill="#9be9a8"/>
<polygon points="107.12,75.93 107.12,64.93 118.40,69.03 118.40,80.03" fill="#88cd93"/>
<polygon points="118.40,80.03 118.40,69.03 129.68,64.93 129.68,75.93" fill="#72ac7c"/>
<polygon points="171.02,54.82 182.30,58.93 171.02,63.03 159.75,58.93" fill="#9be9a8"/>
<polygon points="159.75,75.93 159.75,58.93 171.02,63.03 171.02,80.03" fill="#88cd93"/>
<polygon points="171.02,80.03 171.02,63.03 182.30,58.93 182.30,75.93" fill="#72ac7c"/>
<polygon points="144.71,53.82 155.99,57.93 144.71,62.03 133.44,57.93" fill="#40c463"/>
<polygon points="133.44,75.93 133.44,57.93 144.71,62.03 144.71,80.03" fill="#38ac57"/>
<polygon points="144.71,80.03 144.71,62.03 155.99,57.93 155.99,75.93" fill="#2f9149"/>
<polygon points="52.62,76.61 63.90,80.72 52.62,84.82 41.35,80.72" fill="#ebedf0"/>
<polygon points="210.49,76.61 221.77,80.72 210.49,84.82 199.21,80.72" fill="#ebedf0"/>
<polygon points="105.25,60.61 116.52,64.72 105.25,68.82 93.97,64.72" fill="#9be9a8"/>
<polygon points="93.97,80.72 93.97,64.72 105.25,68.82 105.25,84.82" fill="#88cd93"/>
<polygon points="105.25,84.82 105.25,68.82 116.52,64.72 116.52,80.72" fill="#72ac7c"/>
<polygon points="157.87,62.61 169.14,66.72 157.87,70.82 146.59,66.72" fill="#9be9a8"/>
<polygon points="146.59,80.72 146.59,66.72 157.87,70.82 157.87,84.82" fill="#88cd93"/>
<polygon points="157.87,84.82 157.87,70.82 169.14,66.72 169.14,80.72" fill="#72ac7c"/>
<polygon points="184.18,58.61 195.46,62.72 184.18,66.82 172.90,62.72" fill="#9be9a8"/>
<polygon points="172.90,80.72 172.90,62.72 184.18,66.82 184.18,84.82" fill="#88cd93"/>
<polygon points="184.18,84.82 184.18,66.82 195.46,62.72 195.46,80.72" fill="#72ac7c"/>
<polygon points="78.93,58.61 90.21,62.72 78.93,66.82 67.66,62.72" fill="#40c463"/>
<polygon points="67.66,80.72 67.66,62.72 78.93,66.82 78.93,84.82" fill="#38ac57"/>
<polygon points="78.93,84.82 78.93,66.82 90.21,62.72 90.21,80.72" fill="#2f9149"/>
<polygon points="131.56,58.61 142.83,62.72 131.56,66.82 120.28,62.72" fill="#40c463"/>
<polygon points="120.28,80.72 120.28,62.72 131.56,66.82 131.56,84.82" fill="#38ac57"/>
<polygon points="131.56,84.82 131.56,66.82 142.83,62.72 142.83,80.72" fill="#2f9149"/>
<polygon points="223.65,81.40 234.92,85.51 223.65,89.61 212.37,85.51" fill="#ebedf0"/>
<polygon points="65.78,73.40 77.05,77.51 65.78,81.61 54.50,77.51" fill="#9be9a8"/>
<polygon points="54.50,85.51 54.50,77.51 65.78,81.61 65.78,89.61" fill="#88cd93"/>
<polygon points="65.78,89.61 65.78,81.61 77.05,77.51 77.05,85.51" fill="#72ac7c"/>
<polygon points="92.09,63.40 103.37,67.51 92.09,71.61 80.81,67.51" fill="#9be9a8"/>
<polygon points="80.81,85.51 80.81,67.51 92.09,71.61 92.09,89.61" fill="#88cd93"/>
<polygon points="92.09,89.61 92.09,71.61 103.37,67.51 103.37,85.51" fill="#72ac7c"/>
<polygon points="144.71,63.40 155.99,67.51 144.71,71.61 133.44,67.51" fill="#40c463"/>
<polygon points="133.44,85.51 133.44,67.51 144.71,71.61 144.71,89.61" fill="#38ac57"/>
<polygon points="144.71,89.61 144.71,71.61 155.99,67.51 155.99,85.51" fill="#2f9149"/>
<polygon points="171.02,63.40 182.30,67.51 171.02,71.61 159.75,67.51" fill="#40c463"/>
<polygon points="159.75,85.51 159.75,67.51 171.02,71.61 171.02,89.61" fill="#38ac57"/>
<polygon points="171.02,89.61 171.02,71.61 182.30,67.51 182.30,85.51" fill="#2f9149"/>
<polygon points="197.34,63.40 208.61,67.51 197.34,71.61 186.06,67.51" fill="#40c463"/>
<polygon points="186.06,85.51 186.06,67.51 197.34,71.61 197.34,89.61" fill="#38ac57"/>
<polygon points="197.34,89.61 197.34,71.61 208.61,67.51 208.61,85.51" fill="#2f9149"/>
<polygon points="118.40,63.40 129.68,67.51 118.40,71.61 107.12,67.51" fill="#30a14e"/>
<polygon points="107.12,85.51 107.12,67.51 118.40,71.61 118.40,89.61" fill="#2a8d44"/>
<polygon points="118.40,89.61 118.40,71.61 129.68,67.51 129.68,85.51" fill="#237739"/>
<polygon points="78.93,86.19 90.21,90.29 78.93,94.40 67.66,90.29" fill="#ebedf0"/>
<polygon points="236.80,86.19 248.08,90.29 236.80,94.40 225.53,90.29" fill="#ebedf0"/>
<polygon points="184.18,70.19 195.46,74.29 184.18,78.40 172.90,74.29" fill="#9be9a8"/>
<polygon points="172.90,90.29 172.90,74.29 184.18,78.40 184.18,94.40" fill="#88cd93"/>
<polygon points="184.18,94.40 184.18,78.40 195.46,74.29 195.46,90.29" fill="#72ac7c"/>
<polygon points="131.56,68.19 142.83,72.29 131.56,76.40 120.28,72.29" fill="#40c463"/>
<polygon points="120.28,90.29 120.28,72.29 131.56,76.40 131.56,94.40" fill="#38ac57"/>
<polygon points="131.56,94.40 131.56,76.40 142.83,72.29 142.83,90.29" fill="#2f9149"/>
<polygon points="157.87,68.19 169.14,72.29 157.87,76.40 146.59,72.29" fill="#40c463"/>
<polygon points="146.59,90.29 146.59,72.29 157.87,76.40 157.87,94.40" fill="#38ac57"/>
<polygon points="157.87,94.40 157.87,76.40 169.14,72.29 169.14,90.29" fill="#2f9149"/>
<polygon points="210.49,68.19 221.77,72.29 210.49,76.40 199.21,72.29" fill="#40c463"/>
<polygon points="199.21,90.29 199.21,72.29 210.49,76.40 210.49,94.40" fill="#38ac57"/>
<polygon points="210.49,94.40 210.49,76.40 221.77,72.29 221.77,90.29" fill="#2f9149"/>
<polygon points="105.25,68.19 116.52,72.29 105.25,76.40 93.97,72.29" fill="#30a14e"/>
<polygon points="93.97,90.29 93.97,72.29 105.25,76.40 105.25,94.40" fill="#2a8d44"/>
<polygon points="105.25,94.40 105.25,76.40 116.52,72.29 116.52,90.29" fill="#237739"/>
<polygon points="92.09,90.98 103.37,95.08 92.09,99.19 80.81,95.08" fill="#ebedf0"/>
<polygon points="249.96,90.98 261.23,95.08 249.96,99.19 238.68,95.08" fill="#ebedf0"/>
<polygon points="118.40,72.98 129.68,77.08 118.40,81.19 107.12,77.08" fill="#40c463"/>
<polygon points="107.12,95.08 107.12,77.08 118.40,81.19 118.40,99.19" fill="#38ac57"/>
<polygon points="118.40,99.19 118.40,81.19 129.68,77.08 129.68,95.08" fill="#2f9149"/>
<polygon points="144.71,72.98 155.99,77.08 144.71,81.19 133.44,77.08" fill="#40c463"/>
<polygon points="133.44,95.08 133.44,77.08 144.71,81.19 144.71,99.19" fill="#38ac57"/>
<polygon points="144.71,99.19 144.71,81.19 155.99,77.08 155.99,95.08" fill="#2f9149"/>
<polygon points="171.02,72.98 182.30,77.08 171.02,81.19 159.75,77.08" fill="#40c463"/>
<polygon points="159.75,95.08 159.75,77.08 171.02,81.19 171.02,99.19" fill="#38ac57"/>
<polygon points="171.02,99.19 171.02,81.19 182.30,77.08 182.30,95.08" fill="#2f9149"/>
<polygon points="223.65,72.98 234.92,77.08 223.65,81.19 212.37,77.08" fill="#40c463"/>
<polygon points="212.37,95.08 212.37,77.08 223.65,81.19 223.65,99.19" fill="#38ac57"/>
<polygon points="223.65,99.19 223.65,81.19 234.92,77.08 234.92,95.08" fill="#2f9149"/>
<polygon points="197.34,72.98 208.61,77.08 197.34,81.19 186.06,77.08" fill="#30a14e"/>
<polygon points="186.06,95.08 186.06,77.08 197.34,81.19 197.34,99.19" fill="#2a8d44"/>
<polygon points="197.34,99.19 197.34,81.19 208.61,77.08 208.61,95.08" fill="#237739"/>
<polygon points="105.25,95.77 116.52,99.87 105.25,103.97 93.97,99.87" fill="#ebedf0"/>
<polygon points="263.11,95.77 274.39,99.87 263.11,103.97 251.84,99.87" fill="#ebedf0"/>
<polygon points="131.56,79.77 142.83,83.87 131.56,87.97 120.28,83.87" fill="#9be9a8"/>
<polygon points="120.28,99.87 120.28,83.87 131.56,87.97 131.56,103.97" fill="#88cd93"/>
<polygon points="131.56,103.97 131.56,87.97 142.83,83.87 142.83,99.87" fill="#72ac7c"/>
<polygon points="157.87,78.77 169.14,82.87 157.87,86.97 146.59,82.87" fill="#9be9a8"/>
<polygon points="146.59,99.87 146.59,82.87 157.87,86.97 157.87,103.97" fill="#88cd93"/>
<polygon points="157.87,103.97 157.87,86.97 169.14,82.87 169.14,99.87" fill="#72ac7c"/>
<polygon points="184.18,77.77 195.46,81.87 184.18,85.97 172.90,81.87" fill="#40c463"/>
<polygon points="172.90,99.87 172.90,81.87 184.18,85.97 184.18,103.97" fill="#38ac57"/>
<polygon points="184.18,103.97 184.18,85.97 195.46,81.87 195.46,99.87" fill="#2f9149"/>
<polygon points="210.49,77.77 221.77,81.87 210.49,85.97 199.21,81.87" fill="#40c463"/>
<polygon points="199.21,99.87 199.21,81.87 210.49,85.97 210.49,103.97" fill="#38ac57"/>
<polygon points="210.49,103.97 210.49,85.97 221.77,81.87 221.77,99.87" fill="#2f9149"/>
<polygon points="236.80,77.77 248.08,81.87 236.80,85.97 225.53,81.87" fill="#40c463"/>
<polygon points="225.53,99.87 225.53,81.87 236.80,85.97 236.80,103.97" fill="#38ac57"/>
<polygon points="236.80,103.97 236.80,85.97 248.08,81.87 248.08,99.87" fill="#2f9149"/>
<polygon points="118.40,100.55 129.68,104.66 118.40,108.76 107.12,104.66" fill="#ebedf0"/>
<polygon points="276.27,100.55 287.55,104.66 276.27,108.76 264.99,104.66" fill="#ebedf0"/>
<polygon points="144.71,82.55 155.99,86.66 144.71,90.76 133.44,86.66" fill="#9be9a8"/>
<polygon points="133.44,104.66 133.44,86.66 144.71,90.76 144.71,108.76" fill="#88cd93"/>
<polygon points="144.71,108.76 144.71,90.76 155.99,86.66 155.99,104.66" fill="#72ac7c"/>
<polygon points="249.96,86.55 261.23,90.66 249.96,94.76 238.68,90.66" fill="#9be9a8"/>
<polygon points="238.68,104.66 238.68,90.66 249.96,94.76 249.96,108.76" fill="#88cd93"/>
<polygon points="249.96,108.76 249.96,94.76 261.23,90.66 261.23,104.66" fill="#72ac7c"/>
<polygon points="171.02,82.55 182.30,86.66 171.02,90.76 159.75,86.66" fill="#40c463"/>
<polygon points="159.75,104.66 159.75,86.66 171.02,90.76 171.02,108.76" fill="#38ac57"/>
<polygon points="171.02,108.76 171.02,90.76 182.30,86.66 182.30,104.66" fill="#2f9149"/>
<polygon points="197.34,82.55 208.61,86.66 197.34,90.76 186.06,86.66" fill="#40c463"/>
<polygon points="186.06,104.66 186.06,86.66 197.34,90.76 197.34,108.76" fill="#38ac57"/>
<polygon points="197.34,108.76 197.34,90.76 208.61,86.66 208.61,104.66" fill="#2f9149"/>
<polygon points="223.65,82.55 234.92,86.66 223.65,90.76 212.37,86.66" fill="#40c463"/>
<polygon points="212.37,104.66 212.37,86.66 223.65,90.76 223.65,108.76" fill="#38ac57"/>
<polygon points="223.65,108.76 223.65,90.76 234.92,86.66 234.92,104.66" fill="#2f9149"/>
<polygon points="131.56,87.34 142.83,91.45 131.56,95.55 120.28,91.45" fill="#9be9a8"/>
<polygon points="120.28,109.45 120.28,91.45 131.56,95.55 131.56,113.55" fill="#88cd93"/>
<polygon points="131.56,113.55 131.56,95.55 142.83,91.45 142.83,109.45" fill="#72ac7c"/>
<polygon points="236.80,91.34 248.08,95.45 236.80,99.55 225.53,95.45" fill="#9be9a8"/>
<polygon points="225.53,109.45 225.53,95.45 236.80,99.55 236.80,113.55" fill="#88cd93"/>
<polygon points="236.80,113.55 236.80,99.55 248.08,95.45 248.08,109.45" fill="#72ac7c"/>
<polygon points="263.11,88.34 274.39,92.45 263.11,96.55 251.84,92.45" fill="#9be9a8"/>
<polygon points="251.84,109.45 251.84,92.45 263.11,96.55 263.11,113.55" fill="#88cd93"/>
<polygon points="263.11,113.55 263.11,96.55 274.39,92.45 274.39,109.45" fill="#72ac7c"/>
<polygon points="289.43,97.34 300.70,101.45 289.43,105.55 278.15,101.45" fill="#9be9a8"/>
<polygon points="278.15,109.45 278.15,101.45 289.43,105.55 289.43,113.55" fill="#88cd93"/>
<polygon points="289.43,113.55 289.43,105.55 300.70,101.45 300.70,109.45" fill="#72ac7c"/>
<polygon points="157.87,87.34 169.14,91.45 157.87,95.55 146.59,91.45" fill="#40c463"/>
<polygon points="146.59,109.45 146.59,91.45 157.87,95.55 157.87,113.55" fill="#38ac57"/>
<polygon points="157.87,113.55 157.87,95.55 169.14,91.45 169.14,109.45" fill="#2f9149"/>
<polygon points="184.18,87.34 195.46,91.45 184.18,95.55 172.90,91.45" fill="#40c463"/>
<polygon points="172.90,109.45 172.90,91.45 184.18,95.55 184.18,113.55" fill="#38ac57"/>
<polygon points="184.18,113.55 184.18,95.55 195.46,91.45 195.46,109.45" fill="#2f9149"/>
<polygon points="210.49,87.34 221.77,91.45 210.49,95.55 199.21,91.45" fill="#30a14e"/>
<polygon points="199.21,109.45 199.21,91.45 210.49,95.55 210.49,113.55" fill="#2a8d44"/>
<polygon points="210.49,113.55 210.49,95.55 221.77,91.45 221.77,109.45" fill="#237739"/>
<polygon points="144.71,110.13 155.99,114.23 144.71,118.34 133.44,114.23" fill="#ebedf0"/>
<polygon points="302.58,110.13 313.86,114.23 302.58,118.34 291.30,114.23" fill="#ebedf0"/>
<polygon points="223.65,92.13 234.92,96.23 223.65,100.34 212.37,96.23" fill="#9be9a8"/>
<polygon points="212.37,114.23 212.37,96.23 223.65,100.34 223.65,118.34" fill="#88cd93"/>
<polygon points="223.65,118.34 223.65,100.34 234.92,96.23 234.92,114.23" fill="#72ac7c"/>
<polygon points="276.27,99.13 287.55,103.23 276.27,107.34 264.99,103.23" fill="#9be9a8"/>
<polygon points="264.99,114.23 264.99,103.23 276.27,107.34 276.27,118.34" fill="#88cd93"/>
<polygon points="276.27,118.34 276.27,107.34 287.55,103.23 287.55,114.23" fill="#72ac7c"/>
<polygon points="171.02,92.13 182.30,96.23 171.02,100.34 159.75,96.23" fill="#40c463"/>
<polygon points="159.75,114.23 159.75,96.23 171.02,100.34 171.02,118.34" fill="#38ac57"/>
<polygon points="171.02,118.34 171.02,100.34 182.30,96.23 182.30,114.23" fill="#2f9149"/>
<polygon points="197.34,92.13 208.61,96.23 197.34,100.34 186.06,96.23" fill="#40c463"/>
<polygon points="186.06,114.23 186.06,96.23 197.34,100.34 197.34,118.34" fill="#38ac57"/>
<polygon points="197.34,118.34 197.34,100.34 208.61,96.23 208.61,114.23" fill="#2f9149"/>
<polygon points="249.96,92.13 261.23,96.23 249.96,100.34 238.68,96.23" fill="#40c463"/>
<polygon points="238.68,114.23 238.68,96.23 249.96,100.34 249.96,118.34" fill="#38ac57"/>
<polygon points="249.96,118.34 249.96,100.34 261.23,96.23 261.23,114.23" fill="#2f9149"/>
<polygon points="157.87,114.92 169.14,119.02 157.87,123.13 146.59,119.02" fill="#ebedf0"/>
<polygon points="184.18,114.92 195.46,119.02 184.18,123.13 172.90,119.02" fill="#ebedf0"/>
<polygon points="289.43,114.92 300.70,119.02 289.43,123.13 278.15,119.02" fill="#ebedf0"/>
<polygon points="210.49,98.92 221.77,103.02 210.49,107.13 199.21,103.02" fill="#9be9a8"/>
<polygon points="199.21,119.02 199.21,103.02 210.49,107.13 210.49,123.13" fill="#88cd93"/>
<polygon points="210.49,123.13 210.49,107.13 221.77,103.02 221.77,119.02" fill="#72ac7c"/>
<polygon points="236.80,106.92 248.08,111.02 236.80,115.13 225.53,111.02" fill="#9be9a8"/>
<polygon points="225.53,119.02 225.53,111.02 236.80,115.13 236.80,123.13" fill="#88cd93"/>
<polygon points="236.80,123.13 236.80,115.13 248.08,111.02 248.08,119.02" fill="#72ac7c"/>
<polygon points="263.11,96.92 274.39,101.02 263.11,105.13 251.84,101.02" fill="#9be9a8"/>
<polygon points="251.84,119.02 251.84,101.02 263.11,105.13 263.11,123.13" fill="#88cd93"/>
<polygon points="263.11,123.13 263.11,105.13 274.39,101.02 274.39,119.02" fill="#72ac7c"/>
<polygon points="315.74,106.92 327.01,111.02 315.74,115.13 304.46,111.02" fill="#9be9a8"/>
<polygon points="304.46,119.02 304.46,111.02 315.74,115.13 315.74,123.13" fill="#88cd93"/>
<polygon points="315.74,123.13 315.74,115.13 327.01,111.02 327.01,119.02" fill="#72ac7c"/>
<polygon points="171.02,119.71 182.30,123.81 171.02,127.92 159.75,123.81" fill="#ebedf0"/>
<polygon points="197.34,119.71 208.61,123.81 197.34,127.92 186.06,123.81" fill="#ebedf0"/>
<polygon points="302.58,119.71 313.86,123.81 302.58,127.92 291.30,123.81" fill="#ebedf0"/>
<polygon points="223.65,102.71 234.92,106.81 223.65,110.92 212.37,106.81" fill="#9be9a8"/>
<polygon points="212.37,123.81 212.37,106.81 223.65,110.92 223.65,127.92" fill="#88cd93"/>
<polygon points="223.65,127.92 223.65,110.92 234.92,106.81 234.92,123.81" fill="#72ac7c"/>
<polygon points="249.96,103.71 261.23,107.81 249.96,111.92 238.68,107.81" fill="#9be9a8"/>
<polygon points="238.68,123.81 238.68,107.81 249.96,111.92 249.96,127.92" fill="#88cd93"/>
<polygon points="249.96,127.92 249.96,111.92 261.23,107.81 261.23,123.81" fill="#72ac7c"/>
<polygon points="276.27,106.71 287.55,110.81 276.27,114.92 264.99,110.81" fill="#9be9a8"/>
<polygon points="264.99,123.81 264.99,110.81 276.27,114.92 276.27,127.92" fill="#88cd93"/>
<polygon points="276.27,127.92 276.27,114.92 287.55,110.81 287.55,123.81" fill="#72ac7c"/>
<polygon points="328.89,101.71 340.17,105.81 328.89,109.92 317.62,105.81" fill="#30a14e"/>
<polygon points="317.62,123.81 317.62,105.81 328.89,109.92 328.89,127.92" fill="#2a8d44"/>
<polygon points="328.89,127.92 328.89,109.92 340.17,105.81 340.17,123.81" fill="#237739"/>
<polygon points="342.05,124.50 353.32,128.60 342.05,132.70 330.77,128.60" fill="#ebedf0"/>
<polygon points="184.18,108.50 195.46,112.60 184.18,116.70 172.90,112.60" fill="#9be9a8"/>
<polygon points="172.90,128.60 172.90,112.60 184.18,116.70 184.18,132.70" fill="#88cd93"/>
<polygon points="184.18,132.70 184.18,116.70 195.46,112.60 195.46,128.60" fill="#72ac7c"/>
<polygon points="210.49,110.50 221.77,114.60 210.49,118.70 199.21,114.60" fill="#9be9a8"/>
<polygon points="199.21,128.60 199.21,114.60 210.49,118.70 210.49,132.70" fill="#88cd93"/>
<polygon points="210.49,132.70 210.49,118.70 221.77,114.60 221.77,128.60" fill="#72ac7c"/>
<polygon points="236.80,108.50 248.08,112.60 236.80,116.70 225.53,112.60" fill="#9be9a8"/>
<polygon points="225.53,128.60 225.53,112.60 236.80,116.70 236.80,132.70" fill="#88cd93"/>
<polygon points="236.80,132.70 236.80,116.70 248.08,112.60 248.08,128.60" fill="#72ac7c"/>
<polygon points="263.11,108.50 274.39,112.60 263.11,116.70 251.84,112.60" fill="#9be9a8"/>
<polygon points="251.84,128.60 251.84,112.60 263.11,116.70 263.11,132.70" fill="#88cd93"/>
<polygon points="263.11,132.70 263.11,116.70 274.39,112.60 274.39,128.60" fill="#72ac7c"/>
<polygon points="289.43,107.50 300.70,111.60 289.43,115.70 278.15,111.60" fill="#9be9a8"/>
<polygon points="278.15,128.60 278.15,111.60 289.43,115.70 289.43,132.70" fill="#88cd93"/>
<polygon points="289.43,132.70 289.43,115.70 300.70,111.60 300.70,128.60" fill="#72ac7c"/>
<polygon points="315.74,106.50 327.01,110.60 315.74,114.70 304.46,110.60" fill="#40c463"/>
<polygon points="304.46,128.60 304.46,110.60 315.74,114.70 315.74,132.70" fill="#38ac57"/>
<polygon points="315.74,132.70 315.74,114.70 327.01,110.60 327.01,128.60" fill="#2f9149"/>
<polygon points="223.65,129.28 234.92,133.39 223.65,137.49 212.37,133.39" fill="#ebedf0"/>
<polygon points="197.34,116.28 208.61,120.39 197.34,124.49 186.06,120.39" fill="#9be9a8"/>
<polygon points="186.06,133.39 186.06,120.39 197.34,124.49 197.34,137.49" fill="#88cd93"/>
<polygon points="197.34,137.49 197.34,124.49 208.61,120.39 208.61,133.39" fill="#72ac7c"/>
<polygon points="249.96,114.28 261.23,118.39 249.96,122.49 238.68,118.39" fill="#9be9a8"/>
<polygon points="238.68,133.39 238.68,118.39 249.96,122.49 249.96,137.49" fill="#88cd93"/>
<polygon points="249.96,137.49 249.96,122.49 261.23,118.39 261.23,133.39" fill="#72ac7c"/>
<polygon points="276.27,111.28 287.55,115.39 276.27,119.49 264.99,115.39" fill="#9be9a8"/>
<polygon points="264.99,133.39 264.99,115.39 276.27,119.49 276.27,137.49" fill="#88cd93"/>
<polygon points="276.27,137.49 276.27,119.49 287.55,115.39 287.55,133.39" fill="#72ac7c"/>
<polygon points="328.89,121.28 340.17,125.39 328.89,129.49 317.62,125.39" fill="#9be9a8"/>
<polygon points="317.62,133.39 317.62,125.39 328.89,129.49 328.89,137.49" fill="#88cd93"/>
<polygon points="328.89,137.49 328.89,129.49 340.17,125.39 340.17,133.39" fill="#72ac7c"/>
<polygon points="355.20,118.28 366.48,122.39 355.20,126.49 343.93,122.39" fill="#9be9a8"/>
<polygon points="343.93,133.39 343.93,122.39 355.20,126.49 355.20,137.49" fill="#88cd93"/>
<polygon points="355.20,137.49 355.20,126.49 366.48,122.39 366.48,133.39" fill="#72ac7c"/>
<polygon points="302.58,111.28 313.86,115.39 302.58,119.49 291.30,115.39" fill="#40c463"/>
<polygon points="291.30,133.39 291.30,115.39 302.58,119.49 302.58,137.49" fill="#38ac57"/>
<polygon points="302.58,137.49 302.58,119.49 313.86,115.39 313.86,133.39" fill="#2f9149"/>
<polygon points="210.49,134.07 221.77,138.18 210.49,142.28 199.21,138.18" fill="#ebedf0"/>
<polygon points="315.74,134.07 327.01,138.18 315.74,142.28 304.46,138.18" fill="#ebedf0"/>
<polygon points="368.36,134.07 379.64,138.18 368.36,142.28 357.08,138.18" fill="#ebedf0"/>
<polygon points="236.80,126.07 248.08,130.18 236.80,134.28 225.53,130.18" fill="#9be9a8"/>
<polygon points="225.53,138.18 225.53,130.18 236.80,134.28 236.80,142.28" fill="#88cd93"/>
<polygon points="236.80,142.28 236.80,134.28 248.08,130.18 248.08,138.18" fill="#72ac7c"/>
<polygon points="263.11,118.07 274.39,122.18 263.11,126.28 251.84,122.18" fill="#9be9a8"/>
<polygon points="251.84,138.18 251.84,122.18 263.11,126.28 263.11,142.28" fill="#88cd93"/>
<polygon points="263.11,142.28 263.11,126.28 274.39,122.18 274.39,138.18" fill="#72ac7c"/>
<polygon points="289.43,118.07 300.70,122.18 289.43,126.28 278.15,122.18" fill="#9be9a8"/>
<polygon points="278.15,138.18 278.15,122.18 289.43,126.28 289.43,142.28" fill="#88cd93"/>
<polygon points="289.43,142.28 289.43,126.28 300.70,122.18 300.70,138.18" fill="#72ac7c"/>
<polygon points="342.05,119.07 353.32,123.18 342.05,127.28 330.77,123.18" fill="#9be9a8"/>
<polygon points="330.77,138.18 330.77,123.18 342.05,127.28 342.05,142.28" fill="#88cd93"/>
<polygon points="342.05,142.28 342.05,127.28 353.32,123.18 353.32,138.18" fill="#72ac7c"/>
<polygon points="381.52,138.86 392.79,142.96 381.52,147.07 370.24,142.96" fill="#ebedf0"/>
<polygon points="223.65,125.86 234.92,129.96 223.65,134.07 212.37,129.96" fill="#9be9a8"/>
<polygon points="212.37,142.96 212.37,129.96 223.65,134.07 223.65,147.07" fill="#88cd93"/>
<polygon points="223.65,147.07 223.65,134.07 234.92,129.96 234.92,142.96" fill="#72ac7c"/>
<polygon points="249.96,125.86 261.23,129.96 249.96,134.07 238.68,129.96" fill="#9be9a8"/>
<polygon points="238.68,142.96 238.68,129.96 249.96,134.07 249.96,147.07" fill="#88cd93"/>
<polygon points="249.96,147.07 249.96,134.07 261.23,129.96 261.23,142.96" fill="#72ac7c"/>
<polygon points="302.58,125.86 313.86,129.96 302.58,134.07 291.30,129.96" fill="#9be9a8"/>
<polygon points="291.30,142.96 291.30,129.96 302.58,134.07 302.58,147.07" fill="#88cd93"/>
<polygon points="302.58,147.07 302.58,134.07 313.86,129.96 313.86,142.96" fill="#72ac7c"/>
<polygon points="328.89,127.86 340.17,131.96 328.89,136.07 317.62,131.96" fill="#9be9a8"/>
<polygon points="317.62,142.96 317.62,131.96 328.89,136.07 328.89,147.07" fill="#88cd93"/>
<polygon points="328.89,147.07 328.89,136.07 340.17,131.96 340.17,142.96" fill="#72ac7c"/>
<polygon points="355.20,124.86 366.48,128.96 355.20,133.07 343.93,128.96" fill="#9be9a8"/>
<polygon points="343.93,142.96 343.93,128.96 355.20,133.07 355.20,147.07" fill="#88cd93"/>
<polygon points="355.20,147.07 355.20,133.07 366.48,128.96 366.48,142.96" fill="#72ac7c"/>
<polygon points="276.27,120.86 287.55,124.96 276.27,129.07 264.99,124.96" fill="#40c463"/>
<polygon points="264.99,142.96 264.99,124.96 276.27,129.07 276.27,147.07" fill="#38ac57"/>
<polygon points="276.27,147.07 276.27,129.07 287.55,124.96 287.55,142.96" fill="#2f9149"/>
<polygon points="342.05,143.65 353.32,147.75 342.05,151.86 330.77,147.75" fill="#ebedf0"/>
<polygon points="394.67,143.65 405.95,147.75 394.67,151.86 383.39,147.75" fill="#ebedf0"/>
<polygon points="236.80,130.65 248.08,134.75 236.80,138.86 225.53,134.75" fill="#9be9a8"/>
<polygon points="225.53,147.75 225.53,134.75 236.80,138.86 236.80,151.86" fill="#88cd93"/>
<polygon points="236.80,151.86 236.80,138.86 248.08,134.75 248.08,147.75" fill="#72ac7c"/>
<polygon points="289.43,132.65 300.70,136.75 289.43,140.86 278.15,136.75" fill="#9be9a8"/>
<polygon points="278.15,147.75 278.15,136.75 289.43,140.86 289.43,151.86" fill="#88cd93"/>
<polygon points="289.43,151.86 289.43,140.86 300.70,136.75 300.70,147.75" fill="#72ac7c"/>
<polygon points="315.74,127.65 327.01,131.75 315.74,135.86 304.46,131.75" fill="#9be9a8"/>
<polygon points="304.46,147.75 304.46,131.75 315.74,135.86 315.74,151.86" fill="#88cd93"/>
<polygon points="315.74,151.86 315.74,135.86 327.01,131.75 327.01,147.75" fill="#72ac7c"/>
<polygon points="368.36,130.65 379.64,134.75 368.36,138.86 357.08,134.75" fill="#9be9a8"/>
<polygon points="357.08,147.75 357.08,134.75 368.36,138.86 368.36,151.86" fill="#88cd93"/>
<polygon points="368.36,151.86 368.36,138.86 379.64,134.75 379.64,147.75" fill="#72ac7c"/>
<polygon points="263.11,125.65 274.39,129.75 263.11,133.86 251.84,129.75" fill="#40c463"/>
<polygon points="251.84,147.75 251.84,129.75 263.11,133.86 263.11,151.86" fill="#38ac57"/>
<polygon points="263.11,151.86 263.11,133.86 274.39,129.75 274.39,147.75" fill="#2f9149"/>
<polygon points="249.96,148.44 261.23,152.54 249.96,156.65 238.68,152.54" fill="#ebedf0"/>
<polygon points="302.58,148.44 313.86,152.54 302.58,156.65 291.30,152.54" fill="#ebedf0"/>
<polygon points="381.52,148.44 392.79,152.54 381.52,156.65 370.24,152.54" fill="#ebedf0"/>
<polygon points="407.83,148.44 419.10,152.54 407.83,156.65 396.55,152.54" fill="#ebedf0"/>
<polygon points="276.27,140.44 287.55,144.54 276.27,148.65 264.99,144.54" fill="#9be9a8"/>
<polygon points="264.99,152.54 264.99,144.54 276.27,148.65 276.27,156.65" fill="#88cd93"/>
<polygon points="276.27,156.65 276.27,148.65 287.55,144.54 287.55,152.54" fill="#72ac7c"/>
<polygon points="328.89,137.44 340.17,141.54 328.89,145.65 317.62,141.54" fill="#9be9a8"/>
<polygon points="317.62,152.54 317.62,141.54 328.89,145.65 328.89,156.65" fill="#88cd93"/>
<polygon points="328.89,156.65 328.89,145.65 340.17,141.54 340.17,152.54" fill="#72ac7c"/>
<polygon points="355.20,132.44 366.48,136.54 355.20,140.65 343.93,136.54" fill="#9be9a8"/>
<polygon points="343.93,152.54 343.93,136.54 355.20,140.65 355.20,156.65" fill="#88cd93"/>
<polygon points="355.20,156.65 355.20,140.65 366.48,136.54 366.48,152.54" fill="#72ac7c"/>
<polygon points="420.98,153.23 432.26,157.33 420.98,161.43 409.71,157.33" fill="#ebedf0"/>
<polygon points="263.11,142.23 274.39,146.33 263.11,150.43 251.84,146.33" fill="#9be9a8"/>
<polygon points="251.84,157.33 251.84,146.33 263.11,150.43 263.11,161.43" fill="#88cd93"/>
<polygon points="263.11,161.43 263.11,150.43 274.39,146.33 274.39,157.33" fill="#72ac7c"/>
<polygon points="289.43,145.23 300.70,149.33 289.43,153.43 278.15,149.33" fill="#9be9a8"/>
<polygon points="278.15,157.33 278.15,149.33 289.43,153.43 289.43,161.43" fill="#88cd93"/>
<polygon points="289.43,161.43 289.43,153.43 300.70,149.33 300.70,157.33" fill="#72ac7c"/>
<polygon points="315.74,136.23 327.01,140.33 315.74,144.43 304.46,140.33" fill="#9be9a8"/>
<polygon points="304.46,157.33 304.46,140.33 315.74,144.43 315.74,161.43" fill="#88cd93"/>
<polygon points="315.74,161.43 315.74,144.43 327.01,140.33 327.01,157.33" fill="#72ac7c"/>
<polygon points="342.05,135.23 353.32,139.33 342.05,143.43 330.77,139.33" fill="#9be9a8"/>
<polygon points="330.77,157.33 330.77,139.33 342.05,143.43 342.05,161.43" fill="#88cd93"/>
<polygon points="342.05,161.43 342.05,143.43 353.32,139.33 353.32,157.33" fill="#72ac7c"/>
<polygon points="368.36,135.23 379.64,139.33 368.36,143.43 357.08,139.33" fill="#40c463"/>
<polygon points="357.08,157.33 357.08,139.33 368.36,143.43 368.36,161.43" fill="#38ac57"/>
<polygon points="368.36,161.43 368.36,143.43 379.64,139.33 379.64,157.33" fill="#2f9149"/>
<polygon points="394.67,135.23 405.95,139.33 394.67,143.43 383.39,139.33" fill="#40c463"/>
<polygon points="383.39,157.33 383.39,139.33 394.67,143.43 394.67,161.43" fill="#38ac57"/>
<polygon points="394.67,161.43 394.67,143.43 405.95,139.33 405.95,157.33" fill="#2f9149"/>
<polygon points="434.14,158.01 445.41,162.12 434.14,166.22 422.86,162.12" fill="#ebedf0"/>
<polygon points="276.27,142.01 287.55,146.12 276.27,150.22 264.99,146.12" fill="#9be9a8"/>
<polygon points="264.99,162.12 264.99,146.12 276.27,150.22 276.27,166.22" fill="#88cd93"/>
<polygon points="276.27,166.22 276.27,150.22 287.55,146.12 287.55,162.12" fill="#72ac7c"/>
<polygon points="302.58,147.01 313.86,151.12 302.58,155.22 291.30,151.12" fill="#9be9a8"/>
<polygon points="291.30,162.12 291.30,151.12 302.58,155.22 302.58,166.22" fill="#88cd93"/>
<polygon points="302.58,166.22 302.58,155.22 313.86,151.12 313.86,162.12" fill="#72ac7c"/>
<polygon points="328.89,141.01 340.17,145.12 328.89,149.22 317.62,145.12" fill="#9be9a8"/>
<polygon points="317.62,162.12 317.62,145.12 328.89,149.22 328.89,166.22" fill="#88cd93"/>
<polygon points="328.89,166.22 328.89,149.22 340.17,145.12 340.17,162.12" fill="#72ac7c"/>
<polygon points="355.20,147.01 366.48,151.12 355.20,155.22 343.93,151.12" fill="#9be9a8"/>
<polygon points="343.93,162.12 343.93,151.12 355.20,155.22 355.20,166.22" fill="#88cd93"/>
<polygon points="355.20,166.22 355.20,155.22 366.48,151.12 366.48,162.12" fill="#72ac7c"/>
<polygon points="381.52,141.01 392.79,145.12 381.52,149.22 370.24,145.12" fill="#9be9a8"/>
<polygon points="370.24,162.12 370.24,145.12 381.52,149.22 381.52,166.22" fill="#88cd93"/>
<polygon points="381.52,166.22 381.52,149.22 392.79,145.12 392.79,162.12" fill="#72ac7c"/>
<polygon points="407.83,147.01 419.10,151.12 407.83,155.22 396.55,151.12" fill="#9be9a8"/>
<polygon points="396.55,162.12 396.55,151.12 407.83,155.22 407.83,166.22" fill="#88cd93"/>
<polygon points="407.83,166.22 407.83,155.22 419.10,151.12 419.10,162.12" fill="#72ac7c"/>
<polygon points="289.43,162.80 300.70,166.91 289.43,171.01 278.15,166.91" fill="#ebedf0"/>
<polygon points="315.74,162.80 327.01,166.91 315.74,171.01 304.46,166.91" fill="#ebedf0"/>
<polygon points="447.29,162.80 458.57,166.91 447.29,171.01 436.02,166.91" fill="#ebedf0"/>
<polygon points="342.05,145.80 353.32,149.91 342.05,154.01 330.77,149.91" fill="#9be9a8"/>
<polygon points="330.77,166.91 330.77,149.91 342.05,154.01 342.05,171.01" fill="#88cd93"/>
<polygon points="342.05,171.01 342.05,154.01 353.32,149.91 353.32,166.91" fill="#72ac7c"/>
<polygon points="368.36,148.80 379.64,152.91 368.36,157.01 357.08,152.91" fill="#9be9a8"/>
<polygon points="357.08,166.91 357.08,152.91 368.36,157.01 368.36,171.01" fill="#88cd93"/>
<polygon points="368.36,171.01 368.36,157.01 379.64,152.91 379.64,166.91" fill="#72ac7c"/>
<polygon points="394.67,144.80 405.95,148.91 394.67,153.01 383.39,148.91" fill="#9be9a8"/>
<polygon points="383.39,166.91 383.39,148.91 394.67,153.01 394.67,171.01" fill="#88cd93"/>
<polygon points="394.67,171.01 394.67,153.01 405.95,148.91 405.95,166.91" fill="#72ac7c"/>
<polygon points="420.98,146.80 432.26,150.91 420.98,155.01 409.71,150.91" fill="#9be9a8"/>
<polygon points="409.71,166.91 409.71,150.91 420.98,155.01 420.98,171.01" fill="#88cd93"/>
<polygon points="420.98,171.01 420.98,155.01 432.26,150.91 432.26,166.91" fill="#72ac7c"/>
<polygon points="302.58,167.59 313.86,171.69 302.58,175.80 291.30,171.69" fill="#ebedf0"/>
<polygon points="460.45,167.59 471.73,171.69 460.45,175.80 449.17,171.69" fill="#ebedf0"/>
<polygon points="328.89,153.59 340.17,157.69 328.89,161.80 317.62,157.69" fill="#9be9a8"/>
<polygon points="317.62,171.69 317.62,157.69 328.89,161.80 328.89,175.80" fill="#88cd93"/>
<polygon points="328.89,175.80 328.89,161.80 340.17,157.69 340.17,171.69" fill="#72ac7c"/>
<polygon points="355.20,154.59 366.48,158.69 355.20,162.80 343.93,158.69" fill="#9be9a8"/>
<polygon points="343.93,171.69 343.93,158.69 355.20,162.80 355.20,175.80" fill="#88cd93"/>
<polygon points="355.20,175.80 355.20,162.80 366.48,158.69 366.48,171.69" fill="#72ac7c"/>
<polygon points="381.52,149.59 392.79,153.69 381.52,157.80 370.24,153.69" fill="#9be9a8"/>
<polygon points="370.24,171.69 370.24,153.69 381.52,157.80 381.52,175.80" fill="#88cd93"/>
<polygon points="381.52,175.80 381.52,157.80 392.79,153.69 392.79,171.69" fill="#72ac7c"/>
<polygon points="407.83,151.59 419.10,155.69 407.83,159.80 396.55,155.69" fill="#9be9a8"/>
<polygon points="396.55,171.69 396.55,155.69 407.83,159.80 407.83,175.80" fill="#88cd93"/>
<polygon points="407.83,175.80 407.83,159.80 419.10,155.69 419.10,171.69" fill="#72ac7c"/>
<polygon points="434.14,151.59 445.41,155.69 434.14,159.80 422.86,155.69" fill="#9be9a8"/>
<polygon points="422.86,171.69 422.86,155.69 434.14,159.80 434.14,175.80" fill="#88cd93"/>
<polygon points="434.14,175.80 434.14,159.80 445.41,155.69 445.41,171.69" fill="#72ac7c"/>
<polygon points="315.74,172.38 327.01,176.48 315.74,180.59 304.46,176.48" fill="#ebedf0"/>
<polygon points="473.61,172.38 484.88,176.48 473.61,180.59 462.33,176.48" fill="#ebedf0"/>
<polygon points="342.05,156.38 353.32,160.48 342.05,164.59 330.77,160.48" fill="#9be9a8"/>
<polygon points="330.77,176.48 330.77,160.48 342.05,164.59 342.05,180.59" fill="#88cd93"/>
<polygon points="342.05,180.59 342.05,164.59 353.32,160.48 353.32,176.48" fill="#72ac7c"/>
<polygon points="368.36,157.38 379.64,161.48 368.36,165.59 357.08,161.48" fill="#9be9a8"/>
<polygon points="357.08,176.48 357.08,161.48 368.36,165.59 368.36,180.59" fill="#88cd93"/>
<polygon points="368.36,180.59 368.36,165.59 379.64,161.48 379.64,176.48" fill="#72ac7c"/>
<polygon points="394.67,156.38 405.95,160.48 394.67,164.59 383.39,160.48" fill="#9be9a8"/>
<polygon points="383.39,176.48 383.39,160.48 394.67,164.59 394.67,180.59" fill="#88cd93"/>
<polygon points="394.67,180.59 394.67,164.59 405.95,160.48 405.95,176.48" fill="#72ac7c"/>
<polygon points="420.98,154.38 432.26,158.48 420.98,162.59 409.71,158.48" fill="#9be9a8"/>
<polygon points="409.71,176.48 409.71,158.48 420.98,162.59 420.98,180.59" fill="#88cd93"/>
<polygon points="420.98,180.59 420.98,162.59 432.26,158.48 432.26,176.48" fill="#72ac7c"/>
<polygon points="447.29,154.38 458.57,158.48 447.29,162.59 436.02,158.48" fill="#40c463"/>
<polygon points="436.02,176.48 436.02,158.48 447.29,162.59 447.29,180.59" fill="#38ac57"/>
<polygon points="447.29,180.59 447.29,162.59 458.57,158.48 458.57,176.48" fill="#2f9149"/>
<polygon points="328.89,177.17 340.17,181.27 328.89,185.37 317.62,181.27" fill="#ebedf0"/>
<polygon points="486.76,177.17 498.04,181.27 486.76,185.37 475.48,181.27" fill="#ebedf0"/>
<polygon points="355.20,162.17 366.48,166.27 355.20,170.37 343.93,166.27" fill="#9be9a8"/>
<polygon points="343.93,181.27 343.93,166.27 355.20,170.37 355.20,185.37" fill="#88cd93"/>
<polygon points="355.20,185.37 355.20,170.37 366.48,166.27 366.48,181.27" fill="#72ac7c"/>
<polygon points="381.52,159.17 392.79,163.27 381.52,167.37 370.24,163.27" fill="#9be9a8"/>
<polygon points="370.24,181.27 370.24,163.27 381.52,167.37 381.52,185.37" fill="#88cd93"/>
<polygon points="381.52,185.37 381.52,167.37 392.79,163.27 392.79,181.27" fill="#72ac7c"/>
<polygon points="407.83,159.17 419.10,163.27 407.83,167.37 396.55,163.27" fill="#9be9a8"/>
<polygon points="396.55,181.27 396.55,163.27 407.83,167.37 407.83,185.37" fill="#88cd93"/>
<polygon points="407.83,185.37 407.83,167.37 419.10,163.27 419.10,181.27" fill="#72ac7c"/>
<polygon points="434.14,159.17 445.41,163.27 434.14,167.37 422.86,163.27" fill="#40c463"/>
<polygon points="422.86,181.27 422.86,163.27 434.14,167.37 434.14,185.37" fill="#38ac57"/>
<polygon points="434.14,185.37 434.14,167.37 445.41,163.27 445.41,181.27" fill="#2f9149"/>
<polygon points="460.45,159.17 471.73,163.27 460.45,167.37 449.17,163.27" fill="#40c463"/>
<polygon points="449.17,181.27 449.17,163.27 460.45,167.37 460.45,185.37" fill="#38ac57"/>
<polygon points="460.45,185.37 460.45,167.37 471.73,163.27 471.73,181.27" fill="#2f9149"/>
<polygon points="342.05,181.95 353.32,186.06 342.05,190.16 330.77,186.06" fill="#ebedf0"/>
<polygon points="499.92,181.95 511.19,186.06 499.92,190.16 488.64,186.06" fill="#ebedf0"/>
<polygon points="368.36,167.95 379.64,172.06 368.36,176.16 357.08,172.06" fill="#9be9a8"/>
<polygon points="357.08,186.06 357.08,172.06 368.36,176.16 368.36,190.16" fill="#88cd93"/>
<polygon points="368.36,190.16 368.36,176.16 379.64,172.06 379.64,186.06" fill="#72ac7c"/>
<polygon points="394.67,167.95 405.95,172.06 394.67,176.16 383.39,172.06" fill="#9be9a8"/>
<polygon points="383.39,186.06 383.39,172.06 394.67,176.16 394.67,190.16" fill="#88cd93"/>
<polygon points="394.67,190.16 394.67,176.16 405.95,172.06 405.95,186.06" fill="#72ac7c"/>
<polygon points="420.98,165.95 432.26,170.06 420.98,174.16 409.71,170.06" fill="#9be9a8"/>
<polygon points="409.71,186.06 409.71,170.06 420.98,174.16 420.98,190.16" fill="#88cd93"/>
<polygon points="420.98,190.16 420.98,174.16 432.26,170.06 432.26,186.06" fill="#72ac7c"/>
<polygon points="473.61,170.95 484.88,175.06 473.61,179.16 462.33,175.06" fill="#9be9a8"/>
<polygon points="462.33,186.06 462.33,175.06 473.61,179.16 473.61,190.16" fill="#88cd93"/>
<polygon points="473.61,190.16 473.61,179.16 484.88,175.06 484.88,186.06" fill="#72ac7c"/>
<polygon points="447.29,163.95 458.57,168.06 447.29,172.16 436.02,168.06" fill="#40c463"/>
<polygon points="436.02,186.06 436.02,168.06 447.29,172.16 447.29,190.16" fill="#38ac57"/>
<polygon points="447.29,190.16 447.29,172.16 458.57,168.06 458.57,186.06" fill="#2f9149"/>
<polygon points="355.20,186.74 366.48,190.85 355.20,194.95 343.93,190.85" fill="#ebedf0"/>
<polygon points="407.83,186.74 419.10,190.85 407.83,194.95 396.55,190.85" fill="#ebedf0"/>
<polygon points="513.07,186.74 524.35,190.85 513.07,194.95 501.80,190.85" fill="#ebedf0"/>
<polygon points="381.52,175.74 392.79,179.85 381.52,183.95 370.24,179.85" fill="#9be9a8"/>
<polygon points="370.24,190.85 370.24,179.85 381.52,183.95 381.52,194.95" fill="#88cd93"/>
<polygon points="381.52,194.95 381.52,183.95 392.79,179.85 392.79,190.85" fill="#72ac7c"/>
<polygon points="434.14,168.74 445.41,172.85 434.14,176.95 422.86,172.85" fill="#9be9a8"/>
<polygon points="422.86,190.85 422.86,172.85 434.14,176.95 434.14,194.95" fill="#88cd93"/>
<polygon points="434.14,194.95 434.14,176.95 445.41,172.85 445.41,190.85" fill="#72ac7c"/>
<polygon points="486.76,178.74 498.04,182.85 486.76,186.95 475.48,182.85" fill="#9be9a8"/>
<polygon points="475.48,190.85 475.48,182.85 486.76,186.95 486.76,194.95" fill="#88cd93"/>
<polygon points="486.76,194.95 486.76,186.95 498.04,182.85 498.04,190.85" fill="#72ac7c"/>
<polygon points="460.45,168.74 471.73,172.85 460.45,176.95 449.17,172.85" fill="#40c463"/>
<polygon points="449.17,190.85 449.17,172.85 460.45,176.95 460.45,194.95" fill="#38ac57"/>
<polygon points="460.45,194.95 460.45,176.95 471.73,172.85 471.73,190.85" fill="#2f9149"/>
<polygon points="368.36,191.53 379.64,195.64 368.36,199.74 357.08,195.64" fill="#ebedf0"/>
<polygon points="394.67,191.53 405.95,195.64 394.67,199.74 383.39,195.64" fill="#ebedf0"/>
<polygon points="420.98,183.53 432.26,187.64 420.98,191.74 409.71,187.64" fill="#9be9a8"/>
<polygon points="409.71,195.64 409.71,187.64 420.98,191.74 420.98,199.74" fill="#88cd93"/>
<polygon points="420.98,199.74 420.98,191.74 432.26,187.64 432.26,195.64" fill="#72ac7c"/>
<polygon points="473.61,173.53 484.88,177.64 473.61,181.74 462.33,177.64" fill="#9be9a8"/>
<polygon points="462.33,195.64 462.33,177.64 473.61,181.74 473.61,199.74" fill="#88cd93"/>
<polygon points="473.61,199.74 473.61,181.74 484.88,177.64 484.88,195.64" fill="#72ac7c"/>
<polygon points="499.92,175.53 511.19,179.64 499.92,183.74 488.64,179.64" fill="#9be9a8"/>
<polygon points="488.64,195.64 488.64,179.64 499.92,183.74 499.92,199.74" fill="#88cd93"/>
<polygon points="499.92,199.74 499.92,183.74 511.19,179.64 511.19,195.64" fill="#72ac7c"/>
<polygon points="447.29,173.53 458.57,177.64 447.29,181.74 436.02,177.64" fill="#40c463"/>
<polygon points="436.02,195.64 436.02,177.64 447.29,181.74 447.29,199.74" fill="#38ac57"/>
<polygon points="447.29,199.74 447.29,181.74 458.57,177.64 458.57,195.64" fill="#2f9149"/>
<polygon points="526.23,173.53 537.50,177.64 526.23,181.74 514.95,177.64" fill="#30a14e"/>
<polygon points="514.95,195.64 514.95,177.64 526.23,181.74 526.23,199.74" fill="#2a8d44"/>
<polygon points="526.23,199.74 526.23,181.74 537.50,177.64 537.50,195.64" fill="#237739"/>
<polygon points="381.52,196.32 392.79,200.42 381.52,204.53 370.24,200.42" fill="#ebedf0"/>
<polygon points="407.83,181.32 419.10,185.42 407.83,189.53 396.55,185.42" fill="#9be9a8"/>
<polygon points="396.55,200.42 396.55,185.42 407.83,189.53 407.83,204.53" fill="#88cd93"/>
<polygon points="407.83,204.53 407.83,189.53 419.10,185.42 419.10,200.42" fill="#72ac7c"/>
<polygon points="434.14,179.32 445.41,183.42 434.14,187.53 422.86,183.42" fill="#9be9a8"/>
<polygon points="422.86,200.42 422.86,183.42 434.14,187.53 434.14,204.53" fill="#88cd93"/>
<polygon points="434.14,204.53 434.14,187.53 445.41,183.42 445.41,200.42" fill="#72ac7c"/>
<polygon points="460.45,185.32 471.73,189.42 460.45,193.53 449.17,189.42" fill="#9be9a8"/>
<polygon points="449.17,200.42 449.17,189.42 460.45,193.53 460.45,204.53" fill="#88cd93"/>
<polygon points="460.45,204.53 460.45,193.53 471.73,189.42 471.73,200.42" fill="#72ac7c"/>
<polygon points="486.76,185.32 498.04,189.42 486.76,193.53 475.48,189.42" fill="#9be9a8"/>
<polygon points="475.48,200.42 475.48,189.42 486.76,193.53 486.76,204.53" fill="#88cd93"/>
<polygon points="486.76,204.53 486.76,193.53 498.04,189.42 498.04,200.42" fill="#72ac7c"/>
<polygon points="539.38,188.32 550.66,192.42 539.38,196.53 528.11,192.42" fill="#9be9a8"/>
<polygon points="528.11,200.42 528.11,192.42 539.38,196.53 539.38,204.53" fill="#88cd93"/>
<polygon points="539.38,204.53 539.38,196.53 550.66,192.42 550.66,200.42" fill="#72ac7c"/>
<polygon points="513.07,178.32 524.35,182.42 513.07,186.53 501.80,182.42" fill="#40c463"/>
<polygon points="501.80,200.42 501.80,182.42 513.07,186.53 513.07,204.53" fill="#38ac57"/>
<polygon points="513.07,204.53 513.07,186.53 524.35,182.42 524.35,200.42" fill="#2f9149"/>
<polygon points="394.67,201.11 405.95,205.21 394.67,209.32 383.39,205.21" fill="#ebedf0"/>
<polygon points="526.23,201.11 537.50,205.21 526.23,209.32 514.95,205.21" fill="#ebedf0"/>
<polygon points="552.54,201.11 563.82,205.21 552.54,209.32 541.26,205.21" fill="#ebedf0"/>
<polygon points="447.29,190.11 458.57,194.21 447.29,198.32 436.02,194.21" fill="#9be9a8"/>
<polygon points="436.02,205.21 436.02,194.21 447.29,198.32 447.29,209.32" fill="#88cd93"/>
<polygon points="447.29,209.32 447.29,198.32 458.57,194.21 458.57,205.21" fill="#72ac7c"/>
<polygon points="420.98,183.11 432.26,187.21 420.98,191.32 409.71,187.21" fill="#40c463"/>
<polygon points="409.71,205.21 409.71,187.21 420.98,191.32 420.98,209.32" fill="#38ac57"/>
<polygon points="420.98,209.32 420.98,191.32 432.26,187.21 432.26,205.21" fill="#2f9149"/>
<polygon points="473.61,183.11 484.88,187.21 473.61,191.32 462.33,187.21" fill="#40c463"/>
<polygon points="462.33,205.21 462.33,187.21 473.61,191.32 473.61,209.32" fill="#38ac57"/>
<polygon points="473.61,209.32 473.61,191.32 484.88,187.21 484.88,205.21" fill="#2f9149"/>
<polygon points="499.92,183.11 511.19,187.21 499.92,191.32 488.64,187.21" fill="#40c463"/>
<polygon points="488.64,205.21 488.64,187.21 499.92,191.32 499.92,209.32" fill="#38ac57"/>
<polygon points="499.92,209.32 499.92,191.32 511.19,187.21 511.19,205.21" fill="#2f9149"/>
<polygon points="407.83,205.90 419.10,210.00 407.83,214.10 396.55,210.00" fill="#ebedf0"/>
<polygon points="539.38,205.90 550.66,210.00 539.38,214.10 528.11,210.00" fill="#ebedf0"/>
<polygon points="565.69,205.90 576.97,210.00 565.69,214.10 554.42,210.00" fill="#ebedf0"/>
<polygon points="460.45,191.90 471.73,196.00 460.45,200.10 449.17,196.00" fill="#9be9a8"/>
<polygon points="449.17,210.00 449.17,196.00 460.45,200.10 460.45,214.10" fill="#88cd93"/>
<polygon points="460.45,214.10 460.45,200.10 471.73,196.00 471.73,210.00" fill="#72ac7c"/>
<polygon points="486.76,194.90 498.04,199.00 486.76,203.10 475.48,199.00" fill="#9be9a8"/>
<polygon points="475.48,210.00 475.48,199.00 486.76,203.10 486.76,214.10" fill="#88cd93"/>
<polygon points="486.76,214.10 486.76,203.10 498.04,199.00 498.04,210.00" fill="#72ac7c"/>
<polygon points="513.07,192.90 524.35,197.00 513.07,201.10 501.80,197.00" fill="#9be9a8"/>
<polygon points="501.80,210.00 501.80,197.00 513.07,201.10 513.07,214.10" fill="#88cd93"/>
<polygon points="513.07,214.10 513.07,201.10 524.35,197.00 524.35,210.00" fill="#72ac7c"/>
<polygon points="434.14,187.90 445.41,192.00 434.14,196.10 422.86,192.00" fill="#40c463"/>
<polygon points="422.86,210.00 422.86,192.00 434.14,196.10 434.14,214.10" fill="#38ac57"/>
<polygon points="434.14,214.10 434.14,196.10 445.41,192.00 445.41,210.00" fill="#2f9149"/>
<polygon points="420.98,210.68 432.26,214.79 420.98,218.89 409.71,214.79" fill="#ebedf0"/>
<polygon points="526.23,210.68 537.50,214.79 526.23,218.89 514.95,214.79" fill="#ebedf0"/>
<polygon points="552.54,210.68 563.82,214.79 552.54,218.89 541.26,214.79" fill="#ebedf0"/>
<polygon points="447.29,195.68 458.57,199.79 447.29,203.89 436.02,199.79" fill="#9be9a8"/>
<polygon points="436.02,214.79 436.02,199.79 447.29,203.89 447.29,218.89" fill="#88cd93"/>
<polygon points="447.29,218.89 447.29,203.89 458.57,199.79 458.57,214.79" fill="#72ac7c"/>
<polygon points="473.61,192.68 484.88,196.79 473.61,200.89 462.33,196.79" fill="#9be9a8"/>
<polygon points="462.33,214.79 462.33,196.79 473.61,200.89 473.61,218.89" fill="#88cd93"/>
<polygon points="473.61,218.89 473.61,200.89 484.88,196.79 484.88,214.79" fill="#72ac7c"/>
<polygon points="578.85,199.68 590.13,203.79 578.85,207.89 567.57,203.79" fill="#9be9a8"/>
<polygon points="567.57,214.79 567.57,203.79 578.85,207.89 578.85,218.89" fill="#88cd93"/>
<polygon points="578.85,218.89 578.85,207.89 590.13,203.79 590.13,214.79" fill="#72ac7c"/>
<polygon points="499.92,192.68 511.19,196.79 499.92,200.89 488.64,196.79" fill="#40c463"/>
<polygon points="488.64,214.79 488.64,196.79 499.92,200.89 499.92,218.89" fill="#38ac57"/>
<polygon points="499.92,218.89 499.92,200.89 511.19,196.79 511.19,214.79" fill="#2f9149"/>
<polygon points="434.14,215.47 445.41,219.58 434.14,223.68 422.86,219.58" fill="#ebedf0"/>
<polygon points="460.45,215.47 471.73,219.58 460.45,223.68 449.17,219.58" fill="#ebedf0"/>
<polygon points="539.38,215.47 550.66,219.58 539.38,223.68 528.11,219.58" fill="#ebedf0"/>
<polygon points="565.69,215.47 576.97,219.58 565.69,223.68 554.42,219.58" fill="#ebedf0"/>
<polygon points="592.01,215.47 603.28,219.58 592.01,223.68 580.73,219.58" fill="#ebedf0"/>
<polygon points="513.07,199.47 524.35,203.58 513.07,207.68 501.80,203.58" fill="#9be9a8"/>
<polygon points="501.80,219.58 501.80,203.58 513.07,207.68 513.07,223.68" fill="#88cd93"/>
<polygon points="513.07,223.68 513.07,207.68 524.35,203.58 524.35,219.58" fill="#72ac7c"/>
<polygon points="486.76,197.47 498.04,201.58 486.76,205.68 475.48,201.58" fill="#40c463"/>
<polygon points="475.48,219.58 475.48,201.58 486.76,205.68 486.76,223.68" fill="#38ac57"/>
<polygon points="486.76,223.68 486.76,205.68 498.04,201.58 498.04,219.58" fill="#2f9149"/>
<polygon points="447.29,220.26 458.57,224.37 447.29,228.47 436.02,224.37" fill="#ebedf0"/>
<polygon points="499.92,220.26 511.19,224.37 499.92,228.47 488.64,224.37" fill="#ebedf0"/>
<polygon points="526.23,220.26 537.50,224.37 526.23,228.47 514.95,224.37" fill="#ebedf0"/>
<polygon points="578.85,220.26 590.13,224.37 578.85,228.47 567.57,224.37" fill="#ebedf0"/>
<polygon points="473.61,212.26 484.88,216.37 473.61,220.47 462.33,216.37" fill="#9be9a8"/>
<polygon points="462.33,224.37 462.33,216.37 473.61,220.47 473.61,228.47" fill="#88cd93"/>
<polygon points="473.61,228.47 473.61,220.47 484.88,216.37 484.88,224.37" fill="#72ac7c"/>
<polygon points="552.54,209.26 563.82,213.37 552.54,217.47 541.26,213.37" fill="#9be9a8"/>
<polygon points="541.26,224.37 541.26,213.37 552.54,217.47 552.54,228.47" fill="#88cd93"/>
<polygon points="552.54,228.47 552.54,217.47 563.82,213.37 563.82,224.37" fill="#72ac7c"/>
<polygon points="605.16,209.26 616.44,213.37 605.16,217.47 593.89,213.37" fill="#9be9a8"/>
<polygon points="593.89,224.37 593.89,213.37 605.16,217.47 605.16,228.47" fill="#88cd93"/>
<polygon points="605.16,228.47 605.16,217.47 616.44,213.37 616.44,224.37" fill="#72ac7c"/>
<polygon points="460.45,225.05 471.73,229.15 460.45,233.26 449.17,229.15" fill="#ebedf0"/>
<polygon points="486.76,225.05 498.04,229.15 486.76,233.26 475.48,229.15" fill="#ebedf0"/>
<polygon points="513.07,225.05 524.35,229.15 513.07,233.26 501.80,229.15" fill="#ebedf0"/>
<polygon points="539.38,225.05 550.66,229.15 539.38,233.26 528.11,229.15" fill="#ebedf0"/>
<polygon points="592.01,225.05 603.28,229.15 592.01,233.26 580.73,229.15" fill="#ebedf0"/>
<polygon points="618.32,225.05 629.59,229.15 618.32,233.26 607.04,229.15" fill="#ebedf0"/>
<polygon points="565.69,207.05 576.97,211.15 565.69,215.26 554.42,211.15" fill="#30a14e"/>
<polygon points="554.42,229.15 554.42,211.15 565.69,215.26 565.69,233.26" fill="#2a8d44"/>
<polygon points="565.69,233.26 565.69,215.26 576.97,211.15 576.97,229.15" fill="#237739"/>
<polygon points="473.61,229.84 484.88,233.94 473.61,238.05 462.33,233.94" fill="#ebedf0"/>
<polygon points="499.92,229.84 511.19,233.94 499.92,238.05 488.64,233.94" fill="#ebedf0"/>
<polygon points="578.85,229.84 590.13,233.94 578.85,238.05 567.57,233.94" fill="#ebedf0"/>
<polygon points="605.16,229.84 616.44,233.94 605.16,238.05 593.89,233.94" fill="#ebedf0"/>
<polygon points="631.47,229.84 642.75,233.94 631.47,238.05 620.20,233.94" fill="#ebedf0"/>
<polygon points="526.23,218.84 537.50,222.94 526.23,227.05 514.95,222.94" fill="#9be9a8"/>
<polygon points="514.95,233.94 514.95,222.94 526.23,227.05 526.23,238.05" fill="#88cd93"/>
<polygon points="526.23,238.05 526.23,227.05 537.50,222.94 537.50,233.94" fill="#72ac7c"/>
<polygon points="552.54,211.84 563.82,215.94 552.54,220.05 541.26,215.94" fill="#9be9a8"/>
<polygon points="541.26,233.94 541.26,215.94 552.54,220.05 552.54,238.05" fill="#88cd93"/>
<polygon points="552.54,238.05 552.54,220.05 563.82,215.94 563.82,233.94" fill="#72ac7c"/>
<polygon points="486.76,234.63 498.04,238.73 486.76,242.83 475.48,238.73" fill="#ebedf0"/>
<polygon points="539.38,234.63 550.66,238.73 539.38,242.83 528.11,238.73" fill="#ebedf0"/>
<polygon points="592.01,234.63 603.28,238.73 592.01,242.83 580.73,238.73" fill="#ebedf0"/>
<polygon points="513.07,226.63 524.35,230.73 513.07,234.83 501.80,230.73" fill="#9be9a8"/>
<polygon points="501.80,238.73 501.80,230.73 513.07,234.83 513.07,242.83" fill="#88cd93"/>
<polygon points="513.07,242.83 513.07,234.83 524.35,230.73 524.35,238.73" fill="#72ac7c"/>
<polygon points="565.69,226.63 576.97,230.73 565.69,234.83 554.42,230.73" fill="#9be9a8"/>
<polygon points="554.42,238.73 554.42,230.73 565.69,234.83 565.69,242.83" fill="#88cd93"/>
<polygon points="565.69,242.83 565.69,234.83 576.97,230.73 576.97,238.73" fill="#72ac7c"/>
<polygon points="618.32,226.63 629.59,230.73 618.32,234.83 607.04,230.73" fill="#9be9a8"/>
<polygon points="607.04,238.73 607.04,230.73 618.32,234.83 618.32,242.83" fill="#88cd93"/>
<polygon points="618.32,242.83 618.32,234.83 629.59,230.73 629.59,238.73" fill="#72ac7c"/>
<polygon points="644.63,221.63 655.91,225.73 644.63,229.83 633.35,225.73" fill="#9be9a8"/>
<polygon points="633.35,238.73 633.35,225.73 644.63,229.83 644.63,242.83" fill="#88cd93"/>
<polygon points="644.63,242.83 644.63,229.83 655.91,225.73 655.91,238.73" fill="#72ac7c"/>
<polygon points="526.23,239.41 537.50,243.52 526.23,247.62 514.95,243.52" fill="#ebedf0"/>
<polygon points="552.54,239.41 563.82,243.52 552.54,247.62 541.26,243.52" fill="#ebedf0"/>
<polygon points="578.85,239.41 590.13,243.52 578.85,247.62 567.57,243.52" fill="#ebedf0"/>
<polygon points="631.47,239.41 642.75,243.52 631.47,247.62 620.20,243.52" fill="#ebedf0"/>
<polygon points="499.92,223.41 511.19,227.52 499.92,231.62 488.64,227.52" fill="#9be9a8"/>
<polygon points="488.64,243.52 488.64,227.52 499.92,231.62 499.92,247.62" fill="#88cd93"/>
<polygon points="499.92,247.62 499.92,231.62 511.19,227.52 511.19,243.52" fill="#72ac7c"/>
<polygon points="605.16,223.41 616.44,227.52 605.16,231.62 593.89,227.52" fill="#9be9a8"/>
<polygon points="593.89,243.52 593.89,227.52 605.16,231.62 605.16,247.62" fill="#88cd93"/>
<polygon points="605.16,247.62 605.16,231.62 616.44,227.52 616.44,243.52" fill="#72ac7c"/>
<polygon points="657.78,225.41 669.06,229.52 657.78,233.62 646.51,229.52" fill="#9be9a8"/>
<polygon points="646.51,243.52 646.51,229.52 657.78,233.62 657.78,247.62" fill="#88cd93"/>
<polygon points="657.78,247.62 657.78,233.62 669.06,229.52 669.06,243.52" fill="#72ac7c"/>
<polygon points="513.07,244.20 524.35,248.31 513.07,252.41 501.80,248.31" fill="#ebedf0"/>
<polygon points="565.69,244.20 576.97,248.31 565.69,252.41 554.42,248.31" fill="#ebedf0"/>
<polygon points="539.38,236.20 550.66,240.31 539.38,244.41 528.11,240.31" fill="#9be9a8"/>
<polygon points="528.11,248.31 528.11,240.31 539.38,244.41 539.38,252.41" fill="#88cd93"/>
<polygon points="539.38,252.41 539.38,244.41 550.66,240.31 550.66,248.31" fill="#72ac7c"/>
<polygon points="592.01,229.20 603.28,233.31 592.01,237.41 580.73,233.31" fill="#9be9a8"/>
<polygon points="580.73,248.31 580.73,233.31 592.01,237.41 592.01,252.41" fill="#88cd93"/>
<polygon points="592.01,252.41 592.01,237.41 603.28,233.31 603.28,248.31" fill="#72ac7c"/>
<polygon points="618.32,233.20 629.59,237.31 618.32,241.41 607.04,237.31" fill="#9be9a8"/>
<polygon points="607.04,248.31 607.04,237.31 618.32,241.41 618.32,252.41" fill="#88cd93"/>
<polygon points="618.32,252.41 618.32,241.41 629.59,237.31 629.59,248.31" fill="#72ac7c"/>
<polygon points="670.94,230.20 682.22,234.31 670.94,238.41 659.66,234.31" fill="#9be9a8"/>
<polygon points="659.66,248.31 659.66,234.31 670.94,238.41 670.94,252.41" fill="#88cd93"/>
<polygon points="670.94,252.41 670.94,238.41 682.22,234.31 682.22,248.31" fill="#72ac7c"/>
<polygon points="644.63,226.20 655.91,230.31 644.63,234.41 633.35,230.31" fill="#40c463"/>
<polygon points="633.35,248.31 633.35,230.31 644.63,234.41 644.63,252.41" fill="#38ac57"/>
<polygon points="644.63,252.41 644.63,234.41 655.91,230.31 655.91,248.31" fill="#2f9149"/>
<polygon points="526.23,248.99 537.50,253.09 526.23,257.20 514.95,253.09" fill="#ebedf0"/>
<polygon points="605.16,248.99 616.44,253.09 605.16,257.20 593.89,253.09" fill="#ebedf0"/>
<polygon points="684.10,248.99 695.37,253.09 684.10,257.20 672.82,253.09" fill="#ebedf0"/>
<polygon points="552.54,231.99 563.82,236.09 552.54,240.20 541.26,236.09" fill="#9be9a8"/>
<polygon points="541.26,253.09 541.26,236.09 552.54,240.20 552.54,257.20" fill="#88cd93"/>
<polygon points="552.54,257.20 552.54,240.20 563.82,236.09 563.82,253.09" fill="#72ac7c"/>
<polygon points="578.85,235.99 590.13,240.09 578.85,244.20 567.57,240.09" fill="#9be9a8"/>
<polygon points="567.57,253.09 567.57,240.09 578.85,244.20 578.85,257.20" fill="#88cd93"/>
<polygon points="578.85,257.20 578.85,244.20 590.13,240.09 590.13,253.09" fill="#72ac7c"/>
<polygon points="631.47,233.99 642.75,238.09 631.47,242.20 620.20,238.09" fill="#9be9a8"/>
<polygon points="620.20,253.09 620.20,238.09 631.47,242.20 631.47,257.20" fill="#88cd93"/>
<polygon points="631.47,257.20 631.47,242.20 642.75,238.09 642.75,253.09" fill="#72ac7c"/>
<polygon points="657.78,230.99 669.06,235.09 657.78,239.20 646.51,235.09" fill="#216e39"/>
<polygon points="646.51,253.09 646.51,235.09 657.78,239.20 657.78,257.20" fill="#1d6032"/>
<polygon points="657.78,257.20 657.78,239.20 669.06,235.09 669.06,253.09" fill="#18512a"/>
<polygon points="539.38,253.78 550.66,257.88 539.38,261.99 528.11,257.88" fill="#ebedf0"/>
<polygon points="565.69,253.78 576.97,257.88 565.69,261.99 554.42,257.88" fill="#ebedf0"/>
<polygon points="592.01,253.78 603.28,257.88 592.01,261.99 580.73,257.88" fill="#ebedf0"/>
<polygon points="618.32,253.78 629.59,257.88 618.32,261.99 607.04,257.88" fill="#ebedf0"/>
<polygon points="644.63,235.78 655.91,239.88 644.63,243.99 633.35,239.88" fill="#9be9a8"/>
<polygon points="633.35,257.88 633.35,239.88 644.63,243.99 644.63,261.99" fill="#88cd93"/>
<polygon points="644.63,261.99 644.63,243.99 655.91,239.88 655.91,257.88" fill="#72ac7c"/>
<polygon points="670.94,245.78 682.22,249.88 670.94,253.99 659.66,249.88" fill="#9be9a8"/>
<polygon points="659.66,257.88 659.66,249.88 670.94,253.99 670.94,261.99" fill="#88cd93"/>
<polygon points="670.94,261.99 670.94,253.99 682.22,249.88 682.22,257.88" fill="#72ac7c"/>
<polygon points="552.54,258.57 563.82,262.67 552.54,266.78 541.26,262.67" fill="#ebedf0"/>
<polygon points="578.85,244.57 590.13,248.67 578.85,252.78 567.57,248.67" fill="#9be9a8"/>
<polygon points="567.57,262.67 567.57,248.67 578.85,252.78 578.85,266.78" fill="#88cd93"/>
<polygon points="578.85,266.78 578.85,252.78 590.13,248.67 590.13,262.67" fill="#72ac7c"/>
<polygon points="605.16,244.57 616.44,248.67 605.16,252.78 593.89,248.67" fill="#9be9a8"/>
<polygon points="593.89,262.67 593.89,248.67 605.16,252.78 605.16,266.78" fill="#88cd93"/>
<polygon points="605.16,266.78 605.16,252.78 616.44,248.67 616.44,262.67" fill="#72ac7c"/>
<polygon points="631.47,245.57 642.75,249.67 631.47,253.78 620.20,249.67" fill="#9be9a8"/>
<polygon points="620.20,262.67 620.20,249.67 631.47,253.78 631.47,266.78" fill="#88cd93"/>
<polygon points="631.47,266.78 631.47,253.78 642.75,249.67 642.75,262.67" fill="#72ac7c"/>
<polygon points="657.78,242.57 669.06,246.67 657.78,250.78 646.51,246.67" fill="#9be9a8"/>
<polygon points="646.51,262.67 646.51,246.67 657.78,250.78 657.78,266.78" fill="#88cd93"/>
<polygon points="657.78,266.78 657.78,250.78 669.06,246.67 669.06,262.67" fill="#72ac7c"/>
<polygon points="565.69,249.36 576.97,253.46 565.69,257.56 554.42,253.46" fill="#9be9a8"/>
<polygon points="554.42,267.46 554.42,253.46 565.69,257.56 565.69,271.56" fill="#88cd93"/>
<polygon points="565.69,271.56 565.69,257.56 576.97,253.46 576.97,267.46" fill="#72ac7c"/>
<polygon points="618.32,247.36 629.59,251.46 618.32,255.56 607.04,251.46" fill="#9be9a8"/>
<polygon points="607.04,267.46 607.04,251.46 618.32,255.56 618.32,271.56" fill="#88cd93"/>
<polygon points="618.32,271.56 618.32,255.56 629.59,251.46 629.59,267.46" fill="#72ac7c"/>
<polygon points="644.63,252.36 655.91,256.46 644.63,260.56 633.35,256.46" fill="#9be9a8"/>
<polygon points="633.35,267.46 633.35,256.46 644.63,260.56 644.63,271.56" fill="#88cd93"/>
<polygon points="644.63,271.56 644.63,260.56 655.91,256.46 655.91,267.46" fill="#72ac7c"/>
<polygon points="592.01,245.36 603.28,249.46 592.01,253.56 580.73,249.46" fill="#40c463"/>
<polygon points="580.73,267.46 580.73,249.46 592.01,253.56 592.01,271.56" fill="#38ac57"/>
<polygon points="592.01,271.56 592.01,253.56 603.28,249.46 603.28,267.46" fill="#2f9149"/>
<polygon points="631.47,268.14 642.75,272.25 631.47,276.35 620.20,272.25" fill="#ebedf0"/>
<polygon points="578.85,250.14 590.13,254.25 578.85,258.35 567.57,254.25" fill="#9be9a8"/>
<polygon points="567.57,272.25 567.57,254.25 578.85,258.35 578.85,276.35" fill="#88cd93"/>
<polygon points="578.85,276.35 578.85,258.35 590.13,254.25 590.13,272.25" fill="#72ac7c"/>
<polygon points="605.16,257.14 616.44,261.25 605.16,265.35 593.89,261.25" fill="#9be9a8"/>
<polygon points="593.89,272.25 593.89,261.25 605.16,265.35 605.16,276.35" fill="#88cd93"/>
<polygon points="605.16,276.35 605.16,265.35 616.44,261.25 616.44,272.25" fill="#72ac7c"/>
<polygon points="592.01,261.93 603.28,266.04 592.01,270.14 580.73,266.04" fill="#9be9a8"/>
<polygon points="580.73,277.04 580.73,266.04 592.01,270.14 592.01,281.14" fill="#88cd93"/>
<polygon points="592.01,281.14 592.01,270.14 603.28,266.04 603.28,277.04" fill="#72ac7c"/>
<text x="697.25" y="14.00" text-anchor="end" font-family='-apple-system, BlinkMacSystemFont, "Segoe UI", Helvetica, Arial, sans-serif' font-size="34" font-weight="700" fill="#216e39">3,109</text>
<text x="697.25" y="26.00" text-anchor="end" font-family='-apple-system, BlinkMacSystemFont, "Segoe UI", Helvetica, Arial, sans-serif' font-size="10" fill="#59636e" letter-spacing="0.8">TOTAL CONTRIBUTIONS</text>
<rect x="-92.09" y="227.03" width="12" height="12.26" rx="1" fill="#40c463"/>
<text x="-86.09" y="257.30" text-anchor="middle" font-family='-apple-system, BlinkMacSystemFont, "Segoe UI", Helvetica, Arial, sans-serif' font-size="11" fill="#59636e">S</text>
<rect x="-76.09" y="194.07" width="12" height="45.23" rx="1" fill="#40c463"/>
<text x="-70.09" y="257.30" text-anchor="middle" font-family='-apple-system, BlinkMacSystemFont, "Segoe UI", Helvetica, Arial, sans-serif' font-size="11" fill="#59636e">M</text>
<rect x="-60.09" y="185.30" width="12" height="54.00" rx="1" fill="#216e39"/>
<text x="-54.09" y="257.30" text-anchor="middle" font-family='-apple-system, BlinkMacSystemFont, "Segoe UI", Helvetica, Arial, sans-serif' font-size="11" fill="#59636e">T</text>
<rect x="-44.09" y="187.34" width="12" height="51.96" rx="1" fill="#40c463"/>
<text x="-38.09" y="257.30" text-anchor="middle" font-family='-apple-system, BlinkMacSystemFont, "Segoe UI", Helvetica, Arial, sans-serif' font-size="11" fill="#59636e">W</text>
<rect x="-28.09" y="191.00" width="12" height="48.29" rx="1" fill="#40c463"/>
<text x="-22.09" y="257.30" text-anchor="middle" font-family='-apple-system, BlinkMacSystemFont, "Segoe UI", Helvetica, Arial, sans-serif' font-size="11" fill="#59636e">T</text>
<rect x="-12.09" y="192.71" width="12" height="46.59" rx="1" fill="#40c463"/>
<text x="-6.09" y="257.30" text-anchor="middle" font-family='-apple-system, BlinkMacSystemFont, "Segoe UI", Helvetica, Arial, sans-serif' font-size="11" fill="#59636e">F</text>
<rect x="3.91" y="232.82" width="12" height="6.47" rx="1" fill="#40c463"/>
<text x="9.91" y="257.30" text-anchor="middle" font-family='-apple-system, BlinkMacSystemFont, "Segoe UI", Helvetica, Arial, sans-serif' font-size="11" fill="#59636e">S</text>
<text x="-92.09" y="277.30" font-family='-apple-system, BlinkMacSystemFont, "Segoe UI", Helvetica, Arial, sans-serif' font-size="12" fill="#59636e" letter-spacing="0.3">Most active days</text>
<text x="-92.09" y="293.30" font-family='-apple-system, BlinkMacSystemFont, "Segoe UI", Helvetica, Arial, sans-serif' font-size="9" fill="#59636e">Data pulled daily from GitHub.</text>
<text x="-92.09" y="303.30" font-family='-apple-system, BlinkMacSystemFont, "Segoe UI", Helvetica, Arial, sans-serif' font-size="9" fill="#59636e">Rolling last-12-month activity.</text>
</svg>