<svg xmlns="http://www.w3.org/2000/svg" viewBox="-98.09 -24.00 801.34 354.30" width="801" height="354">
<polygon points="0.00,0.00 11.28,4.10 0.00,8.21 -11.28,4.10" fill="#ebedf0"/>
<polygon points="13.16,4.79 24.43,8.89 13.16,13.00 1.88,8.89" fill="#ebedf0"/>
<polygon points="-13.16,-13.21 -1.88,-9.11 -13.16,-5.00 -24.43,-9.11" fill="#30a14e"/>
<polygon points="-24.43,8.89 -24.43,-9.11 -13.16,-5.00 -13.16,13.00" fill="#2a8d44"/>
<polygon points="-13.16,13.00 -13.16,-5.00 -1.88,-9.11 -1.88,8.89" fill="#237739"/>
<polygon points="0.00,-8.42 11.28,-4.32 0.00,-0.21 -11.28,-4.32" fill="#40c463"/>
<polygon points="-11.28,13.68 -11.28,-4.32 0.00,-0.21 0.00,17.79" fill="#38ac57"/>
<polygon points="0.00,17.79 0.00,-0.21 11.28,-4.32 11.28,13.68" fill="#2f9149"/>
<polygon points="26.31,-8.42 37.59,-4.32 26.31,-0.21 15.04,-4.32" fill="#40c463"/>
<polygon points="15.04,13.68 15.04,-4.32 26.31,-0.21 26.31,17.79" fill="#38ac57"/>
<polygon points="26.31,17.79 26.31,-0.21 37.59,-4.32 37.59,13.68" fill="#2f9149"/>
<polygon points="-26.31,-8.42 -15.04,-4.32 -26.31,-0.21 -37.59,-4.32" fill="#30a14e"/>
<polygon points="-37.59,13.68 -37.59,-4.32 -26.31,-0.21 -26.31,17.79" fill="#2a8d44"/>
<polygon points="-26.31,17.79 -26.31,-0.21 -15.04,-4.32 -15.04,13.68" fill="#237739"/>
<polygon points="39.47,14.36 50.74,18.47 39.47,22.57 28.19,18.47" fill="#ebedf0"/>
<polygon points="-13.16,-3.64 -1.88,0.47 -13.16,4.57 -24.43,0.47" fill="#40c463"/>
<polygon points="-24.43,18.47 -24.43,0.47 -13.16,4.57 -13.16,22.57" fill="#38ac57"/>
<polygon points="-13.16,22.57 -13.16,4.57 -1.88,0.47 -1.88,18.47" fill="#2f9149"/>
<polygon points="13.16,-3.64 24.43,0.47 13.16,4.57 1.88,0.47" fill="#40c463"/>
<polygon points="1.88,18.47 1.88,0.47 13.16,4.57 13.16,22.57" fill="#38ac57"/>
<polygon points="13.16,22.57 13.16,4.57 24.43,0.47 24.43,18.47" fill="#2f9149"/>
<polygon points="-39.47,-3.64 -28.19,0.47 -39.47,4.57 -50.74,0.47" fill="#30a14e"/>
<polygon points="-50.74,18.47 -50.74,0.47 -39.47,4.57 -39.47,22.57" fill="#2a8d44"/>
<polygon points="-39.47,22.57 -39.47,4.57 -28.19,0.47 -28.19,18.47" fill="#237739"/>
<polygon points="52.62,19.15 63.90,23.26 52.62,27.36 41.35,23.26" fill="#ebedf0"/>
<polygon points="-52.62,1.15 -41.35,5.26 -52.62,9.36 -63.90,5.26" fill="#40c463"/>
<polygon points="-63.90,23.26 -63.90,5.26 -52.62,9.36 -52.62,27.36" fill="#38ac57"/>
<polygon points="-52.62,27.36 -52.62,9.36 -41.35,5.26 -41.35,23.26" fill="#2f9149"/>
<polygon points="0.00,1.15 11.28,5.26 0.00,9.36 -11.28,5.26" fill="#40c463"/>
<polygon points="-11.28,23.26 -11.28,5.26 0.00,9.36 0.00,27.36" fill="#38ac57"/>
<polygon points="0.00,27.36 0.00,9.36 11.28,5.26 11.28,23.26" fill="#2f9149"/>
<polygon points="26.31,1.15 37.59,5.26 26.31,9.36 15.04,5.26" fill="#30a14e"/>
<polygon points="15.04,23.26 15.04,5.26 26.31,9.36 26.31,27.36" fill="#2a8d44"/>
<polygon points="26.31,27.36 26.31,9.36 37.59,5.26 37.59,23.26" fill="#237739"/>
<polygon points="-26.31,1.15 -15.04,5.26 -26.31,9.36 -37.59,5.26" fill="#216e39"/>
<polygon points="-37.59,23.26 -37.59,5.26 -26.31,9.36 -26.31,27.36" fill="#1d6032"/>
<polygon points="-26.31,27.36 -26.31,9.36 -15.04,5.26 -15.04,23.26" fill="#18512a"/>
<polygon points="13.16,23.94 24.43,28.05 13.16,32.15 1.88,28.05" fill="#ebedf0"/>
<polygon points="39.47,23.94 50.74,28.05 39.47,32.15 28.19,28.05" fill="#ebedf0"/>
<polygon points="65.78,12.94 77.05,17.05 65.78,21.15 54.50,17.05" fill="#9be9a8"/>
<polygon points="54.50,28.05 54.50,17.05 65.78,21.15 65.78,32.15" fill="#88cd93"/>
<polygon points="65.78,32.15 65.78,21.15 77.05,17.05 77.05,28.05" fill="#72ac7c"/>
<polygon points="-65.78,5.94 -54.50,10.05 -65.78,14.15 -77.05,10.05" fill="#40c463"/>
<polygon points="-77.05,28.05 -77.05,10.05 -65.78,14.15 -65.78,32.15" fill="#38ac57"/>
<polygon points="-65.78,32.15 -65.78,14.15 -54.50,10.05 -54.50,28.05" fill="#2f9149"/>
<polygon points="-39.47,5.94 -28.19,10.05 -39.47,14.15 -50.74,10.05" fill="#30a14e"/>
<polygon points="-50.74,28.05 -50.74,10.05 -39.47,14.15 -39.47,32.15" fill="#2a8d44"/>
<polygon points="-39.47,32.15 -39.47,14.15 -28.19,10.05 -28.19,28.05" fill="#237739"/>
<polygon points="-13.16,5.94 -1.88,10.05 -13.16,14.15 -24.43,10.05" fill="#216e39"/>
<polygon points="-24.43,28.05 -24.43,10.05 -13.16,14.15 -13.16,32.15" fill="#1d6032"/>
<polygon points="-13.16,32.15 -13.16,14.15 -1.88,10.05 -1.88,28.05" fill="#18512a"/>
<polygon points="26.31,28.73 37.59,32.83 26.31,36.94 15.04,32.83" fill="#ebedf0"/>
<polygon points="52.62,28.73 63.90,32.83 52.62,36.94 41.35,32.83" fill="#ebedf0"/>
<polygon points="78.93,28.73 90.21,32.83 78.93,36.94 67.66,32.83" fill="#ebedf0"/>
<polygon points="-78.93,14.73 -67.66,18.83 -78.93,22.94 -90.21,18.83" fill="#9be9a8"/>
<polygon points="-90.21,32.83 -90.21,18.83 -78.93,22.94 -78.93,36.94" fill="#88cd93"/>
<polygon points="-78.93,36.94 -78.93,22.94 -67.66,18.83 -67.66,32.83" fill="#72ac7c"/>
<polygon points="0.00,10.73 11.28,14.83 0.00,18.94 -11.28,14.83" fill="#40c463"/>
<polygon points="-11.28,32.83 -11.28,14.83 0.00,18.94 0.00,36.94" fill="#38ac57"/>
<polygon points="0.00,36.94 0.00,18.94 11.28,14.83 11.28,32.83" fill="#2f9149"/>
<polygon points="-52.62,10.73 -41.35,14.83 -52.62,18.94 -63.90,14.83" fill="#30a14e"/>
<polygon points="-63.90,32.83 -63.90,14.83 -52.62,18.94 -52.62,36.94" fill="#2a8d44"/>
<polygon points="-52.62,36.94 -52.62,18.94 -41.35,14.83 -41.35,32.83" fill="#237739"/>
<polygon points="-26.31,10.73 -15.04,14.83 -26.31,18.94 -37.59,14.83" fill="#30a14e"/>
<polygon points="-37.59,32.83 -37.59,14.83 -26.31,18.94 -26.31,36.94" fill="#2a8d44"/>
<polygon points="-26.31,36.94 -26.31,18.94 -15.04,14.83 -15.04,32.83" fill="#237739"/>
<polygon points="92.09,33.52 103.37,37.62 92.09,41.73 80.81,37.62" fill="#ebedf0"/>
<polygon points="-65.78,20.52 -54.50,24.62 -65.78,28.73 -77.05,24.62" fill="#9be9a8"/>
<polygon points="-77.05,37.62 -77.05,24.62 -65.78,28.73 -65.78,41.73" fill="#88cd93"/>
<polygon points="-65.78,41.73 -65.78,28.73 -54.50,24.62 -54.50,37.62" fill="#72ac7c"/>
<polygon points="13.16,22.52 24.43,26.62 13.16,30.73 1.88,26.62" fill="#9be9a8"/>
<polygon points="1.88,37.62 1.88,26.62 13.16,30.73 13.16,41.73" fill="#88cd93"/>
<polygon points="13.16,41.73 13.16,30.73 24.43,26.62 24.43,37.62" fill="#72ac7c"/>
<polygon points="-13.16,15.52 -1.88,19.62 -13.16,23.73 -24.43,19.62" fill="#40c463"/>
<polygon points="-24.43,37.62 -24.43,19.62 -13.16,23.73 -13.16,41.73" fill="#38ac57"/>
<polygon points="-13.16,41.73 -13.16,23.73 -1.88,19.62 -1.88,37.62" fill="#2f9149"/>
<polygon points="65.78,15.52 77.05,19.62 65.78,23.73 54.50,19.62" fill="#40c463"/>
<polygon points="54.50,37.62 54.50,19.62 65.78,23.73 65.78,41.73" fill="#38ac57"/>
<polygon points="65.78,41.73 65.78,23.73 77.05,19.62 77.05,37.62" fill="#2f9149"/>
<polygon points="-39.47,15.52 -28.19,19.62 -39.47,23.73 -50.74,19.62" fill="#216e39"/>
<polygon points="-50.74,37.62 -50.74,19.62 -39.47,23.73 -39.47,41.73" fill="#1d6032"/>
<polygon points="-39.47,41.73 -39.47,23.73 -28.19,19.62 -28.19,37.62" fill="#18512a"/>
<polygon points="39.47,15.52 50.74,19.62 39.47,23.73 28.19,19.62" fill="#216e39"/>
<polygon points="28.19,37.62 28.19,19.62 39.47,23.73 39.47,41.73" fill="#1d6032"/>
<polygon points="39.47,41.73 39.47,23.73 50.74,19.62 50.74,37.62" fill="#18512a"/>
<polygon points="-26.31,38.31 -15.04,42.41 -26.31,46.51 -37.59,42.41" fill="#ebedf0"/>
<polygon points="-52.62,25.31 -41.35,29.41 -52.62,33.51 -63.90,29.41" fill="#9be9a8"/>
<polygon points="-63.90,42.41 -63.90,29.41 -52.62,33.51 -52.62,46.51" fill="#88cd93"/>
<polygon points="-52.62,46.51 -52.62,33.51 -41.35,29.41 -41.35,42.41" fill="#72ac7c"/>
<polygon points="105.25,27.31 116.52,31.41 105.25,35.51 93.97,31.41" fill="#9be9a8"/>
<polygon points="93.97,42.41 93.97,31.41 105.25,35.51 105.25,46.51" fill="#88cd93"/>
<polygon points="105.25,46.51 105.25,35.51 116.52,31.41 116.52,42.41" fill="#72ac7c"/>
<polygon points="0.00,20.31 11.28,24.41 0.00,28.51 -11.28,24.41" fill="#40c463"/>
<polygon points="-11.28,42.41 -11.28,24.41 0.00,28.51 0.00,46.51" fill="#38ac57"/>
<polygon points="0.00,46.51 0.00,28.51 11.28,24.41 11.28,42.41" fill="#2f9149"/>
<polygon points="26.31,20.31 37.59,24.41 26.31,28.51 15.04,24.41" fill="#40c463"/>
<polygon points="15.04,42.41 15.04,24.41 26.31,28.51 26.31,46.51" fill="#38ac57"/>
<polygon points="26.31,46.51 26.31,28.51 37.59,24.41 37.59,42.41" fill="#2f9149"/>
<polygon points="78.93,20.31 90.21,24.41 78.93,28.51 67.66,24.41" fill="#40c463"/>
<polygon points="67.66,42.41 67.66,24.41 78.93,28.51 78.93,46.51" fill="#38ac57"/>
<polygon points="78.93,46.51 78.93,28.51 90.21,24.41 90.21,42.41" fill="#2f9149"/>
<polygon points="52.62,20.31 63.90,24.41 52.62,28.51 41.35,24.41" fill="#216e39"/>
<polygon points="41.35,42.41 41.35,24.41 52.62,28.51 52.62,46.51" fill="#1d6032"/>
<polygon points="52.62,46.51 52.62,28.51 63.90,24.41 63.90,42.41" fill="#18512a"/>
<polygon points="-39.47,43.09 -28.19,47.20 -39.47,51.30 -50.74,47.20" fill="#ebedf0"/>
<polygon points="-13.16,26.09 -1.88,30.20 -13.16,34.30 -24.43,30.20" fill="#9be9a8"/>
<polygon points="-24.43,47.20 -24.43,30.20 -13.16,34.30 -13.16,51.30" fill="#88cd93"/>
<polygon points="-13.16,51.30 -13.16,34.30 -1.88,30.20 -1.88,47.20" fill="#72ac7c"/>
<polygon points="13.16,25.09 24.43,29.20 13.16,33.30 1.88,29.20" fill="#40c463"/>
<polygon points="1.88,47.20 1.88,29.20 13.16,33.30 13.16,51.30" fill="#38ac57"/>
<polygon points="13.16,51.30 13.16,33.30 24.43,29.20 24.43,47.20" fill="#2f9149"/>
<polygon points="92.09,25.09 103.37,29.20 92.09,33.30 80.81,29.20" fill="#40c463"/>
<polygon points="80.81,47.20 80.81,29.20 92.09,33.30 92.09,51.30" fill="#38ac57"/>
<polygon points="92.09,51.30 92.09,33.30 103.37,29.20 103.37,47.20" fill="#2f9149"/>
<polygon points="118.40,25.09 129.68,29.20 118.40,33.30 107.12,29.20" fill="#40c463"/>
<polygon points="107.12,47.20 107.12,29.20 118.40,33.30 118.40,51.30" fill="#38ac57"/>
<polygon points="118.40,51.30 118.40,33.30 129.68,29.20 129.68,47.20" fill="#2f9149"/>
<polygon points="39.47,25.09 50.74,29.20 39.47,33.30 28.19,29.20" fill="#30a14e"/>
<polygon points="28.19,47.20 28.19,29.20 39.47,33.30 39.47,51.30" fill="#2a8d44"/>
<polygon points="39.47,51.30 39.47,33.30 50.74,29.20 50.74,47.20" fill="#237739"/>
<polygon points="65.78,25.09 77.05,29.20 65.78,33.30 54.50,29.20" fill="#30a14e"/>
<polygon points="54.50,47.20 54.50,29.20 65.78,33.30 65.78,51.30" fill="#2a8d44"/>
<polygon points="65.78,51.30 65.78,33.30 77.05,29.20 77.05,47.20" fill="#237739"/>
<polygon points="0.00,47.88 11.28,51.99 0.00,56.09 -11.28,51.99" fill="#ebedf0"/>
<polygon points="-26.31,29.88 -15.04,33.99 -26.31,38.09 -37.59,33.99" fill="#9be9a8"/>
<polygon points="-37.59,51.99 -37.59,33.99 -26.31,38.09 -26.31,56.09" fill="#88cd93"/>
<polygon points="-26.31,56.09 -26.31,38.09 -15.04,33.99 -15.04,51.99" fill="#72ac7c"/>
<polygon points="52.62,30.88 63.90,34.99 52.62,39.09 41.35,34.99" fill="#9be9a8"/>
<polygon points="41.35,51.99 41.35,34.99 52.62,39.09 52.62,56.09" fill="#88cd93"/>
<polygon points="52.62,56.09 52.62,39.09 63.90,34.99 63.90,51.99" fill="#72ac7c"/>
<polygon points="105.25,29.88 116.52,33.99 105.25,38.09 93.97,33.99" fill="#40c463"/>
<polygon points="93.97,51.99 93.97,33.99 105.25,38.09 105.25,56.09" fill="#38ac57"/>
<polygon points="105.25,56.09 105.25,38.09 116.52,33.99 116.52,51.99" fill="#2f9149"/>
<polygon points="131.56,29.88 142.83,33.99 131.56,38.09 120.28,33.99" fill="#40c463"/>
<polygon points="120.28,51.99 120.28,33.99 131.56,38.09 131.56,56.09" fill="#38ac57"/>
<polygon points="131.56,56.09 131.56,38.09 142.83,33.99 142.83,51.99" fill="#2f9149"/>
<polygon points="78.93,29.88 90.21,33.99 78.93,38.09 67.66,33.99" fill="#30a14e"/>
<polygon points="67.66,51.99 67.66,33.99 78.93,38.09 78.93,56.09" fill="#2a8d44"/>
<polygon points="78.93,56.09 78.93,38.09 90.21,33.99 90.21,51.99" fill="#237739"/>
<polygon points="26.31,29.88 37.59,33.99 26.31,38.09 15.04,33.99" fill="#216e39"/>
<polygon points="15.04,51.99 15.04,33.99 26.31,38.09 26.31,56.09" fill="#1d6032"/>
<polygon points="26.31,56.09 26.31,38.09 37.59,33.99 37.59,51.99" fill="#18512a"/>
<polygon points="-13.16,52.67 -1.88,56.78 -13.16,60.88 -24.43,56.78" fill="#ebedf0"/>
<polygon points="144.71,34.67 155.99,38.78 144.71,42.88 133.44,38.78" fill="#9be9a8"/>
<polygon points="133.44,56.78 133.44,38.78 144.71,42.88 144.71,60.88" fill="#88cd93"/>
<polygon points="144.71,60.88 144.71,42.88 155.99,38.78 155.99,56.78" fill="#72ac7c"/>
<polygon points="65.78,34.67 77.05,38.78 65.78,42.88 54.50,38.78" fill="#40c463"/>
<polygon points="54.50,56.78 54.50,38.78 65.78,42.88 65.78,60.88" fill="#38ac57"/>
<polygon points="65.78,60.88 65.78,42.88 77.05,38.78 77.05,56.78" fill="#2f9149"/>
<polygon points="92.09,34.67 103.37,38.78 92.09,42.88 80.81,38.78" fill="#40c463"/>
<polygon points="80.81,56.78 80.81,38.78 92.09,42.88 92.09,60.88" fill="#38ac57"/>
<polygon points="92.09,60.88 92.09,42.88 103.37,38.78 103.37,56.78" fill="#2f9149"/>
<polygon points="118.40,34.67 129.68,38.78 118.40,42.88 107.12,38.78" fill="#40c463"/>
<polygon points="107.12,56.78 107.12,38.78 118.40,42.88 118.40,60.88" fill="#38ac57"/>
<polygon points="118.40,60.88 118.40,42.88 129.68,38.78 129.68,56.78" fill="#2f9149"/>
<polygon points="39.47,34.67 50.74,38.78 39.47,42.88 28.19,38.78" fill="#30a14e"/>
<polygon points="28.19,56.78 28.19,38.78 39.47,42.88 39.47,60.88" fill="#2a8d44"/>
<polygon points="39.47,60.88 39.47,42.88 50.74,38.78 50.74,56.78" fill="#237739"/>
<polygon points="13.16,34.67 24.43,38.78 13.16,42.88 1.88,38.78" fill="#216e39"/>
<polygon points="1.88,56.78 1.88,38.78 13.16,42.88 13.16,60.88" fill="#1d6032"/>
<polygon points="13.16,60.88 13.16,42.88 24.43,38.78 24.43,56.78" fill="#18512a"/>
<polygon points="0.00,57.46 11.28,61.56 0.00,65.67 -11.28,61.56" fill="#ebedf0"/>
<polygon points="157.87,57.46 169.14,61.56 157.87,65.67 146.59,61.56" fill="#ebedf0"/>
<polygon points="26.31,39.46 37.59,43.56 26.31,47.67 15.04,43.56" fill="#40c463"/>
<polygon points="15.04,61.56 15.04,43.56 26.31,47.67 26.31,65.67" fill="#38ac57"/>
<polygon points="26.31,65.67 26.31,47.67 37.59,43.56 37.59,61.56" fill="#2f9149"/>
<polygon points="131.56,39.46 142.83,43.56 131.56,47.67 120.28,43.56" fill="#40c463"/>
<polygon points="120.28,61.56 120.28,43.56 131.56,47.67 131.56,65.67" fill="#38ac57"/>
<polygon points="131.56,65.67 131.56,47.67 142.83,43.56 142.83,61.56" fill="#2f9149"/>
<polygon points="78.93,39.46 90.21,43.56 78.93,47.67 67.66,43.56" fill="#30a14e"/>
<polygon points="67.66,61.56 67.66,43.56 78.93,47.67 78.93,65.67" fill="#2a8d44"/>
<polygon points="78.93,65.67 78.93,47.67 90.21,43.56 90.21,61.56" fill="#237739"/>
<polygon points="105.25,39.46 116.52,43.56 105.25,47.67 93.97,43.56" fill="#30a14e"/>
<polygon points="93.97,61.56 93.97,43.56 105.25,47.67 105.25,65.67" fill="#2a8d44"/>
<polygon points="105.25,65.67 105.25,47.67 116.52,43.56 116.52,61.56" fill="#237739"/>
<polygon points="52.62,39.46 63.90,43.56 52.62,47.67 41.35,43.56" fill="#216e39"/>
<polygon points="41.35,61.56 41.35,43.56 52.62,47.67 52.62,65.67" fill="#1d6032"/>
<polygon points="52.62,65.67 52.62,47.67 63.90,43.56 63.90,61.56" fill="#18512a"/>
<polygon points="13.16,62.25 24.43,66.35 13.16,70.46 1.88,66.35" fill="#ebedf0"/>
<polygon points="171.02,51.25 182.30,55.35 171.02,59.46 159.75,55.35" fill="#9be9a8"/>
<polygon points="159.75,66.35 159.75,55.35 171.02,59.46 171.02,70.46" fill="#88cd93"/>
<polygon points="171.02,70.46 171.02,59.46 182.30,55.35 182.30,66.35" fill="#72ac7c"/>
<polygon points="39.47,44.25 50.74,48.35 39.47,52.46 28.19,48.35" fill="#40c463"/>
<polygon points="28.19,66.35 28.19,48.35 39.47,52.46 39.47,70.46" fill="#38ac57"/>
<polygon points="39.47,70.46 39.47,52.46 50.74,48.35 50.74,66.35" fill="#2f9149"/>
<polygon points="92.09,44.25 103.37,48.35 92.09,52.46 80.81,48.35" fill="#40c463"/>
<polygon points="80.81,66.35 80.81,48.35 92.09,52.46 92.09,70.46" fill="#38ac57"/>
<polygon points="92.09,70.46 92.09,52.46 103.37,48.35 103.37,66.35" fill="#2f9149"/>
<polygon points="118.40,44.25 129.68,48.35 118.40,52.46 107.12,48.35" fill="#40c463"/>
<polygon points="107.12,66.35 107.12,48.35 118.40,52.46 118.40,70.46" fill="#38ac57"/>
<polygon points="118.40,70.46 118.40,52.46 129.68,48.35 129.68,66.35" fill="#2f9149"/>
<polygon points="144.71,44.25 155.99,48.35 144.71,52.46 133.44,48.35" fill="#40c463"/>
<polygon points="133.44,66.35 133.44,48.35 144.71,52.46 144.71,70.46" fill="#38ac57"/>
<polygon points="144.71,70.46 144.71,52.46 155.99,48.35 155.99,66.35" fill="#2f9149"/>
<polygon points="65.78,44.25 77.05,48.35 65.78,52.46 54.50,48.35" fill="#30a14e"/>
<polygon points="54.50,66.35 54.50,48.35 65.78,52.46 65.78,70.46" fill="#2a8d44"/>
<polygon points="65.78,70.46 65.78,52.46 77.05,48.35 77.05,66.35" fill="#237739"/>
<polygon points="26.31,67.04 37.59,71.14 26.31,75.24 15.04,71.14" fill="#ebedf0"/>
<polygon points="184.18,67.04 195.46,71.14 184.18,75.24 172.90,71.14" fill="#ebedf0"/>
<polygon points="78.93,52.04 90.21,56.14 78.93,60.24 67.66,56.14" fill="#9be9a8"/>
<polygon points="67.66,71.14 67.66,56.14 78.93,60.24 78.93,75.24" fill="#88cd93"/>
<polygon points="78.93,75.24 78.93,60.24 90.21,56.14 90.21,71.14" fill="#72ac7c"/>
<polygon points="105.25,56.04 116.52,60.14 105.25,64.24 93.97,60.14" fill="#9be9a8"/>
<polygon points="93.97,71.14 93.97,60.14 105.25,64.24 105.25,75.24" fill="#88cd93"/>
<polygon points="105.25,75.24 105.25,64.24 116.52,60.14 116.52,71.14" fill="#72ac7c"/>
<polygon points="157.87,50.04 169.14,54.14 157.87,58.24 146.59,54.14" fill="#9be9a8"/>
<polygon points="146.59,71.14 146.59,54.14 157.87,58.24 157.87,75.24" fill="#88cd93"/>
<polygon points="157.87,75.24 157.87,58.24 169.14,54.14 169.14,71.14" fill="#72ac7c"/>
<polygon points="52.62,49.04 63.90,53.14 52.62,57.24 41.35,53.14" fill="#40c463"/>
<polygon points="41.35,71.14 41.35,53.14 52.62,57.24 52.62,75.24" fill="#38ac57"/>
<polygon points="52.62,75.24 52.62,57.24 63.90,53.14 63.90,71.14" fill="#2f9149"/>
<polygon points="131.56,49.04 142.83,53.14 131.56,57.24 120.28,53.14" fill="#40c463"/>
<polygon points="120.28,71.14 120.28,53.14 131.56,57.24 131.56,75.24" fill="#38ac57"/>
<polygon points="131.56,75.24 131.56,57.24 142.83,53.14 142.83,71.14" fill="#2f9149"/>
<polygon points="39.47,71.82 50.74,75.93 39.47,80.03 28.19,75.93" fill="#ebedf0"/>
<polygon points="197.34,71.82 208.61,75.93 197.34,80.03 186.06,75.93" fill="#ebedf0"/>
<polygon points="92.09,55.82 103.37,59.93 92.09,64.03 80.81,59.93" fill="#9be9a8"/>
<polygon points="80.81,75.93 80.81,59.93 92.09,64.03 92.09,80.03" fill="#88cd93"/>
<polygon points="92.09,80.03 92.09,64.03 103.37,59.93 103.37,75.93" fill="#72ac7c"/>
<polygon points="144.71,57.82 155.99,61.93 144.71,66.03 133.44,61.93" fill="#9be9a8"/>
<polygon points="133.44,75.93 133.44,61.93 144.71,66.03 144.71,80.03" fill="#88cd93"/>
<polygon points="144.71,80.03 144.71,66.03 155.99,61.93 155.99,75.93" fill="#72ac7c"/>
<polygon points="65.78,53.82 77.05,57.93 65.78,62.03 54.50,57.93" fill="#40c463"/>
<polygon points="54.50,75.93 54.50,57.93 65.78,62.03 65.78,80.03" fill="#38ac57"/>
<polygon points="65.78,80.03 65.78,62.03 77.05,57.93 77.05,75.93" fill="#2f9149"/>
<polygon points="118.40,53.82 129.68,57.93 118.40,62.03 107.12,57.93" fill="#40c463"/>
<polygon points="107.12,75.93 107.12,57.93 118.40,62.03 118.40,80.03" fill="#38ac57"/>
<polygon points="118.40,80.03 118.40,62.03 129.68,57.93 129.68,75.93" fill="#2f9149"/>
<polygon points="171.02,53.82 182.30,57.93 171.02,62.03 159.75,57.93" fill="#40c463"/>
<polygon points="159.75,75.93 159.75,57.93 171.02,62.03 171.02,80.03" fill="#38ac57"/>
<polygon points="171.02,80.03 171.02,62.03 182.30,57.93 182.30,75.93" fill="#2f9149"/>
<polygon points="210.49,76.61 221.77,80.72 210.49,84.82 199.21,80.72" fill="#ebedf0"/>
<polygon points="52.62,68.61 63.90,72.72 52.62,76.82 41.35,72.72" fill="#9be9a8"/>
<polygon points="41.35,80.72 41.35,72.72 52.62,76.82 52.62,84.82" fill="#88cd93"/>
<polygon points="52.62,84.82 52.62,76.82 63.90,72.72 63.90,80.72" fill="#72ac7c"/>
<polygon points="78.93,58.61 90.21,62.72 78.93,66.82 67.66,62.72" fill="#9be9a8"/>
<polygon points="67.66,80.72 67.66,62.72 78.93,66.82 78.93,84.82" fill="#88cd93"/>
<polygon points="78.93,84.82 78.93,66.82 90.21,62.72 90.21,80.72" fill="#72ac7c"/>
<polygon points="157.87,58.61 169.14,62.72 157.87,66.82 146.59,62.72" fill="#40c463"/>
<polygon points="146.59,80.72 146.59,62.72 157.87,66.82 157.87,84.82" fill="#38ac57"/>
<polygon points="157.87,84.82 157.87,66.82 169.14,62.72 169.14,80.72" fill="#2f9149"/>
<polygon points="184.18,58.61 195.46,62.72 184.18,66.82 172.90,62.72" fill="#40c463"/>
<polygon points="172.90,80.72 172.90,62.72 184.18,66.82 184.18,84.82" fill="#38ac57"/>
<polygon points="184.18,84.82 184.18,66.82 195.46,62.72 195.46,80.72" fill="#2f9149"/>
<polygon points="131.56,58.61 142.83,62.72 131.56,66.82 120.28,62.72" fill="#30a14e"/>
<polygon points="120.28,80.72 120.28,62.72 131.56,66.82 131.56,84.82" fill="#2a8d44"/>
<polygon points="131.56,84.82 131.56,66.82 142.83,62.72 142.83,80.72" fill="#237739"/>
<polygon points="105.25,58.61 116.52,62.72 105.25,66.82 93.97,62.72" fill="#216e39"/>
<polygon points="93.97,80.72 93.97,62.72 105.25,66.82 105.25,84.82" fill="#1d6032"/>
<polygon points="105.25,84.82 105.25,66.82 116.52,62.72 116.52,80.72" fill="#18512a"/>
<polygon points="65.78,81.40 77.05,85.51 65.78,89.61 54.50,85.51" fill="#ebedf0"/>
<polygon points="223.65,81.40 234.92,85.51 223.65,89.61 212.37,85.51" fill="#ebedf0"/>
<polygon points="171.02,65.40 182.30,69.51 171.02,73.61 159.75,69.51" fill="#9be9a8"/>
<polygon points="159.75,85.51 159.75,69.51 171.02,73.61 171.02,89.61" fill="#88cd93"/>
<polygon points="171.02,89.61 171.02,73.61 182.30,69.51 182.30,85.51" fill="#72ac7c"/>
<polygon points="118.40,63.40 129.68,67.51 118.40,71.61 107.12,67.51" fill="#40c463"/>
<polygon points="107.12,85.51 107.12,67.51 118.40,71.61 118.40,89.61" fill="#38ac57"/>
<polygon points="118.40,89.61 118.40,71.61 129.68,67.51 129.68,85.51" fill="#2f9149"/>
<polygon points="144.71,63.40 155.99,67.51 144.71,71.61 133.44,67.51" fill="#40c463"/>
<polygon points="133.44,85.51 133.44,67.51 144.71,71.61 144.71,89.61" fill="#38ac57"/>
<polygon points="144.71,89.61 144.71,71.61 155.99,67.51 155.99,85.51" fill="#2f9149"/>
<polygon points="197.34,63.40 208.61,67.51 197.34,71.61 186.06,67.51" fill="#40c463"/>
<polygon points="186.06,85.51 186.06,67.51 197.34,71.61 197.34,89.61" fill="#38ac57"/>
<polygon points="197.34,89.61 197.34,71.61 208.61,67.51 208.61,85.51" fill="#2f9149"/>
<polygon points="92.09,63.40 103.37,67.51 92.09,71.61 80.81,67.51" fill="#216e39"/>
<polygon points="80.81,85.51 80.81,67.51 92.09,71.61 92.09,89.61" fill="#1d6032"/>
<polygon points="92.09,89.61 92.09,71.61 103.37,67.51 103.37,85.51" fill="#18512a"/>
<polygon points="78.93,86.19 90.21,90.29 78.93,94.40 67.66,90.29" fill="#ebedf0"/>
<polygon points="236.80,86.19 248.08,90.29 236.80,94.40 225.53,90.29" fill="#ebedf0"/>
<polygon points="105.25,68.19 116.52,72.29 105.25,76.40 93.97,72.29" fill="#40c463"/>
<polygon points="93.97,90.29 93.97,72.29 105.25,76.40 105.25,94.40" fill="#38ac57"/>
<polygon points="105.25,94.40 105.25,76.40 116.52,72.29 116.52,90.29" fill="#2f9149"/>
<polygon points="131.56,68.19 142.83,72.29 131.56,76.40 120.28,72.29" fill="#40c463"/>
<polygon points="120.28,90.29 120.28,72.29 131.56,76.40 131.56,94.40" fill="#38ac57"/>
<polygon points="131.56,94.40 131.56,76.40 142.83,72.29 142.83,90.29" fill="#2f9149"/>
<polygon points="157.87,68.19 169.14,72.29 157.87,76.40 146.59,72.29" fill="#40c463"/>
<polygon points="146.59,90.29 146.59,72.29 157.87,76.40 157.87,94.40" fill="#38ac57"/>
<polygon points="157.87,94.40 157.87,76.40 169.14,72.29 169.14,90.29" fill="#2f9149"/>
<polygon points="210.49,68.19 221.77,72.29 210.49,76.40 199.21,72.29" fill="#40c463"/>
<polygon points="199.21,90.29 199.21,72.29 210.49,76.40 210.49,94.40" fill="#38ac57"/>
<polygon points="210.49,94.40 210.49,76.40 221.77,72.29 221.77,90.29" fill="#2f9149"/>
<polygon points="184.18,68.19 195.46,72.29 184.18,76.40 172.90,72.29" fill="#216e39"/>
<polygon points="172.90,90.29 172.90,72.29 184.18,76.40 184.18,94.40" fill="#1d6032"/>
<polygon points="184.18,94.40 184.18,76.40 195.46,72.29 195.46,90.29" fill="#18512a"/>
<polygon points="92.09,90.98 103.37,95.08 92.09,99.19 80.81,95.08" fill="#ebedf0"/>
<polygon points="249.96,90.98 261.23,95.08 249.96,99.19 238.68,95.08" fill="#ebedf0"/>
<polygon points="118.40,74.98 129.68,79.08 118.40,83.19 107.12,79.08" fill="#9be9a8"/>
<polygon points="107.12,95.08 107.12,79.08 118.40,83.19 118.40,99.19" fill="#88cd93"/>
<polygon points="118.40,99.19 118.40,83.19 129.68,79.08 129.68,95.08" fill="#72ac7c"/>
<polygon points="144.71,73.98 155.99,78.08 144.71,82.19 133.44,78.08" fill="#9be9a8"/>
<polygon points="133.44,95.08 133.44,78.08 144.71,82.19 144.71,99.19" fill="#88cd93"/>
<polygon points="144.71,99.19 144.71,82.19 155.99,78.08 155.99,95.08" fill="#72ac7c"/>
<polygon points="197.34,72.98 208.61,77.08 197.34,81.19 186.06,77.08" fill="#40c463"/>
<polygon points="186.06,95.08 186.06,77.08 197.34,81.19 197.34,99.19" fill="#38ac57"/>
<polygon points="197.34,99.19 197.34,81.19 208.61,77.08 208.61,95.08" fill="#2f9149"/>
<polygon points="223.65,72.98 234.92,77.08 223.65,81.19 212.37,77.08" fill="#40c463"/>
<polygon points="212.37,95.08 212.37,77.08 223.65,81.19 223.65,99.19" fill="#38ac57"/>
<polygon points="223.65,99.19 223.65,81.19 234.92,77.08 234.92,95.08" fill="#2f9149"/>
<polygon points="171.02,72.98 182.30,77.08 171.02,81.19 159.75,77.08" fill="#30a14e"/>
<polygon points="159.75,95.08 159.75,77.08 171.02,81.19 171.02,99.19" fill="#2a8d44"/>
<polygon points="171.02,99.19 171.02,81.19 182.30,77.08 182.30,95.08" fill="#237739"/>
<polygon points="105.25,95.77 116.52,99.87 105.25,103.97 93.97,99.87" fill="#ebedf0"/>
<polygon points="263.11,95.77 274.39,99.87 263.11,103.97 251.84,99.87" fill="#ebedf0"/>
<polygon points="131.56,77.77 142.83,81.87 131.56,85.97 120.28,81.87" fill="#9be9a8"/>
<polygon points="120.28,99.87 120.28,81.87 131.56,85.97 131.56,103.97" fill="#88cd93"/>
<polygon points="131.56,103.97 131.56,85.97 142.83,81.87 142.83,99.87" fill="#72ac7c"/>
<polygon points="236.80,81.77 248.08,85.87 236.80,89.97 225.53,85.87" fill="#9be9a8"/>
<polygon points="225.53,99.87 225.53,85.87 236.80,89.97 236.80,103.97" fill="#88cd93"/>
<polygon points="236.80,103.97 236.80,89.97 248.08,85.87 248.08,99.87" fill="#72ac7c"/>
<polygon points="157.87,77.77 169.14,81.87 157.87,85.97 146.59,81.87" fill="#40c463"/>
<polygon points="146.59,99.87 146.59,81.87 157.87,85.97 157.87,103.97" fill="#38ac57"/>
<polygon points="157.87,103.97 157.87,85.97 169.14,81.87 169.14,99.87" fill="#2f9149"/>
<polygon points="210.49,77.77 221.77,81.87 210.49,85.97 199.21,81.87" fill="#40c463"/>
<polygon points="199.21,99.87 199.21,81.87 210.49,85.97 210.49,103.97" fill="#38ac57"/>
<polygon points="210.49,103.97 210.49,85.97 221.77,81.87 221.77,99.87" fill="#2f9149"/>
<polygon points="184.18,77.77 195.46,81.87 184.18,85.97 172.90,81.87" fill="#30a14e"/>
<polygon points="172.90,99.87 172.90,81.87 184.18,85.97 184.18,103.97" fill="#2a8d44"/>
<polygon points="184.18,103.97 184.18,85.97 195.46,81.87 195.46,99.87" fill="#237739"/>
<polygon points="118.40,82.55 129.68,86.66 118.40,90.76 107.12,86.66" fill="#9be9a8"/>
<polygon points="107.12,104.66 107.12,86.66 118.40,90.76 118.40,108.76" fill="#88cd93"/>
<polygon points="118.40,108.76 118.40,90.76 129.68,86.66 129.68,104.66" fill="#72ac7c"/>
<polygon points="223.65,86.55 234.92,90.66 223.65,94.76 212.37,90.66" fill="#9be9a8"/>
<polygon points="212.37,104.66 212.37,90.66 223.65,94.76 223.65,108.76" fill="#88cd93"/>
<polygon points="223.65,108.76 223.65,94.76 234.92,90.66 234.92,104.66" fill="#72ac7c"/>
<polygon points="249.96,83.55 261.23,87.66 249.96,91.76 238.68,87.66" fill="#9be9a8"/>
<polygon points="238.68,104.66 238.68,87.66 249.96,91.76 249.96,108.76" fill="#88cd93"/>
<polygon points="249.96,108.76 249.96,91.76 261.23,87.66 261.23,104.66" fill="#72ac7c"/>
<polygon points="276.27,92.55 287.55,96.66 276.27,100.76 264.99,96.66" fill="#9be9a8"/>
<polygon points="264.99,104.66 264.99,96.66 276.27,100.76 276.27,108.76" fill="#88cd93"/>
<polygon points="276.27,108.76 276.27,100.76 287.55,96.66 287.55,104.66" fill="#72ac7c"/>
<polygon points="144.71,82.55 155.99,86.66 144.71,90.76 133.44,86.66" fill="#40c463"/>
<polygon points="133.44,104.66 133.44,86.66 144.71,90.76 144.71,108.76" fill="#38ac57"/>
<polygon points="144.71,108.76 144.71,90.76 155.99,86.66 155.99,104.66" fill="#2f9149"/>
<polygon points="171.02,82.55 182.30,86.66 171.02,90.76 159.75,86.66" fill="#40c463"/>
<polygon points="159.75,104.66 159.75,86.66 171.02,90.76 171.02,108.76" fill="#38ac57"/>
<polygon points="171.02,108.76 171.02,90.76 182.30,86.66 182.30,104.66" fill="#2f9149"/>
<polygon points="197.34,82.55 208.61,86.66 197.34,90.76 186.06,86.66" fill="#30a14e"/>
<polygon points="186.06,104.66 186.06,86.66 197.34,90.76 197.34,108.76" fill="#2a8d44"/>
<polygon points="197.34,108.76 197.34,90.76 208.61,86.66 208.61,104.66" fill="#237739"/>
<polygon points="131.56,105.34 142.83,109.45 131.56,113.55 120.28,109.45" fill="#ebedf0"/>
<polygon points="289.43,105.34 300.70,109.45 289.43,113.55 278.15,109.45" fill="#ebedf0"/>
<polygon points="210.49,87.34 221.77,91.45 210.49,95.55 199.21,91.45" fill="#9be9a8"/>
<polygon points="199.21,109.45 199.21,91.45 210.49,95.55 210.49,113.55" fill="#88cd93"/>
<polygon points="210.49,113.55 210.49,95.55 221.77,91.45 221.77,109.45" fill="#72ac7c"/>
<polygon points="263.11,94.34 274.39,98.45 263.11,102.55 251.84,98.45" fill="#9be9a8"/>
<polygon points="251.84,109.45 251.84,98.45 263.11,102.55 263.11,113.55" fill="#88cd93"/>
<polygon points="263.11,113.55 263.11,102.55 274.39,98.45 274.39,109.45" fill="#72ac7c"/>
<polygon points="157.87,87.34 169.14,91.45 157.87,95.55 146.59,91.45" fill="#40c463"/>
<polygon points="146.59,109.45 146.59,91.45 157.87,95.55 157.87,113.55" fill="#38ac57"/>
<polygon points="157.87,113.55 157.87,95.55 169.14,91.45 169.14,109.45" fill="#2f9149"/>
<polygon points="184.18,87.34 195.46,91.45 184.18,95.55 172.90,91.45" fill="#40c463"/>
<polygon points="172.90,109.45 172.90,91.45 184.18,95.55 184.18,113.55" fill="#38ac57"/>
<polygon points="184.18,113.55 184.18,95.55 195.46,91.45 195.46,109.45" fill="#2f9149"/>
<polygon points="236.80,87.34 248.08,91.45 236.80,95.55 225.53,91.45" fill="#40c463"/>
<polygon points="225.53,109.45 225.53,91.45 236.80,95.55 236.80,113.55" fill="#38ac57"/>
<polygon points="236.80,113.55 236.80,95.55 248.08,91.45 248.08,109.45" fill="#2f9149"/>
<polygon points="144.71,110.13 155.99,114.23 144.71,118.34 133.44,114.23" fill="#ebedf0"/>
<polygon points="171.02,110.13 182.30,114.23 171.02,118.34 159.75,114.23" fill="#ebedf0"/>
<polygon points="276.27,110.13 287.55,114.23 276.27,118.34 264.99,114.23" fill="#ebedf0"/>
<polygon points="197.34,94.13 208.61,98.23 197.34,102.34 186.06,98.23" fill="#9be9a8"/>
<polygon points="186.06,114.23 186.06,98.23 197.34,102.34 197.34,118.34" fill="#88cd93"/>
<polygon points="197.34,118.34 197.34,102.34 208.61,98.23 208.61,114.23" fill="#72ac7c"/>
<polygon points="223.65,102.13 234.92,106.23 223.65,110.34 212.37,106.23" fill="#9be9a8"/>
<polygon points="212.37,114.23 212.37,106.23 223.65,110.34 223.65,118.34" fill="#88cd93"/>
<polygon points="223.65,118.34 223.65,110.34 234.92,106.23 234.92,114.23" fill="#72ac7c"/>
<polygon points="249.96,92.13 261.23,96.23 249.96,100.34 238.68,96.23" fill="#9be9a8"/>
<polygon points="238.68,114.23 238.68,96.23 249.96,100.34 249.96,118.34" fill="#88cd93"/>
<polygon points="249.96,118.34 249.96,100.34 261.23,96.23 261.23,114.23" fill="#72ac7c"/>
<polygon points="302.58,102.13 313.86,106.23 302.58,110.34 291.30,106.23" fill="#9be9a8"/>
<polygon points="291.30,114.23 291.30,106.23 302.58,110.34 302.58,118.34" fill="#88cd93"/>
<polygon points="302.58,118.34 302.58,110.34 313.86,106.23 313.86,114.23" fill="#72ac7c"/>
<polygon points="157.87,114.92 169.14,119.02 157.87,123.13 146.59,119.02" fill="#ebedf0"/>
<polygon points="184.18,114.92 195.46,119.02 184.18,123.13 172.90,119.02" fill="#ebedf0"/>
<polygon points="289.43,114.92 300.70,119.02 289.43,123.13 278.15,119.02" fill="#ebedf0"/>
<polygon points="210.49,97.92 221.77,102.02 210.49,106.13 199.21,102.02" fill="#9be9a8"/>
<polygon points="199.21,119.02 199.21,102.02 210.49,106.13 210.49,123.13" fill="#88cd93"/>
<polygon points="210.49,123.13 210.49,106.13 221.77,102.02 221.77,119.02" fill="#72ac7c"/>
<polygon points="236.80,98.92 248.08,103.02 236.80,107.13 225.53,103.02" fill="#9be9a8"/>
<polygon points="225.53,119.02 225.53,103.02 236.80,107.13 236.80,123.13" fill="#88cd93"/>
<polygon points="236.80,123.13 236.80,107.13 248.08,103.02 248.08,119.02" fill="#72ac7c"/>
<polygon points="263.11,101.92 274.39,106.02 263.11,110.13 251.84,106.02" fill="#9be9a8"/>
<polygon points="251.84,119.02 251.84,106.02 263.11,110.13 263.11,123.13" fill="#88cd93"/>
<polygon points="263.11,123.13 263.11,110.13 274.39,106.02 274.39,119.02" fill="#72ac7c"/>
<polygon points="315.74,96.92 327.01,101.02 315.74,105.13 304.46,101.02" fill="#216e39"/>
<polygon points="304.46,119.02 304.46,101.02 315.74,105.13 315.74,123.13" fill="#1d6032"/>
<polygon points="315.74,123.13 315.74,105.13 327.01,101.02 327.01,119.02" fill="#18512a"/>
<polygon points="328.89,119.71 340.17,123.81 328.89,127.92 317.62,123.81" fill="#ebedf0"/>
<polygon points="171.02,103.71 182.30,107.81 171.02,111.92 159.75,107.81" fill="#9be9a8"/>
<polygon points="159.75,123.81 159.75,107.81 171.02,111.92 171.02,127.92" fill="#88cd93"/>
<polygon points="171.02,127.92 171.02,111.92 182.30,107.81 182.30,123.81" fill="#72ac7c"/>
<polygon points="197.34,105.71 208.61,109.81 197.34,113.92 186.06,109.81" fill="#9be9a8"/>
<polygon points="186.06,123.81 186.06,109.81 197.34,113.92 197.34,127.92" fill="#88cd93"/>
<polygon points="197.34,127.92 197.34,113.92 208.61,109.81 208.61,123.81" fill="#72ac7c"/>
<polygon points="223.65,103.71 234.92,107.81 223.65,111.92 212.37,107.81" fill="#9be9a8"/>
<polygon points="212.37,123.81 212.37,107.81 223.65,111.92 223.65,127.92" fill="#88cd93"/>
<polygon points="223.65,127.92 223.65,111.92 234.92,107.81 234.92,123.81" fill="#72ac7c"/>
<polygon points="249.96,103.71 261.23,107.81 249.96,111.92 238.68,107.81" fill="#9be9a8"/>
<polygon points="238.68,123.81 238.68,107.81 249.96,111.92 249.96,127.92" fill="#88cd93"/>
<polygon points="249.96,127.92 249.96,111.92 261.23,107.81 261.23,123.81" fill="#72ac7c"/>
<polygon points="276.27,102.71 287.55,106.81 276.27,110.92 264.99,106.81" fill="#9be9a8"/>
<polygon points="264.99,123.81 264.99,106.81 276.27,110.92 276.27,127.92" fill="#88cd93"/>
<polygon points="276.27,127.92 276.27,110.92 287.55,106.81 287.55,123.81" fill="#72ac7c"/>
<polygon points="302.58,101.71 313.86,105.81 302.58,109.92 291.30,105.81" fill="#40c463"/>
<polygon points="291.30,123.81 291.30,105.81 302.58,109.92 302.58,127.92" fill="#38ac57"/>
<polygon points="302.58,127.92 302.58,109.92 313.86,105.81 313.86,123.81" fill="#2f9149"/>
<polygon points="210.49,124.50 221.77,128.60 210.49,132.70 199.21,128.60" fill="#ebedf0"/>
<polygon points="184.18,111.50 195.46,115.60 184.18,119.70 172.90,115.60" fill="#9be9a8"/>
<polygon points="172.90,128.60 172.90,115.60 184.18,119.70 184.18,132.70" fill="#88cd93"/>
<polygon points="184.18,132.70 184.18,119.70 195.46,115.60 195.46,128.60" fill="#72ac7c"/>
<polygon points="236.80,109.50 248.08,113.60 236.80,117.70 225.53,113.60" fill="#9be9a8"/>
<polygon points="225.53,128.60 225.53,113.60 236.80,117.70 236.80,132.70" fill="#88cd93"/>
<polygon points="236.80,132.70 236.80,117.70 248.08,113.60 248.08,128.60" fill="#72ac7c"/>
<polygon points="263.11,106.50 274.39,110.60 263.11,114.70 251.84,110.60" fill="#9be9a8"/>
<polygon points="251.84,128.60 251.84,110.60 263.11,114.70 263.11,132.70" fill="#88cd93"/>
<polygon points="263.11,132.70 263.11,114.70 274.39,110.60 274.39,128.60" fill="#72ac7c"/>
<polygon points="315.74,116.50 327.01,120.60 315.74,124.70 304.46,120.60" fill="#9be9a8"/>
<polygon points="304.46,128.60 304.46,120.60 315.74,124.70 315.74,132.70" fill="#88cd93"/>
<polygon points="315.74,132.70 315.74,124.70 327.01,120.60 327.01,128.60" fill="#72ac7c"/>
<polygon points="342.05,113.50 353.32,117.60 342.05,121.70 330.77,117.60" fill="#9be9a8"/>
<polygon points="330.77,128.60 330.77,117.60 342.05,121.70 342.05,132.70" fill="#88cd93"/>
<polygon points="342.05,132.70 342.05,121.70 353.32,117.60 353.32,128.60" fill="#72ac7c"/>
<polygon points="289.43,106.50 300.70,110.60 289.43,114.70 278.15,110.60" fill="#30a14e"/>
<polygon points="278.15,128.60 278.15,110.60 289.43,114.70 289.43,132.70" fill="#2a8d44"/>
<polygon points="289.43,132.70 289.43,114.70 300.70,110.60 300.70,128.60" fill="#237739"/>
<polygon points="197.34,129.28 208.61,133.39 197.34,137.49 186.06,133.39" fill="#ebedf0"/>
<polygon points="302.58,129.28 313.86,133.39 302.58,137.49 291.30,133.39" fill="#ebedf0"/>
<polygon points="355.20,129.28 366.48,133.39 355.20,137.49 343.93,133.39" fill="#ebedf0"/>
<polygon points="223.65,121.28 234.92,125.39 223.65,129.49 212.37,125.39" fill="#9be9a8"/>
<polygon points="212.37,133.39 212.37,125.39 223.65,129.49 223.65,137.49" fill="#88cd93"/>
<polygon points="223.65,137.49 223.65,129.49 234.92,125.39 234.92,133.39" fill="#72ac7c"/>
<polygon points="249.96,113.28 261.23,117.39 249.96,121.49 238.68,117.39" fill="#9be9a8"/>
<polygon points="238.68,133.39 238.68,117.39 249.96,121.49 249.96,137.49" fill="#88cd93"/>
<polygon points="249.96,137.49 249.96,121.49 261.23,117.39 261.23,133.39" fill="#72ac7c"/>
<polygon points="276.27,113.28 287.55,117.39 276.27,121.49 264.99,117.39" fill="#9be9a8"/>
<polygon points="264.99,133.39 264.99,117.39 276.27,121.49 276.27,137.49" fill="#88cd93"/>
<polygon points="276.27,137.49 276.27,121.49 287.55,117.39 287.55,133.39" fill="#72ac7c"/>
<polygon points="328.89,114.28 340.17,118.39 328.89,122.49 317.62,118.39" fill="#9be9a8"/>
<polygon points="317.62,133.39 317.62,118.39 328.89,122.49 328.89,137.49" fill="#88cd93"/>
<polygon points="328.89,137.49 328.89,122.49 340.17,118.39 340.17,133.39" fill="#72ac7c"/>
<polygon points="368.36,134.07 379.64,138.18 368.36,142.28 357.08,138.18" fill="#ebedf0"/>
<polygon points="210.49,121.07 221.77,125.18 210.49,129.28 199.21,125.18" fill="#9be9a8"/>
<polygon points="199.21,138.18 199.21,125.18 210.49,129.28 210.49,142.28" fill="#88cd93"/>
<polygon points="210.49,142.28 210.49,129.28 221.77,125.18 221.77,138.18" fill="#72ac7c"/>
<polygon points="236.80,121.07 248.08,125.18 236.80,129.28 225.53,125.18" fill="#9be9a8"/>
<polygon points="225.53,138.18 225.53,125.18 236.80,129.28 236.80,142.28" fill="#88cd93"/>
<polygon points="236.80,142.28 236.80,129.28 248.08,125.18 248.08,138.18" fill="#72ac7c"/>
<polygon points="289.43,121.07 300.70,125.18 289.43,129.28 278.15,125.18" fill="#9be9a8"/>
<polygon points="278.15,138.18 278.15,125.18 289.43,129.28 289.43,142.28" fill="#88cd93"/>
<polygon points="289.43,142.28 289.43,129.28 300.70,125.18 300.70,138.18" fill="#72ac7c"/>
<polygon points="315.74,123.07 327.01,127.18 315.74,131.28 304.46,127.18" fill="#9be9a8"/>
<polygon points="304.46,138.18 304.46,127.18 315.74,131.28 315.74,142.28" fill="#88cd93"/>
<polygon points="315.74,142.28 315.74,131.28 327.01,127.18 327.01,138.18" fill="#72ac7c"/>
<polygon points="342.05,120.07 353.32,124.18 342.05,128.28 330.77,124.18" fill="#9be9a8"/>
<polygon points="330.77,138.18 330.77,124.18 342.05,128.28 342.05,142.28" fill="#88cd93"/>
<polygon points="342.05,142.28 342.05,128.28 353.32,124.18 353.32,138.18" fill="#72ac7c"/>
<polygon points="263.11,116.07 274.39,120.18 263.11,124.28 251.84,120.18" fill="#40c463"/>
<polygon points="251.84,138.18 251.84,120.18 263.11,124.28 263.11,142.28" fill="#38ac57"/>
<polygon points="263.11,142.28 263.11,124.28 274.39,120.18 274.39,138.18" fill="#2f9149"/>
<polygon points="328.89,138.86 340.17,142.96 328.89,147.07 317.62,142.96" fill="#ebedf0"/>
<polygon points="381.52,138.86 392.79,142.96 381.52,147.07 370.24,142.96" fill="#ebedf0"/>
<polygon points="223.65,125.86 234.92,129.96 223.65,134.07 212.37,129.96" fill="#9be9a8"/>
<polygon points="212.37,142.96 212.37,129.96 223.65,134.07 223.65,147.07" fill="#88cd93"/>
<polygon points="223.65,147.07 223.65,134.07 234.92,129.96 234.92,142.96" fill="#72ac7c"/>
<polygon points="276.27,127.86 287.55,131.96 276.27,136.07 264.99,131.96" fill="#9be9a8"/>
<polygon points="264.99,142.96 264.99,131.96 276.27,136.07 276.27,147.07" fill="#88cd93"/>
<polygon points="276.27,147.07 276.27,136.07 287.55,131.96 287.55,142.96" fill="#72ac7c"/>
<polygon points="302.58,122.86 313.86,126.96 302.58,131.07 291.30,126.96" fill="#9be9a8"/>
<polygon points="291.30,142.96 291.30,126.96 302.58,131.07 302.58,147.07" fill="#88cd93"/>
<polygon points="302.58,147.07 302.58,131.07 313.86,126.96 313.86,142.96" fill="#72ac7c"/>
<polygon points="355.20,125.86 366.48,129.96 355.20,134.07 343.93,129.96" fill="#9be9a8"/>
<polygon points="343.93,142.96 343.93,129.96 355.20,134.07 355.20,147.07" fill="#88cd93"/>
<polygon points="355.20,147.07 355.20,134.07 366.48,129.96 366.48,142.96" fill="#72ac7c"/>
<polygon points="249.96,120.86 261.23,124.96 249.96,129.07 238.68,124.96" fill="#30a14e"/>
<polygon points="238.68,142.96 238.68,124.96 249.96,129.07 249.96,147.07" fill="#2a8d44"/>
<polygon points="249.96,147.07 249.96,129.07 261.23,124.96 261.23,142.96" fill="#237739"/>
<polygon points="236.80,143.65 248.08,147.75 236.80,151.86 225.53,147.75" fill="#ebedf0"/>
<polygon points="289.43,143.65 300.70,147.75 289.43,151.86 278.15,147.75" fill="#ebedf0"/>
<polygon points="368.36,143.65 379.64,147.75 368.36,151.86 357.08,147.75" fill="#ebedf0"/>
<polygon points="394.67,143.65 405.95,147.75 394.67,151.86 383.39,147.75" fill="#ebedf0"/>
<polygon points="263.11,135.65 274.39,139.75 263.11,143.86 251.84,139.75" fill="#9be9a8"/>
<polygon points="251.84,147.75 251.84,139.75 263.11,143.86 263.11,151.86" fill="#88cd93"/>
<polygon points="263.11,151.86 263.11,143.86 274.39,139.75 274.39,147.75" fill="#72ac7c"/>
<polygon points="315.74,132.65 327.01,136.75 315.74,140.86 304.46,136.75" fill="#9be9a8"/>
<polygon points="304.46,147.75 304.46,136.75 315.74,140.86 315.74,151.86" fill="#88cd93"/>
<polygon points="315.74,151.86 315.74,140.86 327.01,136.75 327.01,147.75" fill="#72ac7c"/>
<polygon points="342.05,127.65 353.32,131.75 342.05,135.86 330.77,131.75" fill="#9be9a8"/>
<polygon points="330.77,147.75 330.77,131.75 342.05,135.86 342.05,151.86" fill="#88cd93"/>
<polygon points="342.05,151.86 342.05,135.86 353.32,131.75 353.32,147.75" fill="#72ac7c"/>
<polygon points="407.83,148.44 419.10,152.54 407.83,156.65 396.55,152.54" fill="#ebedf0"/>
<polygon points="249.96,137.44 261.23,141.54 249.96,145.65 238.68,141.54" fill="#9be9a8"/>
<polygon points="238.68,152.54 238.68,141.54 249.96,145.65 249.96,156.65" fill="#88cd93"/>
<polygon points="249.96,156.65 249.96,145.65 261.23,141.54 261.23,152.54" fill="#72ac7c"/>
<polygon points="276.27,140.44 287.55,144.54 276.27,148.65 264.99,144.54" fill="#9be9a8"/>
<polygon points="264.99,152.54 264.99,144.54 276.27,148.65 276.27,156.65" fill="#88cd93"/>
<polygon points="276.27,156.65 276.27,148.65 287.55,144.54 287.55,152.54" fill="#72ac7c"/>
<polygon points="302.58,131.44 313.86,135.54 302.58,139.65 291.30,135.54" fill="#9be9a8"/>
<polygon points="291.30,152.54 291.30,135.54 302.58,139.65 302.58,156.65" fill="#88cd93"/>
<polygon points="302.58,156.65 302.58,139.65 313.86,135.54 313.86,152.54" fill="#72ac7c"/>
<polygon points="328.89,130.44 340.17,134.54 328.89,138.65 317.62,134.54" fill="#9be9a8"/>
<polygon points="317.62,152.54 317.62,134.54 328.89,138.65 328.89,156.65" fill="#88cd93"/>
<polygon points="328.89,156.65 328.89,138.65 340.17,134.54 340.17,152.54" fill="#72ac7c"/>
<polygon points="355.20,130.44 366.48,134.54 355.20,138.65 343.93,134.54" fill="#40c463"/>
<polygon points="343.93,152.54 343.93,134.54 355.20,138.65 355.20,156.65" fill="#38ac57"/>
<polygon points="355.20,156.65 355.20,138.65 366.48,134.54 366.48,152.54" fill="#2f9149"/>
<polygon points="381.52,130.44 392.79,134.54 381.52,138.65 370.24,134.54" fill="#40c463"/>
<polygon points="370.24,152.54 370.24,134.54 381.52,138.65 381.52,156.65" fill="#38ac57"/>
<polygon points="381.52,156.65 381.52,138.65 392.79,134.54 392.79,152.54" fill="#2f9149"/>
<polygon points="420.98,153.23 432.26,157.33 420.98,161.43 409.71,157.33" fill="#ebedf0"/>
<polygon points="263.11,137.23 274.39,141.33 263.11,145.43 251.84,141.33" fill="#9be9a8"/>
<polygon points="251.84,157.33 251.84,141.33 263.11,145.43 263.11,161.43" fill="#88cd93"/>
<polygon points="263.11,161.43 263.11,145.43 274.39,141.33 274.39,157.33" fill="#72ac7c"/>
<polygon points="289.43,142.23 300.70,146.33 289.43,150.43 278.15,146.33" fill="#9be9a8"/>
<polygon points="278.15,157.33 278.15,146.33 289.43,150.43 289.43,161.43" fill="#88cd93"/>
<polygon points="289.43,161.43 289.43,150.43 300.70,146.33 300.70,157.33" fill="#72ac7c"/>
<polygon points="315.74,136.23 327.01,140.33 315.74,144.43 304.46,140.33" fill="#9be9a8"/>
<polygon points="304.46,157.33 304.46,140.33 315.74,144.43 315.74,161.43" fill="#88cd93"/>
<polygon points="315.74,161.43 315.74,144.43 327.01,140.33 327.01,157.33" fill="#72ac7c"/>
<polygon points="342.05,142.23 353.32,146.33 342.05,150.43 330.77,146.33" fill="#9be9a8"/>
<polygon points="330.77,157.33 330.77,146.33 342.05,150.43 342.05,161.43" fill="#88cd93"/>
<polygon points="342.05,161.43 342.05,150.43 353.32,146.33 353.32,157.33" fill="#72ac7c"/>
<polygon points="368.36,136.23 379.64,140.33 368.36,144.43 357.08,140.33" fill="#9be9a8"/>
<polygon points="357.08,157.33 357.08,140.33 368.36,144.43 368.36,161.43" fill="#88cd93"/>
<polygon points="368.36,161.43 368.36,144.43 379.64,140.33 379.64,157.33" fill="#72ac7c"/>
<polygon points="394.67,142.23 405.95,146.33 394.67,150.43 383.39,146.33" fill="#9be9a8"/>
<polygon points="383.39,157.33 383.39,146.33 394.67,150.43 394.67,161.43" fill="#88cd93"/>
<polygon points="394.67,161.43 394.67,150.43 405.95,146.33 405.95,157.33" fill="#72ac7c"/>
<polygon points="276.27,158.01 287.55,162.12 276.27,166.22 264.99,162.12" fill="#ebedf0"/>
<polygon points="302.58,158.01 313.86,162.12 302.58,166.22 291.30,162.12" fill="#ebedf0"/>
<polygon points="434.14,158.01 445.41,162.12 434.14,166.22 422.86,162.12" fill="#ebedf0"/>
<polygon points="328.89,141.01 340.17,145.12 328.89,149.22 317.62,145.12" fill="#9be9a8"/>
<polygon points="317.62,162.12 317.62,145.12 328.89,149.22 328.89,166.22" fill="#88cd93"/>
<polygon points="328.89,166.22 328.89,149.22 340.17,145.12 340.17,162.12" fill="#72ac7c"/>
<polygon points="355.20,144.01 366.48,148.12 355.20,152.22 343.93,148.12" fill="#9be9a8"/>
<polygon points="343.93,162.12 343.93,148.12 355.20,152.22 355.20,166.22" fill="#88cd93"/>
<polygon points="355.20,166.22 355.20,152.22 366.48,148.12 366.48,162.12" fill="#72ac7c"/>
<polygon points="381.52,140.01 392.79,144.12 381.52,148.22 370.24,144.12" fill="#9be9a8"/>
<polygon points="370.24,162.12 370.24,144.12 381.52,148.22 381.52,166.22" fill="#88cd93"/>
<polygon points="381.52,166.22 381.52,148.22 392.79,144.12 392.79,162.12" fill="#72ac7c"/>
<polygon points="407.83,142.01 419.10,146.12 407.83,150.22 396.55,146.12" fill="#9be9a8"/>
<polygon points="396.55,162.12 396.55,146.12 407.83,150.22 407.83,166.22" fill="#88cd93"/>
<polygon points="407.83,166.22 407.83,150.22 419.10,146.12 419.10,162.12" fill="#72ac7c"/>
<polygon points="289.43,162.80 300.70,166.91 289.43,171.01 278.15,166.91" fill="#ebedf0"/>
<polygon points="447.29,162.80 458.57,166.91 447.29,171.01 436.02,166.91" fill="#ebedf0"/>
<polygon points="315.74,148.80 327.01,152.91 315.74,157.01 304.46,152.91" fill="#9be9a8"/>
<polygon points="304.46,166.91 304.46,152.91 315.74,157.01 315.74,171.01" fill="#88cd93"/>
<polygon points="315.74,171.01 315.74,157.01 327.01,152.91 327.01,166.91" fill="#72ac7c"/>
<polygon points="342.05,149.80 353.32,153.91 342.05,158.01 330.77,153.91" fill="#9be9a8"/>
<polygon points="330.77,166.91 330.77,153.91 342.05,158.01 342.05,171.01" fill="#88cd93"/>
<polygon points="342.05,171.01 342.05,158.01 353.32,153.91 353.32,166.91" fill="#72ac7c"/>
<polygon points="368.36,144.80 379.64,148.91 368.36,153.01 357.08,148.91" fill="#9be9a8"/>
<polygon points="357.08,166.91 357.08,148.91 368.36,153.01 368.36,171.01" fill="#88cd93"/>
<polygon points="368.36,171.01 368.36,153.01 379.64,148.91 379.64,166.91" fill="#72ac7c"/>
<polygon points="394.67,146.80 405.95,150.91 394.67,155.01 383.39,150.91" fill="#9be9a8"/>
<polygon points="383.39,166.91 383.39,150.91 394.67,155.01 394.67,171.01" fill="#88cd93"/>
<polygon points="394.67,171.01 394.67,155.01 405.95,150.91 405.95,166.91" fill="#72ac7c"/>
<polygon points="420.98,146.80 432.26,150.91 420.98,155.01 409.71,150.91" fill="#9be9a8"/>
<polygon points="409.71,166.91 409.71,150.91 420.98,155.01 420.98,171.01" fill="#88cd93"/>
<polygon points="420.98,171.01 420.98,155.01 432.26,150.91 432.26,166.91" fill="#72ac7c"/>
<polygon points="302.58,167.59 313.86,171.69 302.58,175.80 291.30,171.69" fill="#ebedf0"/>
<polygon points="460.45,167.59 471.73,171.69 460.45,175.80 449.17,171.69" fill="#ebedf0"/>
<polygon points="328.89,151.59 340.17,155.69 328.89,159.80 317.62,155.69" fill="#9be9a8"/>
<polygon points="317.62,171.69 317.62,155.69 328.89,159.80 328.89,175.80" fill="#88cd93"/>
<polygon points="328.89,175.80 328.89,159.80 340.17,155.69 340.17,171.69" fill="#72ac7c"/>
<polygon points="355.20,152.59 366.48,156.69 355.20,160.80 343.93,156.69" fill="#9be9a8"/>
<polygon points="343.93,171.69 343.93,156.69 355.20,160.80 355.20,175.80" fill="#88cd93"/>
<polygon points="355.20,175.80 355.20,160.80 366.48,156.69 366.48,171.69" fill="#72ac7c"/>
<polygon points="381.52,151.59 392.79,155.69 381.52,159.80 370.24,155.69" fill="#9be9a8"/>
<polygon points="370.24,171.69 370.24,155.69 381.52,159.80 381.52,175.80" fill="#88cd93"/>
<polygon points="381.52,175.80 381.52,159.80 392.79,155.69 392.79,171.69" fill="#72ac7c"/>
<polygon points="407.83,149.59 419.10,153.69 407.83,157.80 396.55,153.69" fill="#40c463"/>
<polygon points="396.55,171.69 396.55,153.69 407.83,157.80 407.83,175.80" fill="#38ac57"/>
<polygon points="407.83,175.80 407.83,157.80 419.10,153.69 419.10,171.69" fill="#2f9149"/>
<polygon points="434.14,149.59 445.41,153.69 434.14,157.80 422.86,153.69" fill="#30a14e"/>
<polygon points="422.86,171.69 422.86,153.69 434.14,157.80 434.14,175.80" fill="#2a8d44"/>
<polygon points="434.14,175.80 434.14,157.80 445.41,153.69 445.41,171.69" fill="#237739"/>
<polygon points="315.74,172.38 327.01,176.48 315.74,180.59 304.46,176.48" fill="#ebedf0"/>
<polygon points="473.61,172.38 484.88,176.48 473.61,180.59 462.33,176.48" fill="#ebedf0"/>
<polygon points="342.05,157.38 353.32,161.48 342.05,165.59 330.77,161.48" fill="#9be9a8"/>
<polygon points="330.77,176.48 330.77,161.48 342.05,165.59 342.05,180.59" fill="#88cd93"/>
<polygon points="342.05,180.59 342.05,165.59 353.32,161.48 353.32,176.48" fill="#72ac7c"/>
<polygon points="368.36,154.38 379.64,158.48 368.36,162.59 357.08,158.48" fill="#9be9a8"/>
<polygon points="357.08,176.48 357.08,158.48 368.36,162.59 368.36,180.59" fill="#88cd93"/>
<polygon points="368.36,180.59 368.36,162.59 379.64,158.48 379.64,176.48" fill="#72ac7c"/>
<polygon points="394.67,154.38 405.95,158.48 394.67,162.59 383.39,158.48" fill="#40c463"/>
<polygon points="383.39,176.48 383.39,158.48 394.67,162.59 394.67,180.59" fill="#38ac57"/>
<polygon points="394.67,180.59 394.67,162.59 405.95,158.48 405.95,176.48" fill="#2f9149"/>
<polygon points="420.98,154.38 432.26,158.48 420.98,162.59 409.71,158.48" fill="#40c463"/>
<polygon points="409.71,176.48 409.71,158.48 420.98,162.59 420.98,180.59" fill="#38ac57"/>
<polygon points="420.98,180.59 420.98,162.59 432.26,158.48 432.26,176.48" fill="#2f9149"/>
<polygon points="447.29,154.38 458.57,158.48 447.29,162.59 436.02,158.48" fill="#40c463"/>
<polygon points="436.02,176.48 436.02,158.48 447.29,162.59 447.29,180.59" fill="#38ac57"/>
<polygon points="447.29,180.59 447.29,162.59 458.57,158.48 458.57,176.48" fill="#2f9149"/>
<polygon points="328.89,177.17 340.17,181.27 328.89,185.37 317.62,181.27" fill="#ebedf0"/>
<polygon points="486.76,177.17 498.04,181.27 486.76,185.37 475.48,181.27" fill="#ebedf0"/>
<polygon points="355.20,163.17 366.48,167.27 355.20,171.37 343.93,167.27" fill="#9be9a8"/>
<polygon points="343.93,181.27 343.93,167.27 355.20,171.37 355.20,185.37" fill="#88cd93"/>
<polygon points="355.20,185.37 355.20,171.37 366.48,167.27 366.48,181.27" fill="#72ac7c"/>
<polygon points="381.52,163.17 392.79,167.27 381.52,171.37 370.24,167.27" fill="#9be9a8"/>
<polygon points="370.24,181.27 370.24,167.27 381.52,171.37 381.52,185.37" fill="#88cd93"/>
<polygon points="381.52,185.37 381.52,171.37 392.79,167.27 392.79,181.27" fill="#72ac7c"/>
<polygon points="407.83,161.17 419.10,165.27 407.83,169.37 396.55,165.27" fill="#9be9a8"/>
<polygon points="396.55,181.27 396.55,165.27 407.83,169.37 407.83,185.37" fill="#88cd93"/>
<polygon points="407.83,185.37 407.83,169.37 419.10,165.27 419.10,181.27" fill="#72ac7c"/>
<polygon points="460.45,166.17 471.73,170.27 460.45,174.37 449.17,170.27" fill="#9be9a8"/>
<polygon points="449.17,181.27 449.17,170.27 460.45,174.37 460.45,185.37" fill="#88cd93"/>
<polygon points="460.45,185.37 460.45,174.37 471.73,170.27 471.73,181.27" fill="#72ac7c"/>
<polygon points="434.14,159.17 445.41,163.27 434.14,167.37 422.86,163.27" fill="#40c463"/>
<polygon points="422.86,181.27 422.86,163.27 434.14,167.37 434.14,185.37" fill="#38ac57"/>
<polygon points="434.14,185.37 434.14,167.37 445.41,163.27 445.41,181.27" fill="#2f9149"/>
<polygon points="342.05,181.95 353.32,186.06 342.05,190.16 330.77,186.06" fill="#ebedf0"/>
<polygon points="394.67,181.95 405.95,186.06 394.67,190.16 383.39,186.06" fill="#ebedf0"/>
<polygon points="499.92,181.95 511.19,186.06 499.92,190.16 488.64,186.06" fill="#ebedf0"/>
<polygon points="368.36,170.95 379.64,175.06 368.36,179.16 357.08,175.06" fill="#9be9a8"/>
<polygon points="357.08,186.06 357.08,175.06 368.36,179.16 368.36,190.16" fill="#88cd93"/>
<polygon points="368.36,190.16 368.36,179.16 379.64,175.06 379.64,186.06" fill="#72ac7c"/>
<polygon points="420.98,163.95 432.26,168.06 420.98,172.16 409.71,168.06" fill="#9be9a8"/>
<polygon points="409.71,186.06 409.71,168.06 420.98,172.16 420.98,190.16" fill="#88cd93"/>
<polygon points="420.98,190.16 420.98,172.16 432.26,168.06 432.26,186.06" fill="#72ac7c"/>
<polygon points="473.61,173.95 484.88,178.06 473.61,182.16 462.33,178.06" fill="#9be9a8"/>
<polygon points="462.33,186.06 462.33,178.06 473.61,182.16 473.61,190.16" fill="#88cd93"/>
<polygon points="473.61,190.16 473.61,182.16 484.88,178.06 484.88,186.06" fill="#72ac7c"/>
<polygon points="447.29,163.95 458.57,168.06 447.29,172.16 436.02,168.06" fill="#40c463"/>
<polygon points="436.02,186.06 436.02,168.06 447.29,172.16 447.29,190.16" fill="#38ac57"/>
<polygon points="447.29,190.16 447.29,172.16 458.57,168.06 458.57,186.06" fill="#2f9149"/>
<polygon points="355.20,186.74 366.48,190.85 355.20,194.95 343.93,190.85" fill="#ebedf0"/>
<polygon points="381.52,186.74 392.79,190.85 381.52,194.95 370.24,190.85" fill="#ebedf0"/>
<polygon points="407.83,178.74 419.10,182.85 407.83,186.95 396.55,182.85" fill="#9be9a8"/>
<polygon points="396.55,190.85 396.55,182.85 407.83,186.95 407.83,194.95" fill="#88cd93"/>
<polygon points="407.83,194.95 407.83,186.95 419.10,182.85 419.10,190.85" fill="#72ac7c"/>
<polygon points="486.76,170.74 498.04,174.85 486.76,178.95 475.48,174.85" fill="#9be9a8"/>
<polygon points="475.48,190.85 475.48,174.85 486.76,178.95 486.76,194.95" fill="#88cd93"/>
<polygon points="486.76,194.95 486.76,178.95 498.04,174.85 498.04,190.85" fill="#72ac7c"/>
<polygon points="434.14,168.74 445.41,172.85 434.14,176.95 422.86,172.85" fill="#40c463"/>
<polygon points="422.86,190.85 422.86,172.85 434.14,176.95 434.14,194.95" fill="#38ac57"/>
<polygon points="434.14,194.95 434.14,176.95 445.41,172.85 445.41,190.85" fill="#2f9149"/>
<polygon points="460.45,168.74 471.73,172.85 460.45,176.95 449.17,172.85" fill="#40c463"/>
<polygon points="449.17,190.85 449.17,172.85 460.45,176.95 460.45,194.95" fill="#38ac57"/>
<polygon points="460.45,194.95 460.45,176.95 471.73,172.85 471.73,190.85" fill="#2f9149"/>
<polygon points="513.07,168.74 524.35,172.85 513.07,176.95 501.80,172.85" fill="#30a14e"/>
<polygon points="501.80,190.85 501.80,172.85 513.07,176.95 513.07,194.95" fill="#2a8d44"/>
<polygon points="513.07,194.95 513.07,176.95 524.35,172.85 524.35,190.85" fill="#237739"/>
<polygon points="368.36,191.53 379.64,195.64 368.36,199.74 357.08,195.64" fill="#ebedf0"/>
<polygon points="394.67,176.53 405.95,180.64 394.67,184.74 383.39,180.64" fill="#9be9a8"/>
<polygon points="383.39,195.64 383.39,180.64 394.67,184.74 394.67,199.74" fill="#88cd93"/>
<polygon points="394.67,199.74 394.67,184.74 405.95,180.64 405.95,195.64" fill="#72ac7c"/>
<polygon points="420.98,174.53 432.26,178.64 420.98,182.74 409.71,178.64" fill="#9be9a8"/>
<polygon points="409.71,195.64 409.71,178.64 420.98,182.74 420.98,199.74" fill="#88cd93"/>
<polygon points="420.98,199.74 420.98,182.74 432.26,178.64 432.26,195.64" fill="#72ac7c"/>
<polygon points="447.29,180.53 458.57,184.64 447.29,188.74 436.02,184.64" fill="#9be9a8"/>
<polygon points="436.02,195.64 436.02,184.64 447.29,188.74 447.29,199.74" fill="#88cd93"/>
<polygon points="447.29,199.74 447.29,188.74 458.57,184.64 458.57,195.64" fill="#72ac7c"/>
<polygon points="473.61,180.53 484.88,184.64 473.61,188.74 462.33,184.64" fill="#9be9a8"/>
<polygon points="462.33,195.64 462.33,184.64 473.61,188.74 473.61,199.74" fill="#88cd93"/>
<polygon points="473.61,199.74 473.61,188.74 484.88,184.64 484.88,195.64" fill="#72ac7c"/>
<polygon points="526.23,183.53 537.50,187.64 526.23,191.74 514.95,187.64" fill="#9be9a8"/>
<polygon points="514.95,195.64 514.95,187.64 526.23,191.74 526.23,199.74" fill="#88cd93"/>
<polygon points="526.23,199.74 526.23,191.74 537.50,187.64 537.50,195.64" fill="#72ac7c"/>
<polygon points="499.92,173.53 511.19,177.64 499.92,181.74 488.64,177.64" fill="#40c463"/>
<polygon points="488.64,195.64 488.64,177.64 499.92,181.74 499.92,199.74" fill="#38ac57"/>
<polygon points="499.92,199.74 499.92,181.74 511.19,177.64 511.19,195.64" fill="#2f9149"/>
<polygon points="381.52,196.32 392.79,200.42 381.52,204.53 370.24,200.42" fill="#ebedf0"/>
<polygon points="513.07,196.32 524.35,200.42 513.07,204.53 501.80,200.42" fill="#ebedf0"/>
<polygon points="539.38,196.32 550.66,200.42 539.38,204.53 528.11,200.42" fill="#ebedf0"/>
<polygon points="434.14,185.32 445.41,189.42 434.14,193.53 422.86,189.42" fill="#9be9a8"/>
<polygon points="422.86,200.42 422.86,189.42 434.14,193.53 434.14,204.53" fill="#88cd93"/>
<polygon points="434.14,204.53 434.14,193.53 445.41,189.42 445.41,200.42" fill="#72ac7c"/>
<polygon points="407.83,178.32 419.10,182.42 407.83,186.53 396.55,182.42" fill="#40c463"/>
<polygon points="396.55,200.42 396.55,182.42 407.83,186.53 407.83,204.53" fill="#38ac57"/>
<polygon points="407.83,204.53 407.83,186.53 419.10,182.42 419.10,200.42" fill="#2f9149"/>
<polygon points="460.45,178.32 471.73,182.42 460.45,186.53 449.17,182.42" fill="#40c463"/>
<polygon points="449.17,200.42 449.17,182.42 460.45,186.53 460.45,204.53" fill="#38ac57"/>
<polygon points="460.45,204.53 460.45,186.53 471.73,182.42 471.73,200.42" fill="#2f9149"/>
<polygon points="486.76,178.32 498.04,182.42 486.76,186.53 475.48,182.42" fill="#40c463"/>
<polygon points="475.48,200.42 475.48,182.42 486.76,186.53 486.76,204.53" fill="#38ac57"/>
<polygon points="486.76,204.53 486.76,186.53 498.04,182.42 498.04,200.42" fill="#2f9149"/>
<polygon points="394.67,201.11 405.95,205.21 394.67,209.32 383.39,205.21" fill="#ebedf0"/>
<polygon points="526.23,201.11 537.50,205.21 526.23,209.32 514.95,205.21" fill="#ebedf0"/>
<polygon points="552.54,201.11 563.82,205.21 552.54,209.32 541.26,205.21" fill="#ebedf0"/>
<polygon points="447.29,187.11 458.57,191.21 447.29,195.32 436.02,191.21" fill="#9be9a8"/>
<polygon points="436.02,205.21 436.02,191.21 447.29,195.32 447.29,209.32" fill="#88cd93"/>
<polygon points="447.29,209.32 447.29,195.32 458.57,191.21 458.57,205.21" fill="#72ac7c"/>
<polygon points="473.61,190.11 484.88,194.21 473.61,198.32 462.33,194.21" fill="#9be9a8"/>
<polygon points="462.33,205.21 462.33,194.21 473.61,198.32 473.61,209.32" fill="#88cd93"/>
<polygon points="473.61,209.32 473.61,198.32 484.88,194.21 484.88,205.21" fill="#72ac7c"/>
<polygon points="499.92,188.11 511.19,192.21 499.92,196.32 488.64,192.21" fill="#9be9a8"/>
<polygon points="488.64,205.21 488.64,192.21 499.92,196.32 499.92,209.32" fill="#88cd93"/>
<polygon points="499.92,209.32 499.92,196.32 511.19,192.21 511.19,205.21" fill="#72ac7c"/>
<polygon points="420.98,183.11 432.26,187.21 420.98,191.32 409.71,187.21" fill="#40c463"/>
<polygon points="409.71,205.21 409.71,187.21 420.98,191.32 420.98,209.32" fill="#38ac57"/>
<polygon points="420.98,209.32 420.98,191.32 432.26,187.21 432.26,205.21" fill="#2f9149"/>
<polygon points="407.83,205.90 419.10,210.00 407.83,214.10 396.55,210.00" fill="#ebedf0"/>
<polygon points="513.07,205.90 524.35,210.00 513.07,214.10 501.80,210.00" fill="#ebedf0"/>
<polygon points="539.38,205.90 550.66,210.00 539.38,214.10 528.11,210.00" fill="#ebedf0"/>
<polygon points="434.14,190.90 445.41,195.00 434.14,199.10 422.86,195.00" fill="#9be9a8"/>
<polygon points="422.86,210.00 422.86,195.00 434.14,199.10 434.14,214.10" fill="#88cd93"/>
<polygon points="434.14,214.10 434.14,199.10 445.41,195.00 445.41,210.00" fill="#72ac7c"/>
<polygon points="460.45,187.90 471.73,192.00 460.45,196.10 449.17,192.00" fill="#9be9a8"/>
<polygon points="449.17,210.00 449.17,192.00 460.45,196.10 460.45,214.10" fill="#88cd93"/>
<polygon points="460.45,214.10 460.45,196.10 471.73,192.00 471.73,210.00" fill="#72ac7c"/>
<polygon points="565.69,194.90 576.97,199.00 565.69,203.10 554.42,199.00" fill="#9be9a8"/>
<polygon points="554.42,210.00 554.42,199.00 565.69,203.10 565.69,214.10" fill="#88cd93"/>
<polygon points="565.69,214.10 565.69,203.10 576.97,199.00 576.97,210.00" fill="#72ac7c"/>
<polygon points="486.76,187.90 498.04,192.00 486.76,196.10 475.48,192.00" fill="#40c463"/>
<polygon points="475.48,210.00 475.48,192.00 486.76,196.10 486.76,214.10" fill="#38ac57"/>
<polygon points="486.76,214.10 486.76,196.10 498.04,192.00 498.04,210.00" fill="#2f9149"/>
<polygon points="420.98,210.68 432.26,214.79 420.98,218.89 409.71,214.79" fill="#ebedf0"/>
<polygon points="447.29,210.68 458.57,214.79 447.29,218.89 436.02,214.79" fill="#ebedf0"/>
<polygon points="526.23,210.68 537.50,214.79 526.23,218.89 514.95,214.79" fill="#ebedf0"/>
<polygon points="552.54,210.68 563.82,214.79 552.54,218.89 541.26,214.79" fill="#ebedf0"/>
<polygon points="578.85,210.68 590.13,214.79 578.85,218.89 567.57,214.79" fill="#ebedf0"/>
<polygon points="499.92,194.68 511.19,198.79 499.92,202.89 488.64,198.79" fill="#9be9a8"/>
<polygon points="488.64,214.79 488.64,198.79 499.92,202.89 499.92,218.89" fill="#88cd93"/>
<polygon points="499.92,218.89 499.92,202.89 511.19,198.79 511.19,214.79" fill="#72ac7c"/>
<polygon points="473.61,192.68 484.88,196.79 473.61,200.89 462.33,196.79" fill="#40c463"/>
<polygon points="462.33,214.79 462.33,196.79 473.61,200.89 473.61,218.89" fill="#38ac57"/>
<polygon points="473.61,218.89 473.61,200.89 484.88,196.79 484.88,214.79" fill="#2f9149"/>
<polygon points="434.14,215.47 445.41,219.58 434.14,223.68 422.86,219.58" fill="#ebedf0"/>
<polygon points="486.76,215.47 498.04,219.58 486.76,223.68 475.48,219.58" fill="#ebedf0"/>
<polygon points="513.07,215.47 524.35,219.58 513.07,223.68 501.80,219.58" fill="#ebedf0"/>
<polygon points="565.69,215.47 576.97,219.58 565.69,223.68 554.42,219.58" fill="#ebedf0"/>
<polygon points="460.45,207.47 471.73,211.58 460.45,215.68 449.17,211.58" fill="#9be9a8"/>
<polygon points="449.17,219.58 449.17,211.58 460.45,215.68 460.45,223.68" fill="#88cd93"/>
<polygon points="460.45,223.68 460.45,215.68 471.73,211.58 471.73,219.58" fill="#72ac7c"/>
<polygon points="539.38,204.47 550.66,208.58 539.38,212.68 528.11,208.58" fill="#9be9a8"/>
<polygon points="528.11,219.58 528.11,208.58 539.38,212.68 539.38,223.68" fill="#88cd93"/>
<polygon points="539.38,223.68 539.38,212.68 550.66,208.58 550.66,219.58" fill="#72ac7c"/>
<polygon points="592.01,204.47 603.28,208.58 592.01,212.68 580.73,208.58" fill="#9be9a8"/>
<polygon points="580.73,219.58 580.73,208.58 592.01,212.68 592.01,223.68" fill="#88cd93"/>
<polygon points="592.01,223.68 592.01,212.68 603.28,208.58 603.28,219.58" fill="#72ac7c"/>
<polygon points="447.29,220.26 458.57,224.37 447.29,228.47 436.02,224.37" fill="#ebedf0"/>
<polygon points="473.61,220.26 484.88,224.37 473.61,228.47 462.33,224.37" fill="#ebedf0"/>
<polygon points="499.92,220.26 511.19,224.37 499.92,228.47 488.64,224.37" fill="#ebedf0"/>
<polygon points="526.23,220.26 537.50,224.37 526.23,228.47 514.95,224.37" fill="#ebedf0"/>
<polygon points="578.85,220.26 590.13,224.37 578.85,228.47 567.57,224.37" fill="#ebedf0"/>
<polygon points="605.16,220.26 616.44,224.37 605.16,228.47 593.89,224.37" fill="#ebedf0"/>
<polygon points="552.54,202.26 563.82,206.37 552.54,210.47 541.26,206.37" fill="#30a14e"/>
<polygon points="541.26,224.37 541.26,206.37 552.54,210.47 552.54,228.47" fill="#2a8d44"/>
<polygon points="552.54,228.47 552.54,210.47 563.82,206.37 563.82,224.37" fill="#237739"/>
<polygon points="460.45,225.05 471.73,229.15 460.45,233.26 449.17,229.15" fill="#ebedf0"/>
<polygon points="486.76,225.05 498.04,229.15 486.76,233.26 475.48,229.15" fill="#ebedf0"/>
<polygon points="565.69,225.05 576.97,229.15 565.69,233.26 554.42,229.15" fill="#ebedf0"/>
<polygon points="592.01,225.05 603.28,229.15 592.01,233.26 580.73,229.15" fill="#ebedf0"/>
<polygon points="618.32,225.05 629.59,229.15 618.32,233.26 607.04,229.15" fill="#ebedf0"/>
<polygon points="513.07,214.05 524.35,218.15 513.07,222.26 501.80,218.15" fill="#9be9a8"/>
<polygon points="501.80,229.15 501.80,218.15 513.07,222.26 513.07,233.26" fill="#88cd93"/>
<polygon points="513.07,233.26 513.07,222.26 524.35,218.15 524.35,229.15" fill="#72ac7c"/>
<polygon points="539.38,207.05 550.66,211.15 539.38,215.26 528.11,211.15" fill="#9be9a8"/>
<polygon points="528.11,229.15 528.11,211.15 539.38,215.26 539.38,233.26" fill="#88cd93"/>
<polygon points="539.38,233.26 539.38,215.26 550.66,211.15 550.66,229.15" fill="#72ac7c"/>
<polygon points="473.61,229.84 484.88,233.94 473.61,238.05 462.33,233.94" fill="#ebedf0"/>
<polygon points="526.23,229.84 537.50,233.94 526.23,238.05 514.95,233.94" fill="#ebedf0"/>
<polygon points="578.85,229.84 590.13,233.94 578.85,238.05 567.57,233.94" fill="#ebedf0"/>
<polygon points="499.92,221.84 511.19,225.94 499.92,230.05 488.64,225.94" fill="#9be9a8"/>
<polygon points="488.64,233.94 488.64,225.94 499.92,230.05 499.92,238.05" fill="#88cd93"/>
<polygon points="499.92,238.05 499.92,230.05 511.19,225.94 511.19,233.94" fill="#72ac7c"/>
<polygon points="552.54,221.84 563.82,225.94 552.54,230.05 541.26,225.94" fill="#9be9a8"/>
<polygon points="541.26,233.94 541.26,225.94 552.54,230.05 552.54,238.05" fill="#88cd93"/>
<polygon points="552.54,238.05 552.54,230.05 563.82,225.94 563.82,233.94" fill="#72ac7c"/>
<polygon points="605.16,221.84 616.44,225.94 605.16,230.05 593.89,225.94" fill="#9be9a8"/>
<polygon points="593.89,233.94 593.89,225.94 605.16,230.05 605.16,238.05" fill="#88cd93"/>
<polygon points="605.16,238.05 605.16,230.05 616.44,225.94 616.44,233.94" fill="#72ac7c"/>
<polygon points="631.47,216.84 642.75,220.94 631.47,225.05 620.20,220.94" fill="#9be9a8"/>
<polygon points="620.20,233.94 620.20,220.94 631.47,225.05 631.47,238.05" fill="#88cd93"/>
<polygon points="631.47,238.05 631.47,225.05 642.75,220.94 642.75,233.94" fill="#72ac7c"/>
<polygon points="513.07,234.63 524.35,238.73 513.07,242.83 501.80,238.73" fill="#ebedf0"/>
<polygon points="539.38,234.63 550.66,238.73 539.38,242.83 528.11,238.73" fill="#ebedf0"/>
<polygon points="565.69,234.63 576.97,238.73 565.69,242.83 554.42,238.73" fill="#ebedf0"/>
<polygon points="618.32,234.63 629.59,238.73 618.32,242.83 607.04,238.73" fill="#ebedf0"/>
<polygon points="486.76,218.63 498.04,222.73 486.76,226.83 475.48,222.73" fill="#9be9a8"/>
<polygon points="475.48,238.73 475.48,222.73 486.76,226.83 486.76,242.83" fill="#88cd93"/>
<polygon points="486.76,242.83 486.76,226.83 498.04,222.73 498.04,238.73" fill="#72ac7c"/>
<polygon points="592.01,218.63 603.28,222.73 592.01,226.83 580.73,222.73" fill="#9be9a8"/>
<polygon points="580.73,238.73 580.73,222.73 592.01,226.83 592.01,242.83" fill="#88cd93"/>
<polygon points="592.01,242.83 592.01,226.83 603.28,222.73 603.28,238.73" fill="#72ac7c"/>
<polygon points="644.63,220.63 655.91,224.73 644.63,228.83 633.35,224.73" fill="#9be9a8"/>
<polygon points="633.35,238.73 633.35,224.73 644.63,228.83 644.63,242.83" fill="#88cd93"/>
<polygon points="644.63,242.83 644.63,228.83 655.91,224.73 655.91,238.73" fill="#72ac7c"/>
<polygon points="499.92,239.41 511.19,243.52 499.92,247.62 488.64,243.52" fill="#ebedf0"/>
<polygon points="552.54,239.41 563.82,243.52 552.54,247.62 541.26,243.52" fill="#ebedf0"/>
<polygon points="526.23,231.41 537.50,235.52 526.23,239.62 514.95,235.52" fill="#9be9a8"/>
<polygon points="514.95,243.52 514.95,235.52 526.23,239.62 526.23,247.62" fill="#88cd93"/>
<polygon points="526.23,247.62 526.23,239.62 537.50,235.52 537.50,243.52" fill="#72ac7c"/>
<polygon points="578.85,224.41 590.13,228.52 578.85,232.62 567.57,228.52" fill="#9be9a8"/>
<polygon points="567.57,243.52 567.57,228.52 578.85,232.62 578.85,247.62" fill="#88cd93"/>
<polygon points="578.85,247.62 578.85,232.62 590.13,228.52 590.13,243.52" fill="#72ac7c"/>
<polygon points="605.16,228.41 616.44,232.52 605.16,236.62 593.89,232.52" fill="#9be9a8"/>
<polygon points="593.89,243.52 593.89,232.52 605.16,236.62 605.16,247.62" fill="#88cd93"/>
<polygon points="605.16,247.62 605.16,236.62 616.44,232.52 616.44,243.52" fill="#72ac7c"/>
<polygon points="657.78,225.41 669.06,229.52 657.78,233.62 646.51,229.52" fill="#9be9a8"/>
<polygon points="646.51,243.52 646.51,229.52 657.78,233.62 657.78,247.62" fill="#88cd93"/>
<polygon points="657.78,247.62 657.78,233.62 669.06,229.52 669.06,243.52" fill="#72ac7c"/>
<polygon points="631.47,221.41 642.75,225.52 631.47,229.62 620.20,225.52" fill="#40c463"/>
<polygon points="620.20,243.52 620.20,225.52 631.47,229.62 631.47,247.62" fill="#38ac57"/>
<polygon points="631.47,247.62 631.47,229.62 642.75,225.52 642.75,243.52" fill="#2f9149"/>
<polygon points="513.07,244.20 524.35,248.31 513.07,252.41 501.80,248.31" fill="#ebedf0"/>
<polygon points="592.01,244.20 603.28,248.31 592.01,252.41 580.73,248.31" fill="#ebedf0"/>
<polygon points="670.94,244.20 682.22,248.31 670.94,252.41 659.66,248.31" fill="#ebedf0"/>
<polygon points="539.38,227.20 550.66,231.31 539.38,235.41 528.11,231.31" fill="#9be9a8"/>
<polygon points="528.11,248.31 528.11,231.31 539.38,235.41 539.38,252.41" fill="#88cd93"/>
<polygon points="539.38,252.41 539.38,235.41 550.66,231.31 550.66,248.31" fill="#72ac7c"/>
<polygon points="565.69,231.20 576.97,235.31 565.69,239.41 554.42,235.31" fill="#9be9a8"/>
<polygon points="554.42,248.31 554.42,235.31 565.69,239.41 565.69,252.41" fill="#88cd93"/>
<polygon points="565.69,252.41 565.69,239.41 576.97,235.31 576.97,248.31" fill="#72ac7c"/>
<polygon points="618.32,229.20 629.59,233.31 618.32,237.41 607.04,233.31" fill="#9be9a8"/>
<polygon points="607.04,248.31 607.04,233.31 618.32,237.41 618.32,252.41" fill="#88cd93"/>
<polygon points="618.32,252.41 618.32,237.41 629.59,233.31 629.59,248.31" fill="#72ac7c"/>
<polygon points="644.63,226.20 655.91,230.31 644.63,234.41 633.35,230.31" fill="#216e39"/>
<polygon points="633.35,248.31 633.35,230.31 644.63,234.41 644.63,252.41" fill="#1d6032"/>
<polygon points="644.63,252.41 644.63,234.41 655.91,230.31 655.91,248.31" fill="#18512a"/>
<polygon points="526.23,248.99 537.50,253.09 526.23,257.20 514.95,253.09" fill="#ebedf0"/>
<polygon points="552.54,248.99 563.82,253.09 552.54,257.20 541.26,253.09" fill="#ebedf0"/>
<polygon points="578.85,248.99 590.13,253.09 578.85,257.20 567.57,253.09" fill="#ebedf0"/>
<polygon points="605.16,248.99 616.44,253.09 605.16,257.20 593.89,253.09" fill="#ebedf0"/>
<polygon points="684.10,248.99 695.37,253.09 684.10,257.20 672.82,253.09" fill="#ebedf0"/>
<polygon points="657.78,240.99 669.06,245.09 657.78,249.20 646.51,245.09" fill="#9be9a8"/>
<polygon points="646.51,253.09 646.51,245.09 657.78,249.20 657.78,257.20" fill="#88cd93"/>
<polygon points="657.78,257.20 657.78,249.20 669.06,245.09 669.06,253.09" fill="#72ac7c"/>
<polygon points="631.47,230.99 642.75,235.09 631.47,239.20 620.20,235.09" fill="#40c463"/>
<polygon points="620.20,253.09 620.20,235.09 631.47,239.20 631.47,257.20" fill="#38ac57"/>
<polygon points="631.47,257.20 631.47,239.20 642.75,235.09 642.75,253.09" fill="#2f9149"/>
<polygon points="539.38,253.78 550.66,257.88 539.38,261.99 528.11,257.88" fill="#ebedf0"/>
<polygon points="670.94,253.78 682.22,257.88 670.94,261.99 659.66,257.88" fill="#ebedf0"/>
<polygon points="565.69,239.78 576.97,243.88 565.69,247.99 554.42,243.88" fill="#9be9a8"/>
<polygon points="554.42,257.88 554.42,243.88 565.69,247.99 565.69,261.99" fill="#88cd93"/>
<polygon points="565.69,261.99 565.69,247.99 576.97,243.88 576.97,257.88" fill="#72ac7c"/>
<polygon points="592.01,239.78 603.28,243.88 592.01,247.99 580.73,243.88" fill="#9be9a8"/>
<polygon points="580.73,257.88 580.73,243.88 592.01,247.99 592.01,261.99" fill="#88cd93"/>
<polygon points="592.01,261.99 592.01,247.99 603.28,243.88 603.28,257.88" fill="#72ac7c"/>
<polygon points="618.32,240.78 629.59,244.88 618.32,248.99 607.04,244.88" fill="#9be9a8"/>
<polygon points="607.04,257.88 607.04,244.88 618.32,248.99 618.32,261.99" fill="#88cd93"/>
<polygon points="618.32,261.99 618.32,248.99 629.59,244.88 629.59,257.88" fill="#72ac7c"/>
<polygon points="644.63,237.78 655.91,241.88 644.63,245.99 633.35,241.88" fill="#9be9a8"/>
<polygon points="633.35,257.88 633.35,241.88 644.63,245.99 644.63,261.99" fill="#88cd93"/>
<polygon points="644.63,261.99 644.63,245.99 655.91,241.88 655.91,257.88" fill="#72ac7c"/>
<polygon points="657.78,258.57 669.06,262.67 657.78,266.78 646.51,262.67" fill="#ebedf0"/>
<polygon points="552.54,244.57 563.82,248.67 552.54,252.78 541.26,248.67" fill="#9be9a8"/>
<polygon points="541.26,262.67 541.26,248.67 552.54,252.78 552.54,266.78" fill="#88cd93"/>
<polygon points="552.54,266.78 552.54,252.78 563.82,248.67 563.82,262.67" fill="#72ac7c"/>
<polygon points="605.16,242.57 616.44,246.67 605.16,250.78 593.89,246.67" fill="#9be9a8"/>
<polygon points="593.89,262.67 593.89,246.67 605.16,250.78 605.16,266.78" fill="#88cd93"/>
<polygon points="605.16,266.78 605.16,250.78 616.44,246.67 616.44,262.67" fill="#72ac7c"/>
<polygon points="631.47,247.57 642.75,251.67 631.47,255.78 620.20,251.67" fill="#9be9a8"/>
<polygon points="620.20,262.67 620.20,251.67 631.47,255.78 631.47,266.78" fill="#88cd93"/>
<polygon points="631.47,266.78 631.47,255.78 642.75,251.67 642.75,262.67" fill="#72ac7c"/>
<polygon points="578.85,240.57 590.13,244.67 578.85,248.78 567.57,244.67" fill="#40c463"/>
<polygon points="567.57,262.67 567.57,244.67 578.85,248.78 578.85,266.78" fill="#38ac57"/>
<polygon points="578.85,266.78 578.85,248.78 590.13,244.67 590.13,262.67" fill="#2f9149"/>
<polygon points="618.32,263.36 629.59,267.46 618.32,271.56 607.04,267.46" fill="#ebedf0"/>
<polygon points="644.63,263.36 655.91,267.46 644.63,271.56 633.35,267.46" fill="#ebedf0"/>
<polygon points="565.69,245.36 576.97,249.46 565.69,253.56 554.42,249.46" fill="#9be9a8"/>
<polygon points="554.42,267.46 554.42,249.46 565.69,253.56 565.69,271.56" fill="#88cd93"/>
<polygon points="565.69,271.56 565.69,253.56 576.97,249.46 576.97,267.46" fill="#72ac7c"/>
<polygon points="592.01,252.36 603.28,256.46 592.01,260.56 580.73,256.46" fill="#9be9a8"/>
<polygon points="580.73,267.46 580.73,256.46 592.01,260.56 592.01,271.56" fill="#88cd93"/>
<polygon points="592.01,271.56 592.01,260.56 603.28,256.46 603.28,267.46" fill="#72ac7c"/>
<polygon points="578.85,257.14 590.13,261.25 578.85,265.35 567.57,261.25" fill="#9be9a8"/>
<polygon points="567.57,272.25 567.57,261.25 578.85,265.35 578.85,276.35" fill="#88cd93"/>
<polygon points="578.85,276.35 578.85,265.35 590.13,261.25 590.13,272.25" fill="#72ac7c"/>
<polygon points="605.16,257.14 616.44,261.25 605.16,265.35 593.89,261.25" fill="#9be9a8"/>
<polygon points="593.89,272.25 593.89,261.25 605.16,265.35 605.16,276.35" fill="#88cd93"/>
<polygon points="605.16,276.35 605.16,265.35 616.44,261.25 616.44,272.25" fill="#72ac7c"/>
<polygon points="592.01,272.93 603.28,277.04 592.01,281.14 580.73,277.04" fill="#ebedf0"/>
<text x="697.25" y="14.00" text-anchor="end" font-family='-apple-system, BlinkMacSystemFont, "Segoe UI", Helvetica, Arial, sans-serif' font-size="34" font-weight="700" fill="#216e39">3,006</text>
<text x="697.25" y="26.00" text-anchor="end" font-family='-apple-system, BlinkMacSystemFont, "Segoe UI", Helvetica, Arial, sans-serif' font-size="10" fill="#59636e" letter-spacing="0.8">TOTAL CONTRIBUTIONS</text>
<rect x="-92.09" y="227.05" width="12" height="12.25" rx="1" fill="#40c463"/>
<text x="-86.09" y="257.30" text-anchor="middle" font-family='-apple-system, BlinkMacSystemFont, "Segoe UI", Helvetica, Arial, sans-serif' font-size="11" fill="#59636e">S</text>
<rect x="-76.09" y="194.14" width="12" height="45.16" rx="1" fill="#40c463"/>
<text x="-70.09" y="257.30" text-anchor="middle" font-family='-apple-system, BlinkMacSystemFont, "Segoe UI", Helvetica, Arial, sans-serif' font-size="11" fill="#59636e">M</text>
<rect x="-60.09" y="185.30" width="12" height="54.00" rx="1" fill="#216e39"/>
<text x="-54.09" y="257.30" text-anchor="middle" font-family='-apple-system, BlinkMacSystemFont, "Segoe UI", Helvetica, Arial, sans-serif' font-size="11" fill="#59636e">T</text>
<rect x="-44.09" y="190.57" width="12" height="48.73" rx="1" fill="#40c463"/>
<text x="-38.09" y="257.30" text-anchor="middle" font-family='-apple-system, BlinkMacSystemFont, "Segoe UI", Helvetica, Arial, sans-serif' font-size="11" fill="#59636e">W</text>
<rect x="-28.09" y="193.12" width="12" height="46.18" rx="1" fill="#40c463"/>
<text x="-22.09" y="257.30" text-anchor="middle" font-family='-apple-system, BlinkMacSystemFont, "Segoe UI", Helvetica, Arial, sans-serif' font-size="11" fill="#59636e">T</text>
<rect x="-12.09" y="196.44" width="12" height="42.86" rx="1" fill="#40c463"/>
<text x="-6.09" y="257.30" text-anchor="middle" font-family='-apple-system, BlinkMacSystemFont, "Segoe UI", Helvetica, Arial, sans-serif' font-size="11" fill="#59636e">F</text>
<rect x="3.91" y="232.83" width="12" height="6.46" rx="1" fill="#40c463"/>
<text x="9.91" y="257.30" text-anchor="middle" font-family='-apple-system, BlinkMacSystemFont, "Segoe UI", Helvetica, Arial, sans-serif' font-size="11" fill="#59636e">S</text>
<text x="-92.09" y="277.30" font-family='-apple-system, BlinkMacSystemFont, "Segoe UI", Helvetica, Arial, sans-serif' font-size="12" fill="#59636e" letter-spacing="0.3">Most active days</text>
<text x="-92.09" y="293.30" font-family='-apple-system, BlinkMacSystemFont, "Segoe UI", Helvetica, Arial, sans-serif' font-size="9" fill="#59636e">Data pulled daily from GitHub.</text>
<text x="-92.09" y="303.30" font-family='-apple-system, BlinkMacSystemFont, "Segoe UI", Helvetica, Arial, sans-serif' font-size="9" fill="#59636e">Rolling last-12-month activity.</text>
</svg>