<svg xmlns="http://www.w3.org/2000/svg" viewBox="-98.09 -24.00 801.34 354.30" width="801" height="354">
<polygon points="0.00,-18.00 11.28,-13.90 0.00,-9.79 -11.28,-13.90" fill="#006d32"/>
<polygon points="-11.28,4.10 -11.28,-13.90 0.00,-9.79 0.00,8.21" fill="#005f2c"/>
<polygon points="0.00,8.21 0.00,-9.79 11.28,-13.90 11.28,4.10" fill="#005025"/>
<polygon points="13.16,4.79 24.43,8.89 13.16,13.00 1.88,8.89" fill="#161b22"/>
<polygon points="-13.16,-13.21 -1.88,-9.11 -13.16,-5.00 -24.43,-9.11" fill="#006d32"/>
<polygon points="-24.43,8.89 -24.43,-9.11 -13.16,-5.00 -13.16,13.00" fill="#005f2c"/>
<polygon points="-13.16,13.00 -13.16,-5.00 -1.88,-9.11 -1.88,8.89" fill="#005025"/>
<polygon points="26.31,9.58 37.59,13.68 26.31,17.79 15.04,13.68" fill="#161b22"/>
<polygon points="-26.31,-8.42 -15.04,-4.32 -26.31,-0.21 -37.59,-4.32" fill="#006d32"/>
<polygon points="-37.59,13.68 -37.59,-4.32 -26.31,-0.21 -26.31,17.79" fill="#005f2c"/>
<polygon points="-26.31,17.79 -26.31,-0.21 -15.04,-4.32 -15.04,13.68" fill="#005025"/>
<polygon points="0.00,-8.42 11.28,-4.32 0.00,-0.21 -11.28,-4.32" fill="#26a641"/>
<polygon points="-11.28,13.68 -11.28,-4.32 0.00,-0.21 0.00,17.79" fill="#219239"/>
<polygon points="0.00,17.79 0.00,-0.21 11.28,-4.32 11.28,13.68" fill="#1c7a30"/>
<polygon points="-13.16,14.36 -1.88,18.47 -13.16,22.57 -24.43,18.47" fill="#161b22"/>
<polygon points="13.16,14.36 24.43,18.47 13.16,22.57 1.88,18.47" fill="#161b22"/>
<polygon points="39.47,3.36 50.74,7.47 39.47,11.57 28.19,7.47" fill="#0e4429"/>
<polygon points="28.19,18.47 28.19,7.47 39.47,11.57 39.47,22.57" fill="#0c3b24"/>
<polygon points="39.47,22.57 39.47,11.57 50.74,7.47 50.74,18.47" fill="#0a321e"/>
<polygon points="-39.47,-3.64 -28.19,0.47 -39.47,4.57 -50.74,0.47" fill="#39d353"/>
<polygon points="-50.74,18.47 -50.74,0.47 -39.47,4.57 -39.47,22.57" fill="#32b949"/>
<polygon points="-39.47,22.57 -39.47,4.57 -28.19,0.47 -28.19,18.47" fill="#2a9c3d"/>
<polygon points="0.00,19.15 11.28,23.26 0.00,27.36 -11.28,23.26" fill="#161b22"/>
<polygon points="26.31,19.15 37.59,23.26 26.31,27.36 15.04,23.26" fill="#161b22"/>
<polygon points="52.62,19.15 63.90,23.26 52.62,27.36 41.35,23.26" fill="#161b22"/>
<polygon points="-52.62,1.15 -41.35,5.26 -52.62,9.36 -63.90,5.26" fill="#006d32"/>
<polygon points="-63.90,23.26 -63.90,5.26 -52.62,9.36 -52.62,27.36" fill="#005f2c"/>
<polygon points="-52.62,27.36 -52.62,9.36 -41.35,5.26 -41.35,23.26" fill="#005025"/>
<polygon points="-26.31,1.15 -15.04,5.26 -26.31,9.36 -37.59,5.26" fill="#006d32"/>
<polygon points="-37.59,23.26 -37.59,5.26 -26.31,9.36 -26.31,27.36" fill="#005f2c"/>
<polygon points="-26.31,27.36 -26.31,9.36 -15.04,5.26 -15.04,23.26" fill="#005025"/>
<polygon points="65.78,23.94 77.05,28.05 65.78,32.15 54.50,28.05" fill="#161b22"/>
<polygon points="-39.47,5.94 -28.19,10.05 -39.47,14.15 -50.74,10.05" fill="#0e4429"/>
<polygon points="-50.74,28.05 -50.74,10.05 -39.47,14.15 -39.47,32.15" fill="#0c3b24"/>
<polygon points="-39.47,32.15 -39.47,14.15 -28.19,10.05 -28.19,28.05" fill="#0a321e"/>
<polygon points="-13.16,12.94 -1.88,17.05 -13.16,21.15 -24.43,17.05" fill="#0e4429"/>
<polygon points="-24.43,28.05 -24.43,17.05 -13.16,21.15 -13.16,32.15" fill="#0c3b24"/>
<polygon points="-13.16,32.15 -13.16,21.15 -1.88,17.05 -1.88,28.05" fill="#0a321e"/>
<polygon points="39.47,5.94 50.74,10.05 39.47,14.15 28.19,10.05" fill="#006d32"/>
<polygon points="28.19,28.05 28.19,10.05 39.47,14.15 39.47,32.15" fill="#005f2c"/>
<polygon points="39.47,32.15 39.47,14.15 50.74,10.05 50.74,28.05" fill="#005025"/>
<polygon points="-65.78,5.94 -54.50,10.05 -65.78,14.15 -77.05,10.05" fill="#39d353"/>
<polygon points="-77.05,28.05 -77.05,10.05 -65.78,14.15 -65.78,32.15" fill="#32b949"/>
<polygon points="-65.78,32.15 -65.78,14.15 -54.50,10.05 -54.50,28.05" fill="#2a9c3d"/>
<polygon points="13.16,5.94 24.43,10.05 13.16,14.15 1.88,10.05" fill="#39d353"/>
<polygon points="1.88,28.05 1.88,10.05 13.16,14.15 13.16,32.15" fill="#32b949"/>
<polygon points="13.16,32.15 13.16,14.15 24.43,10.05 24.43,28.05" fill="#2a9c3d"/>
<polygon points="-52.62,28.73 -41.35,32.83 -52.62,36.94 -63.90,32.83" fill="#161b22"/>
<polygon points="-78.93,15.73 -67.66,19.83 -78.93,23.94 -90.21,19.83" fill="#0e4429"/>
<polygon points="-90.21,32.83 -90.21,19.83 -78.93,23.94 -78.93,36.94" fill="#0c3b24"/>
<polygon points="-78.93,36.94 -78.93,23.94 -67.66,19.83 -67.66,32.83" fill="#0a321e"/>
<polygon points="52.62,10.73 63.90,14.83 52.62,18.94 41.35,14.83" fill="#0e4429"/>
<polygon points="41.35,32.83 41.35,14.83 52.62,18.94 52.62,36.94" fill="#0c3b24"/>
<polygon points="52.62,36.94 52.62,18.94 63.90,14.83 63.90,32.83" fill="#0a321e"/>
<polygon points="78.93,17.73 90.21,21.83 78.93,25.94 67.66,21.83" fill="#0e4429"/>
<polygon points="67.66,32.83 67.66,21.83 78.93,25.94 78.93,36.94" fill="#0c3b24"/>
<polygon points="78.93,36.94 78.93,25.94 90.21,21.83 90.21,32.83" fill="#0a321e"/>
<polygon points="-26.31,10.73 -15.04,14.83 -26.31,18.94 -37.59,14.83" fill="#006d32"/>
<polygon points="-37.59,32.83 -37.59,14.83 -26.31,18.94 -26.31,36.94" fill="#005f2c"/>
<polygon points="-26.31,36.94 -26.31,18.94 -15.04,14.83 -15.04,32.83" fill="#005025"/>
<polygon points="0.00,10.73 11.28,14.83 0.00,18.94 -11.28,14.83" fill="#006d32"/>
<polygon points="-11.28,32.83 -11.28,14.83 0.00,18.94 0.00,36.94" fill="#005f2c"/>
<polygon points="0.00,36.94 0.00,18.94 11.28,14.83 11.28,32.83" fill="#005025"/>
<polygon points="26.31,10.73 37.59,14.83 26.31,18.94 15.04,14.83" fill="#26a641"/>
<polygon points="15.04,32.83 15.04,14.83 26.31,18.94 26.31,36.94" fill="#219239"/>
<polygon points="26.31,36.94 26.31,18.94 37.59,14.83 37.59,32.83" fill="#1c7a30"/>
<polygon points="-65.78,33.52 -54.50,37.62 -65.78,41.73 -77.05,37.62" fill="#161b22"/>
<polygon points="-39.47,16.52 -28.19,20.62 -39.47,24.73 -50.74,20.62" fill="#0e4429"/>
<polygon points="-50.74,37.62 -50.74,20.62 -39.47,24.73 -39.47,41.73" fill="#0c3b24"/>
<polygon points="-39.47,41.73 -39.47,24.73 -28.19,20.62 -28.19,37.62" fill="#0a321e"/>
<polygon points="-13.16,15.52 -1.88,19.62 -13.16,23.73 -24.43,19.62" fill="#006d32"/>
<polygon points="-24.43,37.62 -24.43,19.62 -13.16,23.73 -13.16,41.73" fill="#005f2c"/>
<polygon points="-13.16,41.73 -13.16,23.73 -1.88,19.62 -1.88,37.62" fill="#005025"/>
<polygon points="39.47,15.52 50.74,19.62 39.47,23.73 28.19,19.62" fill="#006d32"/>
<polygon points="28.19,37.62 28.19,19.62 39.47,23.73 39.47,41.73" fill="#005f2c"/>
<polygon points="39.47,41.73 39.47,23.73 50.74,19.62 50.74,37.62" fill="#005025"/>
<polygon points="65.78,15.52 77.05,19.62 65.78,23.73 54.50,19.62" fill="#006d32"/>
<polygon points="54.50,37.62 54.50,19.62 65.78,23.73 65.78,41.73" fill="#005f2c"/>
<polygon points="65.78,41.73 65.78,23.73 77.05,19.62 77.05,37.62" fill="#005025"/>
<polygon points="92.09,15.52 103.37,19.62 92.09,23.73 80.81,19.62" fill="#006d32"/>
<polygon points="80.81,37.62 80.81,19.62 92.09,23.73 92.09,41.73" fill="#005f2c"/>
<polygon points="92.09,41.73 92.09,23.73 103.37,19.62 103.37,37.62" fill="#005025"/>
<polygon points="13.16,15.52 24.43,19.62 13.16,23.73 1.88,19.62" fill="#26a641"/>
<polygon points="1.88,37.62 1.88,19.62 13.16,23.73 13.16,41.73" fill="#219239"/>
<polygon points="13.16,41.73 13.16,23.73 24.43,19.62 24.43,37.62" fill="#1c7a30"/>
<polygon points="-26.31,38.31 -15.04,42.41 -26.31,46.51 -37.59,42.41" fill="#161b22"/>
<polygon points="-52.62,20.31 -41.35,24.41 -52.62,28.51 -63.90,24.41" fill="#0e4429"/>
<polygon points="-63.90,42.41 -63.90,24.41 -52.62,28.51 -52.62,46.51" fill="#0c3b24"/>
<polygon points="-52.62,46.51 -52.62,28.51 -41.35,24.41 -41.35,42.41" fill="#0a321e"/>
<polygon points="26.31,21.31 37.59,25.41 26.31,29.51 15.04,25.41" fill="#0e4429"/>
<polygon points="15.04,42.41 15.04,25.41 26.31,29.51 26.31,46.51" fill="#0c3b24"/>
<polygon points="26.31,46.51 26.31,29.51 37.59,25.41 37.59,42.41" fill="#0a321e"/>
<polygon points="78.93,20.31 90.21,24.41 78.93,28.51 67.66,24.41" fill="#006d32"/>
<polygon points="67.66,42.41 67.66,24.41 78.93,28.51 78.93,46.51" fill="#005f2c"/>
<polygon points="78.93,46.51 78.93,28.51 90.21,24.41 90.21,42.41" fill="#005025"/>
<polygon points="105.25,20.31 116.52,24.41 105.25,28.51 93.97,24.41" fill="#006d32"/>
<polygon points="93.97,42.41 93.97,24.41 105.25,28.51 105.25,46.51" fill="#005f2c"/>
<polygon points="105.25,46.51 105.25,28.51 116.52,24.41 116.52,42.41" fill="#005025"/>
<polygon points="52.62,20.31 63.90,24.41 52.62,28.51 41.35,24.41" fill="#26a641"/>
<polygon points="41.35,42.41 41.35,24.41 52.62,28.51 52.62,46.51" fill="#219239"/>
<polygon points="52.62,46.51 52.62,28.51 63.90,24.41 63.90,42.41" fill="#1c7a30"/>
<polygon points="0.00,20.31 11.28,24.41 0.00,28.51 -11.28,24.41" fill="#39d353"/>
<polygon points="-11.28,42.41 -11.28,24.41 0.00,28.51 0.00,46.51" fill="#32b949"/>
<polygon points="0.00,46.51 0.00,28.51 11.28,24.41 11.28,42.41" fill="#2a9c3d"/>
<polygon points="-39.47,43.09 -28.19,47.20 -39.47,51.30 -50.74,47.20" fill="#161b22"/>
<polygon points="39.47,25.09 50.74,29.20 39.47,33.30 28.19,29.20" fill="#0e4429"/>
<polygon points="28.19,47.20 28.19,29.20 39.47,33.30 39.47,51.30" fill="#0c3b24"/>
<polygon points="39.47,51.30 39.47,33.30 50.74,29.20 50.74,47.20" fill="#0a321e"/>
<polygon points="65.78,25.09 77.05,29.20 65.78,33.30 54.50,29.20" fill="#0e4429"/>
<polygon points="54.50,47.20 54.50,29.20 65.78,33.30 65.78,51.30" fill="#0c3b24"/>
<polygon points="65.78,51.30 65.78,33.30 77.05,29.20 77.05,47.20" fill="#0a321e"/>
<polygon points="118.40,25.09 129.68,29.20 118.40,33.30 107.12,29.20" fill="#0e4429"/>
<polygon points="107.12,47.20 107.12,29.20 118.40,33.30 118.40,51.30" fill="#0c3b24"/>
<polygon points="118.40,51.30 118.40,33.30 129.68,29.20 129.68,47.20" fill="#0a321e"/>
<polygon points="13.16,25.09 24.43,29.20 13.16,33.30 1.88,29.20" fill="#006d32"/>
<polygon points="1.88,47.20 1.88,29.20 13.16,33.30 13.16,51.30" fill="#005f2c"/>
<polygon points="13.16,51.30 13.16,33.30 24.43,29.20 24.43,47.20" fill="#005025"/>
<polygon points="92.09,25.09 103.37,29.20 92.09,33.30 80.81,29.20" fill="#006d32"/>
<polygon points="80.81,47.20 80.81,29.20 92.09,33.30 92.09,51.30" fill="#005f2c"/>
<polygon points="92.09,51.30 92.09,33.30 103.37,29.20 103.37,47.20" fill="#005025"/>
<polygon points="-13.16,25.09 -1.88,29.20 -13.16,33.30 -24.43,29.20" fill="#39d353"/>
<polygon points="-24.43,47.20 -24.43,29.20 -13.16,33.30 -13.16,51.30" fill="#32b949"/>
<polygon points="-13.16,51.30 -13.16,33.30 -1.88,29.20 -1.88,47.20" fill="#2a9c3d"/>
<polygon points="-26.31,47.88 -15.04,51.99 -26.31,56.09 -37.59,51.99" fill="#161b22"/>
<polygon points="131.56,47.88 142.83,51.99 131.56,56.09 120.28,51.99" fill="#161b22"/>
<polygon points="0.00,29.88 11.28,33.99 0.00,38.09 -11.28,33.99" fill="#006d32"/>
<polygon points="-11.28,51.99 -11.28,33.99 0.00,38.09 0.00,56.09" fill="#005f2c"/>
<polygon points="0.00,56.09 0.00,38.09 11.28,33.99 11.28,51.99" fill="#005025"/>
<polygon points="52.62,29.88 63.90,33.99 52.62,38.09 41.35,33.99" fill="#006d32"/>
<polygon points="41.35,51.99 41.35,33.99 52.62,38.09 52.62,56.09" fill="#005f2c"/>
<polygon points="52.62,56.09 52.62,38.09 63.90,33.99 63.90,51.99" fill="#005025"/>
<polygon points="105.25,29.88 116.52,33.99 105.25,38.09 93.97,33.99" fill="#006d32"/>
<polygon points="93.97,51.99 93.97,33.99 105.25,38.09 105.25,56.09" fill="#005f2c"/>
<polygon points="105.25,56.09 105.25,38.09 116.52,33.99 116.52,51.99" fill="#005025"/>
<polygon points="26.31,29.88 37.59,33.99 26.31,38.09 15.04,33.99" fill="#26a641"/>
<polygon points="15.04,51.99 15.04,33.99 26.31,38.09 26.31,56.09" fill="#219239"/>
<polygon points="26.31,56.09 26.31,38.09 37.59,33.99 37.59,51.99" fill="#1c7a30"/>
<polygon points="78.93,29.88 90.21,33.99 78.93,38.09 67.66,33.99" fill="#26a641"/>
<polygon points="67.66,51.99 67.66,33.99 78.93,38.09 78.93,56.09" fill="#219239"/>
<polygon points="78.93,56.09 78.93,38.09 90.21,33.99 90.21,51.99" fill="#1c7a30"/>
<polygon points="-13.16,52.67 -1.88,56.78 -13.16,60.88 -24.43,56.78" fill="#161b22"/>
<polygon points="92.09,34.67 103.37,38.78 92.09,42.88 80.81,38.78" fill="#0e4429"/>
<polygon points="80.81,56.78 80.81,38.78 92.09,42.88 92.09,60.88" fill="#0c3b24"/>
<polygon points="92.09,60.88 92.09,42.88 103.37,38.78 103.37,56.78" fill="#0a321e"/>
<polygon points="144.71,41.67 155.99,45.78 144.71,49.88 133.44,45.78" fill="#0e4429"/>
<polygon points="133.44,56.78 133.44,45.78 144.71,49.88 144.71,60.88" fill="#0c3b24"/>
<polygon points="144.71,60.88 144.71,49.88 155.99,45.78 155.99,56.78" fill="#0a321e"/>
<polygon points="13.16,34.67 24.43,38.78 13.16,42.88 1.88,38.78" fill="#006d32"/>
<polygon points="1.88,56.78 1.88,38.78 13.16,42.88 13.16,60.88" fill="#005f2c"/>
<polygon points="13.16,60.88 13.16,42.88 24.43,38.78 24.43,56.78" fill="#005025"/>
<polygon points="39.47,34.67 50.74,38.78 39.47,42.88 28.19,38.78" fill="#006d32"/>
<polygon points="28.19,56.78 28.19,38.78 39.47,42.88 39.47,60.88" fill="#005f2c"/>
<polygon points="39.47,60.88 39.47,42.88 50.74,38.78 50.74,56.78" fill="#005025"/>
<polygon points="65.78,34.67 77.05,38.78 65.78,42.88 54.50,38.78" fill="#006d32"/>
<polygon points="54.50,56.78 54.50,38.78 65.78,42.88 65.78,60.88" fill="#005f2c"/>
<polygon points="65.78,60.88 65.78,42.88 77.05,38.78 77.05,56.78" fill="#005025"/>
<polygon points="118.40,34.67 129.68,38.78 118.40,42.88 107.12,38.78" fill="#006d32"/>
<polygon points="107.12,56.78 107.12,38.78 118.40,42.88 118.40,60.88" fill="#005f2c"/>
<polygon points="118.40,60.88 118.40,42.88 129.68,38.78 129.68,56.78" fill="#005025"/>
<polygon points="0.00,57.46 11.28,61.56 0.00,65.67 -11.28,61.56" fill="#161b22"/>
<polygon points="157.87,57.46 169.14,61.56 157.87,65.67 146.59,61.56" fill="#161b22"/>
<polygon points="26.31,39.46 37.59,43.56 26.31,47.67 15.04,43.56" fill="#0e4429"/>
<polygon points="15.04,61.56 15.04,43.56 26.31,47.67 26.31,65.67" fill="#0c3b24"/>
<polygon points="26.31,65.67 26.31,47.67 37.59,43.56 37.59,61.56" fill="#0a321e"/>
<polygon points="52.62,42.46 63.90,46.56 52.62,50.67 41.35,46.56" fill="#0e4429"/>
<polygon points="41.35,61.56 41.35,46.56 52.62,50.67 52.62,65.67" fill="#0c3b24"/>
<polygon points="52.62,65.67 52.62,50.67 63.90,46.56 63.90,61.56" fill="#0a321e"/>
<polygon points="78.93,46.46 90.21,50.56 78.93,54.67 67.66,50.56" fill="#0e4429"/>
<polygon points="67.66,61.56 67.66,50.56 78.93,54.67 78.93,65.67" fill="#0c3b24"/>
<polygon points="78.93,65.67 78.93,54.67 90.21,50.56 90.21,61.56" fill="#0a321e"/>
<polygon points="131.56,40.46 142.83,44.56 131.56,48.67 120.28,44.56" fill="#0e4429"/>
<polygon points="120.28,61.56 120.28,44.56 131.56,48.67 131.56,65.67" fill="#0c3b24"/>
<polygon points="131.56,65.67 131.56,48.67 142.83,44.56 142.83,61.56" fill="#0a321e"/>
<polygon points="105.25,39.46 116.52,43.56 105.25,47.67 93.97,43.56" fill="#006d32"/>
<polygon points="93.97,61.56 93.97,43.56 105.25,47.67 105.25,65.67" fill="#005f2c"/>
<polygon points="105.25,65.67 105.25,47.67 116.52,43.56 116.52,61.56" fill="#005025"/>
<polygon points="13.16,62.25 24.43,66.35 13.16,70.46 1.88,66.35" fill="#161b22"/>
<polygon points="171.02,62.25 182.30,66.35 171.02,70.46 159.75,66.35" fill="#161b22"/>
<polygon points="65.78,46.25 77.05,50.35 65.78,54.46 54.50,50.35" fill="#0e4429"/>
<polygon points="54.50,66.35 54.50,50.35 65.78,54.46 65.78,70.46" fill="#0c3b24"/>
<polygon points="65.78,70.46 65.78,54.46 77.05,50.35 77.05,66.35" fill="#0a321e"/>
<polygon points="118.40,48.25 129.68,52.35 118.40,56.46 107.12,52.35" fill="#0e4429"/>
<polygon points="107.12,66.35 107.12,52.35 118.40,56.46 118.40,70.46" fill="#0c3b24"/>
<polygon points="118.40,70.46 118.40,56.46 129.68,52.35 129.68,66.35" fill="#0a321e"/>
<polygon points="144.71,44.25 155.99,48.35 144.71,52.46 133.44,48.35" fill="#0e4429"/>
<polygon points="133.44,66.35 133.44,48.35 144.71,52.46 144.71,70.46" fill="#0c3b24"/>
<polygon points="144.71,70.46 144.71,52.46 155.99,48.35 155.99,66.35" fill="#0a321e"/>
<polygon points="39.47,44.25 50.74,48.35 39.47,52.46 28.19,48.35" fill="#006d32"/>
<polygon points="28.19,66.35 28.19,48.35 39.47,52.46 39.47,70.46" fill="#005f2c"/>
<polygon points="39.47,70.46 39.47,52.46 50.74,48.35 50.74,66.35" fill="#005025"/>
<polygon points="92.09,44.25 103.37,48.35 92.09,52.46 80.81,48.35" fill="#006d32"/>
<polygon points="80.81,66.35 80.81,48.35 92.09,52.46 92.09,70.46" fill="#005f2c"/>
<polygon points="92.09,70.46 92.09,52.46 103.37,48.35 103.37,66.35" fill="#005025"/>
<polygon points="184.18,67.04 195.46,71.14 184.18,75.24 172.90,71.14" fill="#161b22"/>
<polygon points="26.31,59.04 37.59,63.14 26.31,67.24 15.04,63.14" fill="#0e4429"/>
<polygon points="15.04,71.14 15.04,63.14 26.31,67.24 26.31,75.24" fill="#0c3b24"/>
<polygon points="26.31,75.24 26.31,67.24 37.59,63.14 37.59,71.14" fill="#0a321e"/>
<polygon points="52.62,49.04 63.90,53.14 52.62,57.24 41.35,53.14" fill="#0e4429"/>
<polygon points="41.35,71.14 41.35,53.14 52.62,57.24 52.62,75.24" fill="#0c3b24"/>
<polygon points="52.62,75.24 52.62,57.24 63.90,53.14 63.90,71.14" fill="#0a321e"/>
<polygon points="105.25,49.04 116.52,53.14 105.25,57.24 93.97,53.14" fill="#006d32"/>
<polygon points="93.97,71.14 93.97,53.14 105.25,57.24 105.25,75.24" fill="#005f2c"/>
<polygon points="105.25,75.24 105.25,57.24 116.52,53.14 116.52,71.14" fill="#005025"/>
<polygon points="131.56,49.04 142.83,53.14 131.56,57.24 120.28,53.14" fill="#006d32"/>
<polygon points="120.28,71.14 120.28,53.14 131.56,57.24 131.56,75.24" fill="#005f2c"/>
<polygon points="131.56,75.24 131.56,57.24 142.83,53.14 142.83,71.14" fill="#005025"/>
<polygon points="157.87,49.04 169.14,53.14 157.87,57.24 146.59,53.14" fill="#006d32"/>
<polygon points="146.59,71.14 146.59,53.14 157.87,57.24 157.87,75.24" fill="#005f2c"/>
<polygon points="157.87,75.24 157.87,57.24 169.14,53.14 169.14,71.14" fill="#005025"/>
<polygon points="78.93,49.04 90.21,53.14 78.93,57.24 67.66,53.14" fill="#26a641"/>
<polygon points="67.66,71.14 67.66,53.14 78.93,57.24 78.93,75.24" fill="#219239"/>
<polygon points="78.93,75.24 78.93,57.24 90.21,53.14 90.21,71.14" fill="#1c7a30"/>
<polygon points="39.47,71.82 50.74,75.93 39.47,80.03 28.19,75.93" fill="#161b22"/>
<polygon points="197.34,71.82 208.61,75.93 197.34,80.03 186.06,75.93" fill="#161b22"/>
<polygon points="144.71,55.82 155.99,59.93 144.71,64.03 133.44,59.93" fill="#0e4429"/>
<polygon points="133.44,75.93 133.44,59.93 144.71,64.03 144.71,80.03" fill="#0c3b24"/>
<polygon points="144.71,80.03 144.71,64.03 155.99,59.93 155.99,75.93" fill="#0a321e"/>
<polygon points="92.09,53.82 103.37,57.93 92.09,62.03 80.81,57.93" fill="#006d32"/>
<polygon points="80.81,75.93 80.81,57.93 92.09,62.03 92.09,80.03" fill="#005f2c"/>
<polygon points="92.09,80.03 92.09,62.03 103.37,57.93 103.37,75.93" fill="#005025"/>
<polygon points="118.40,53.82 129.68,57.93 118.40,62.03 107.12,57.93" fill="#006d32"/>
<polygon points="107.12,75.93 107.12,57.93 118.40,62.03 118.40,80.03" fill="#005f2c"/>
<polygon points="118.40,80.03 118.40,62.03 129.68,57.93 129.68,75.93" fill="#005025"/>
<polygon points="171.02,53.82 182.30,57.93 171.02,62.03 159.75,57.93" fill="#006d32"/>
<polygon points="159.75,75.93 159.75,57.93 171.02,62.03 171.02,80.03" fill="#005f2c"/>
<polygon points="171.02,80.03 171.02,62.03 182.30,57.93 182.30,75.93" fill="#005025"/>
<polygon points="65.78,53.82 77.05,57.93 65.78,62.03 54.50,57.93" fill="#26a641"/>
<polygon points="54.50,75.93 54.50,57.93 65.78,62.03 65.78,80.03" fill="#219239"/>
<polygon points="65.78,80.03 65.78,62.03 77.05,57.93 77.05,75.93" fill="#1c7a30"/>
<polygon points="52.62,76.61 63.90,80.72 52.62,84.82 41.35,80.72" fill="#161b22"/>
<polygon points="210.49,76.61 221.77,80.72 210.49,84.82 199.21,80.72" fill="#161b22"/>
<polygon points="78.93,58.61 90.21,62.72 78.93,66.82 67.66,62.72" fill="#006d32"/>
<polygon points="67.66,80.72 67.66,62.72 78.93,66.82 78.93,84.82" fill="#005f2c"/>
<polygon points="78.93,84.82 78.93,66.82 90.21,62.72 90.21,80.72" fill="#005025"/>
<polygon points="105.25,58.61 116.52,62.72 105.25,66.82 93.97,62.72" fill="#006d32"/>
<polygon points="93.97,80.72 93.97,62.72 105.25,66.82 105.25,84.82" fill="#005f2c"/>
<polygon points="105.25,84.82 105.25,66.82 116.52,62.72 116.52,80.72" fill="#005025"/>
<polygon points="131.56,58.61 142.83,62.72 131.56,66.82 120.28,62.72" fill="#006d32"/>
<polygon points="120.28,80.72 120.28,62.72 131.56,66.82 131.56,84.82" fill="#005f2c"/>
<polygon points="131.56,84.82 131.56,66.82 142.83,62.72 142.83,80.72" fill="#005025"/>
<polygon points="184.18,58.61 195.46,62.72 184.18,66.82 172.90,62.72" fill="#006d32"/>
<polygon points="172.90,80.72 172.90,62.72 184.18,66.82 184.18,84.82" fill="#005f2c"/>
<polygon points="184.18,84.82 184.18,66.82 195.46,62.72 195.46,80.72" fill="#005025"/>
<polygon points="157.87,58.61 169.14,62.72 157.87,66.82 146.59,62.72" fill="#26a641"/>
<polygon points="146.59,80.72 146.59,62.72 157.87,66.82 157.87,84.82" fill="#219239"/>
<polygon points="157.87,84.82 157.87,66.82 169.14,62.72 169.14,80.72" fill="#1c7a30"/>
<polygon points="65.78,81.40 77.05,85.51 65.78,89.61 54.50,85.51" fill="#161b22"/>
<polygon points="223.65,81.40 234.92,85.51 223.65,89.61 212.37,85.51" fill="#161b22"/>
<polygon points="92.09,65.40 103.37,69.51 92.09,73.61 80.81,69.51" fill="#0e4429"/>
<polygon points="80.81,85.51 80.81,69.51 92.09,73.61 92.09,89.61" fill="#0c3b24"/>
<polygon points="92.09,89.61 92.09,73.61 103.37,69.51 103.37,85.51" fill="#0a321e"/>
<polygon points="118.40,64.40 129.68,68.51 118.40,72.61 107.12,68.51" fill="#0e4429"/>
<polygon points="107.12,85.51 107.12,68.51 118.40,72.61 118.40,89.61" fill="#0c3b24"/>
<polygon points="118.40,89.61 118.40,72.61 129.68,68.51 129.68,85.51" fill="#0a321e"/>
<polygon points="144.71,63.40 155.99,67.51 144.71,71.61 133.44,67.51" fill="#006d32"/>
<polygon points="133.44,85.51 133.44,67.51 144.71,71.61 144.71,89.61" fill="#005f2c"/>
<polygon points="144.71,89.61 144.71,71.61 155.99,67.51 155.99,85.51" fill="#005025"/>
<polygon points="171.02,63.40 182.30,67.51 171.02,71.61 159.75,67.51" fill="#006d32"/>
<polygon points="159.75,85.51 159.75,67.51 171.02,71.61 171.02,89.61" fill="#005f2c"/>
<polygon points="171.02,89.61 171.02,71.61 182.30,67.51 182.30,85.51" fill="#005025"/>
<polygon points="197.34,63.40 208.61,67.51 197.34,71.61 186.06,67.51" fill="#006d32"/>
<polygon points="186.06,85.51 186.06,67.51 197.34,71.61 197.34,89.61" fill="#005f2c"/>
<polygon points="197.34,89.61 197.34,71.61 208.61,67.51 208.61,85.51" fill="#005025"/>
<polygon points="78.93,86.19 90.21,90.29 78.93,94.40 67.66,90.29" fill="#161b22"/>
<polygon points="236.80,86.19 248.08,90.29 236.80,94.40 225.53,90.29" fill="#161b22"/>
<polygon points="105.25,68.19 116.52,72.29 105.25,76.40 93.97,72.29" fill="#0e4429"/>
<polygon points="93.97,90.29 93.97,72.29 105.25,76.40 105.25,94.40" fill="#0c3b24"/>
<polygon points="105.25,94.40 105.25,76.40 116.52,72.29 116.52,90.29" fill="#0a321e"/>
<polygon points="210.49,72.19 221.77,76.29 210.49,80.40 199.21,76.29" fill="#0e4429"/>
<polygon points="199.21,90.29 199.21,76.29 210.49,80.40 210.49,94.40" fill="#0c3b24"/>
<polygon points="210.49,94.40 210.49,80.40 221.77,76.29 221.77,90.29" fill="#0a321e"/>
<polygon points="131.56,68.19 142.83,72.29 131.56,76.40 120.28,72.29" fill="#006d32"/>
<polygon points="120.28,90.29 120.28,72.29 131.56,76.40 131.56,94.40" fill="#005f2c"/>
<polygon points="131.56,94.40 131.56,76.40 142.83,72.29 142.83,90.29" fill="#005025"/>
<polygon points="157.87,68.19 169.14,72.29 157.87,76.40 146.59,72.29" fill="#006d32"/>
<polygon points="146.59,90.29 146.59,72.29 157.87,76.40 157.87,94.40" fill="#005f2c"/>
<polygon points="157.87,94.40 157.87,76.40 169.14,72.29 169.14,90.29" fill="#005025"/>
<polygon points="184.18,68.19 195.46,72.29 184.18,76.40 172.90,72.29" fill="#006d32"/>
<polygon points="172.90,90.29 172.90,72.29 184.18,76.40 184.18,94.40" fill="#005f2c"/>
<polygon points="184.18,94.40 184.18,76.40 195.46,72.29 195.46,90.29" fill="#005025"/>
<polygon points="92.09,72.98 103.37,77.08 92.09,81.19 80.81,77.08" fill="#0e4429"/>
<polygon points="80.81,95.08 80.81,77.08 92.09,81.19 92.09,99.19" fill="#0c3b24"/>
<polygon points="92.09,99.19 92.09,81.19 103.37,77.08 103.37,95.08" fill="#0a321e"/>
<polygon points="197.34,76.98 208.61,81.08 197.34,85.19 186.06,81.08" fill="#0e4429"/>
<polygon points="186.06,95.08 186.06,81.08 197.34,85.19 197.34,99.19" fill="#0c3b24"/>
<polygon points="197.34,99.19 197.34,85.19 208.61,81.08 208.61,95.08" fill="#0a321e"/>
<polygon points="223.65,73.98 234.92,78.08 223.65,82.19 212.37,78.08" fill="#0e4429"/>
<polygon points="212.37,95.08 212.37,78.08 223.65,82.19 223.65,99.19" fill="#0c3b24"/>
<polygon points="223.65,99.19 223.65,82.19 234.92,78.08 234.92,95.08" fill="#0a321e"/>
<polygon points="249.96,82.98 261.23,87.08 249.96,91.19 238.68,87.08" fill="#0e4429"/>
<polygon points="238.68,95.08 238.68,87.08 249.96,91.19 249.96,99.19" fill="#0c3b24"/>
<polygon points="249.96,99.19 249.96,91.19 261.23,87.08 261.23,95.08" fill="#0a321e"/>
<polygon points="118.40,72.98 129.68,77.08 118.40,81.19 107.12,77.08" fill="#006d32"/>
<polygon points="107.12,95.08 107.12,77.08 118.40,81.19 118.40,99.19" fill="#005f2c"/>
<polygon points="118.40,99.19 118.40,81.19 129.68,77.08 129.68,95.08" fill="#005025"/>
<polygon points="144.71,72.98 155.99,77.08 144.71,81.19 133.44,77.08" fill="#006d32"/>
<polygon points="133.44,95.08 133.44,77.08 144.71,81.19 144.71,99.19" fill="#005f2c"/>
<polygon points="144.71,99.19 144.71,81.19 155.99,77.08 155.99,95.08" fill="#005025"/>
<polygon points="171.02,72.98 182.30,77.08 171.02,81.19 159.75,77.08" fill="#26a641"/>
<polygon points="159.75,95.08 159.75,77.08 171.02,81.19 171.02,99.19" fill="#219239"/>
<polygon points="171.02,99.19 171.02,81.19 182.30,77.08 182.30,95.08" fill="#1c7a30"/>
<polygon points="105.25,95.77 116.52,99.87 105.25,103.97 93.97,99.87" fill="#161b22"/>
<polygon points="263.11,95.77 274.39,99.87 263.11,103.97 251.84,99.87" fill="#161b22"/>
<polygon points="184.18,77.77 195.46,81.87 184.18,85.97 172.90,81.87" fill="#0e4429"/>
<polygon points="172.90,99.87 172.90,81.87 184.18,85.97 184.18,103.97" fill="#0c3b24"/>
<polygon points="184.18,103.97 184.18,85.97 195.46,81.87 195.46,99.87" fill="#0a321e"/>
<polygon points="236.80,84.77 248.08,88.87 236.80,92.97 225.53,88.87" fill="#0e4429"/>
<polygon points="225.53,99.87 225.53,88.87 236.80,92.97 236.80,103.97" fill="#0c3b24"/>
<polygon points="236.80,103.97 236.80,92.97 248.08,88.87 248.08,99.87" fill="#0a321e"/>
<polygon points="131.56,77.77 142.83,81.87 131.56,85.97 120.28,81.87" fill="#006d32"/>
<polygon points="120.28,99.87 120.28,81.87 131.56,85.97 131.56,103.97" fill="#005f2c"/>
<polygon points="131.56,103.97 131.56,85.97 142.83,81.87 142.83,99.87" fill="#005025"/>
<polygon points="157.87,77.77 169.14,81.87 157.87,85.97 146.59,81.87" fill="#006d32"/>
<polygon points="146.59,99.87 146.59,81.87 157.87,85.97 157.87,103.97" fill="#005f2c"/>
<polygon points="157.87,103.97 157.87,85.97 169.14,81.87 169.14,99.87" fill="#005025"/>
<polygon points="210.49,77.77 221.77,81.87 210.49,85.97 199.21,81.87" fill="#006d32"/>
<polygon points="199.21,99.87 199.21,81.87 210.49,85.97 210.49,103.97" fill="#005f2c"/>
<polygon points="210.49,103.97 210.49,85.97 221.77,81.87 221.77,99.87" fill="#005025"/>
<polygon points="118.40,100.55 129.68,104.66 118.40,108.76 107.12,104.66" fill="#161b22"/>
<polygon points="144.71,100.55 155.99,104.66 144.71,108.76 133.44,104.66" fill="#161b22"/>
<polygon points="249.96,100.55 261.23,104.66 249.96,108.76 238.68,104.66" fill="#161b22"/>
<polygon points="171.02,84.55 182.30,88.66 171.02,92.76 159.75,88.66" fill="#0e4429"/>
<polygon points="159.75,104.66 159.75,88.66 171.02,92.76 171.02,108.76" fill="#0c3b24"/>
<polygon points="171.02,108.76 171.02,92.76 182.30,88.66 182.30,104.66" fill="#0a321e"/>
<polygon points="197.34,92.55 208.61,96.66 197.34,100.76 186.06,96.66" fill="#0e4429"/>
<polygon points="186.06,104.66 186.06,96.66 197.34,100.76 197.34,108.76" fill="#0c3b24"/>
<polygon points="197.34,108.76 197.34,100.76 208.61,96.66 208.61,104.66" fill="#0a321e"/>
<polygon points="223.65,82.55 234.92,86.66 223.65,90.76 212.37,86.66" fill="#0e4429"/>
<polygon points="212.37,104.66 212.37,86.66 223.65,90.76 223.65,108.76" fill="#0c3b24"/>
<polygon points="223.65,108.76 223.65,90.76 234.92,86.66 234.92,104.66" fill="#0a321e"/>
<polygon points="276.27,92.55 287.55,96.66 276.27,100.76 264.99,96.66" fill="#0e4429"/>
<polygon points="264.99,104.66 264.99,96.66 276.27,100.76 276.27,108.76" fill="#0c3b24"/>
<polygon points="276.27,108.76 276.27,100.76 287.55,96.66 287.55,104.66" fill="#0a321e"/>
<polygon points="131.56,105.34 142.83,109.45 131.56,113.55 120.28,109.45" fill="#161b22"/>
<polygon points="157.87,105.34 169.14,109.45 157.87,113.55 146.59,109.45" fill="#161b22"/>
<polygon points="263.11,105.34 274.39,109.45 263.11,113.55 251.84,109.45" fill="#161b22"/>
<polygon points="184.18,88.34 195.46,92.45 184.18,96.55 172.90,92.45" fill="#0e4429"/>
<polygon points="172.90,109.45 172.90,92.45 184.18,96.55 184.18,113.55" fill="#0c3b24"/>
<polygon points="184.18,113.55 184.18,96.55 195.46,92.45 195.46,109.45" fill="#0a321e"/>
<polygon points="210.49,89.34 221.77,93.45 210.49,97.55 199.21,93.45" fill="#0e4429"/>
<polygon points="199.21,109.45 199.21,93.45 210.49,97.55 210.49,113.55" fill="#0c3b24"/>
<polygon points="210.49,113.55 210.49,97.55 221.77,93.45 221.77,109.45" fill="#0a321e"/>
<polygon points="236.80,92.34 248.08,96.45 236.80,100.55 225.53,96.45" fill="#0e4429"/>
<polygon points="225.53,109.45 225.53,96.45 236.80,100.55 236.80,113.55" fill="#0c3b24"/>
<polygon points="236.80,113.55 236.80,100.55 248.08,96.45 248.08,109.45" fill="#0a321e"/>
<polygon points="289.43,87.34 300.70,91.45 289.43,95.55 278.15,91.45" fill="#26a641"/>
<polygon points="278.15,109.45 278.15,91.45 289.43,95.55 289.43,113.55" fill="#219239"/>
<polygon points="289.43,113.55 289.43,95.55 300.70,91.45 300.70,109.45" fill="#1c7a30"/>
<polygon points="302.58,110.13 313.86,114.23 302.58,118.34 291.30,114.23" fill="#161b22"/>
<polygon points="144.71,94.13 155.99,98.23 144.71,102.34 133.44,98.23" fill="#0e4429"/>
<polygon points="133.44,114.23 133.44,98.23 144.71,102.34 144.71,118.34" fill="#0c3b24"/>
<polygon points="144.71,118.34 144.71,102.34 155.99,98.23 155.99,114.23" fill="#0a321e"/>
<polygon points="171.02,96.13 182.30,100.23 171.02,104.34 159.75,100.23" fill="#0e4429"/>
<polygon points="159.75,114.23 159.75,100.23 171.02,104.34 171.02,118.34" fill="#0c3b24"/>
<polygon points="171.02,118.34 171.02,104.34 182.30,100.23 182.30,114.23" fill="#0a321e"/>
<polygon points="197.34,94.13 208.61,98.23 197.34,102.34 186.06,98.23" fill="#0e4429"/>
<polygon points="186.06,114.23 186.06,98.23 197.34,102.34 197.34,118.34" fill="#0c3b24"/>
<polygon points="197.34,118.34 197.34,102.34 208.61,98.23 208.61,114.23" fill="#0a321e"/>
<polygon points="223.65,94.13 234.92,98.23 223.65,102.34 212.37,98.23" fill="#0e4429"/>
<polygon points="212.37,114.23 212.37,98.23 223.65,102.34 223.65,118.34" fill="#0c3b24"/>
<polygon points="223.65,118.34 223.65,102.34 234.92,98.23 234.92,114.23" fill="#0a321e"/>
<polygon points="249.96,93.13 261.23,97.23 249.96,101.34 238.68,97.23" fill="#0e4429"/>
<polygon points="238.68,114.23 238.68,97.23 249.96,101.34 249.96,118.34" fill="#0c3b24"/>
<polygon points="249.96,118.34 249.96,101.34 261.23,97.23 261.23,114.23" fill="#0a321e"/>
<polygon points="276.27,92.13 287.55,96.23 276.27,100.34 264.99,96.23" fill="#006d32"/>
<polygon points="264.99,114.23 264.99,96.23 276.27,100.34 276.27,118.34" fill="#005f2c"/>
<polygon points="276.27,118.34 276.27,100.34 287.55,96.23 287.55,114.23" fill="#005025"/>
<polygon points="184.18,114.92 195.46,119.02 184.18,123.13 172.90,119.02" fill="#161b22"/>
<polygon points="157.87,101.92 169.14,106.02 157.87,110.13 146.59,106.02" fill="#0e4429"/>
<polygon points="146.59,119.02 146.59,106.02 157.87,110.13 157.87,123.13" fill="#0c3b24"/>
<polygon points="157.87,123.13 157.87,110.13 169.14,106.02 169.14,119.02" fill="#0a321e"/>
<polygon points="210.49,99.92 221.77,104.02 210.49,108.13 199.21,104.02" fill="#0e4429"/>
<polygon points="199.21,119.02 199.21,104.02 210.49,108.13 210.49,123.13" fill="#0c3b24"/>
<polygon points="210.49,123.13 210.49,108.13 221.77,104.02 221.77,119.02" fill="#0a321e"/>
<polygon points="236.80,96.92 248.08,101.02 236.80,105.13 225.53,101.02" fill="#0e4429"/>
<polygon points="225.53,119.02 225.53,101.02 236.80,105.13 236.80,123.13" fill="#0c3b24"/>
<polygon points="236.80,123.13 236.80,105.13 248.08,101.02 248.08,119.02" fill="#0a321e"/>
<polygon points="289.43,106.92 300.70,111.02 289.43,115.13 278.15,111.02" fill="#0e4429"/>
<polygon points="278.15,119.02 278.15,111.02 289.43,115.13 289.43,123.13" fill="#0c3b24"/>
<polygon points="289.43,123.13 289.43,115.13 300.70,111.02 300.70,119.02" fill="#0a321e"/>
<polygon points="315.74,103.92 327.01,108.02 315.74,112.13 304.46,108.02" fill="#0e4429"/>
<polygon points="304.46,119.02 304.46,108.02 315.74,112.13 315.74,123.13" fill="#0c3b24"/>
<polygon points="315.74,123.13 315.74,112.13 327.01,108.02 327.01,119.02" fill="#0a321e"/>
<polygon points="263.11,96.92 274.39,101.02 263.11,105.13 251.84,101.02" fill="#006d32"/>
<polygon points="251.84,119.02 251.84,101.02 263.11,105.13 263.11,123.13" fill="#005f2c"/>
<polygon points="263.11,123.13 263.11,105.13 274.39,101.02 274.39,119.02" fill="#005025"/>
<polygon points="171.02,119.71 182.30,123.81 171.02,127.92 159.75,123.81" fill="#161b22"/>
<polygon points="276.27,119.71 287.55,123.81 276.27,127.92 264.99,123.81" fill="#161b22"/>
<polygon points="328.89,119.71 340.17,123.81 328.89,127.92 317.62,123.81" fill="#161b22"/>
<polygon points="197.34,111.71 208.61,115.81 197.34,119.92 186.06,115.81" fill="#0e4429"/>
<polygon points="186.06,123.81 186.06,115.81 197.34,119.92 197.34,127.92" fill="#0c3b24"/>
<polygon points="197.34,127.92 197.34,119.92 208.61,115.81 208.61,123.81" fill="#0a321e"/>
<polygon points="223.65,103.71 234.92,107.81 223.65,111.92 212.37,107.81" fill="#0e4429"/>
<polygon points="212.37,123.81 212.37,107.81 223.65,111.92 223.65,127.92" fill="#0c3b24"/>
<polygon points="223.65,127.92 223.65,111.92 234.92,107.81 234.92,123.81" fill="#0a321e"/>
<polygon points="249.96,103.71 261.23,107.81 249.96,111.92 238.68,107.81" fill="#0e4429"/>
<polygon points="238.68,123.81 238.68,107.81 249.96,111.92 249.96,127.92" fill="#0c3b24"/>
<polygon points="249.96,127.92 249.96,111.92 261.23,107.81 261.23,123.81" fill="#0a321e"/>
<polygon points="302.58,104.71 313.86,108.81 302.58,112.92 291.30,108.81" fill="#0e4429"/>
<polygon points="291.30,123.81 291.30,108.81 302.58,112.92 302.58,127.92" fill="#0c3b24"/>
<polygon points="302.58,127.92 302.58,112.92 313.86,108.81 313.86,123.81" fill="#0a321e"/>
<polygon points="342.05,124.50 353.32,128.60 342.05,132.70 330.77,128.60" fill="#161b22"/>
<polygon points="184.18,111.50 195.46,115.60 184.18,119.70 172.90,115.60" fill="#0e4429"/>
<polygon points="172.90,128.60 172.90,115.60 184.18,119.70 184.18,132.70" fill="#0c3b24"/>
<polygon points="184.18,132.70 184.18,119.70 195.46,115.60 195.46,128.60" fill="#0a321e"/>
<polygon points="210.49,111.50 221.77,115.60 210.49,119.70 199.21,115.60" fill="#0e4429"/>
<polygon points="199.21,128.60 199.21,115.60 210.49,119.70 210.49,132.70" fill="#0c3b24"/>
<polygon points="210.49,132.70 210.49,119.70 221.77,115.60 221.77,128.60" fill="#0a321e"/>
<polygon points="263.11,111.50 274.39,115.60 263.11,119.70 251.84,115.60" fill="#0e4429"/>
<polygon points="251.84,128.60 251.84,115.60 263.11,119.70 263.11,132.70" fill="#0c3b24"/>
<polygon points="263.11,132.70 263.11,119.70 274.39,115.60 274.39,128.60" fill="#0a321e"/>
<polygon points="289.43,113.50 300.70,117.60 289.43,121.70 278.15,117.60" fill="#0e4429"/>
<polygon points="278.15,128.60 278.15,117.60 289.43,121.70 289.43,132.70" fill="#0c3b24"/>
<polygon points="289.43,132.70 289.43,121.70 300.70,117.60 300.70,128.60" fill="#0a321e"/>
<polygon points="315.74,110.50 327.01,114.60 315.74,118.70 304.46,114.60" fill="#0e4429"/>
<polygon points="304.46,128.60 304.46,114.60 315.74,118.70 315.74,132.70" fill="#0c3b24"/>
<polygon points="315.74,132.70 315.74,118.70 327.01,114.60 327.01,128.60" fill="#0a321e"/>
<polygon points="236.80,106.50 248.08,110.60 236.80,114.70 225.53,110.60" fill="#006d32"/>
<polygon points="225.53,128.60 225.53,110.60 236.80,114.70 236.80,132.70" fill="#005f2c"/>
<polygon points="236.80,132.70 236.80,114.70 248.08,110.60 248.08,128.60" fill="#005025"/>
<polygon points="302.58,129.28 313.86,133.39 302.58,137.49 291.30,133.39" fill="#161b22"/>
<polygon points="355.20,129.28 366.48,133.39 355.20,137.49 343.93,133.39" fill="#161b22"/>
<polygon points="197.34,116.28 208.61,120.39 197.34,124.49 186.06,120.39" fill="#0e4429"/>
<polygon points="186.06,133.39 186.06,120.39 197.34,124.49 197.34,137.49" fill="#0c3b24"/>
<polygon points="197.34,137.49 197.34,124.49 208.61,120.39 208.61,133.39" fill="#0a321e"/>
<polygon points="249.96,118.28 261.23,122.39 249.96,126.49 238.68,122.39" fill="#0e4429"/>
<polygon points="238.68,133.39 238.68,122.39 249.96,126.49 249.96,137.49" fill="#0c3b24"/>
<polygon points="249.96,137.49 249.96,126.49 261.23,122.39 261.23,133.39" fill="#0a321e"/>
<polygon points="276.27,113.28 287.55,117.39 276.27,121.49 264.99,117.39" fill="#0e4429"/>
<polygon points="264.99,133.39 264.99,117.39 276.27,121.49 276.27,137.49" fill="#0c3b24"/>
<polygon points="276.27,137.49 276.27,121.49 287.55,117.39 287.55,133.39" fill="#0a321e"/>
<polygon points="328.89,116.28 340.17,120.39 328.89,124.49 317.62,120.39" fill="#0e4429"/>
<polygon points="317.62,133.39 317.62,120.39 328.89,124.49 328.89,137.49" fill="#0c3b24"/>
<polygon points="328.89,137.49 328.89,124.49 340.17,120.39 340.17,133.39" fill="#0a321e"/>
<polygon points="223.65,111.28 234.92,115.39 223.65,119.49 212.37,115.39" fill="#006d32"/>
<polygon points="212.37,133.39 212.37,115.39 223.65,119.49 223.65,137.49" fill="#005f2c"/>
<polygon points="223.65,137.49 223.65,119.49 234.92,115.39 234.92,133.39" fill="#005025"/>
<polygon points="210.49,134.07 221.77,138.18 210.49,142.28 199.21,138.18" fill="#161b22"/>
<polygon points="263.11,134.07 274.39,138.18 263.11,142.28 251.84,138.18" fill="#161b22"/>
<polygon points="342.05,134.07 353.32,138.18 342.05,142.28 330.77,138.18" fill="#161b22"/>
<polygon points="368.36,134.07 379.64,138.18 368.36,142.28 357.08,138.18" fill="#161b22"/>
<polygon points="236.80,126.07 248.08,130.18 236.80,134.28 225.53,130.18" fill="#0e4429"/>
<polygon points="225.53,138.18 225.53,130.18 236.80,134.28 236.80,142.28" fill="#0c3b24"/>
<polygon points="236.80,142.28 236.80,134.28 248.08,130.18 248.08,138.18" fill="#0a321e"/>
<polygon points="289.43,123.07 300.70,127.18 289.43,131.28 278.15,127.18" fill="#0e4429"/>
<polygon points="278.15,138.18 278.15,127.18 289.43,131.28 289.43,142.28" fill="#0c3b24"/>
<polygon points="289.43,142.28 289.43,131.28 300.70,127.18 300.70,138.18" fill="#0a321e"/>
<polygon points="315.74,118.07 327.01,122.18 315.74,126.28 304.46,122.18" fill="#0e4429"/>
<polygon points="304.46,138.18 304.46,122.18 315.74,126.28 315.74,142.28" fill="#0c3b24"/>
<polygon points="315.74,142.28 315.74,126.28 327.01,122.18 327.01,138.18" fill="#0a321e"/>
<polygon points="381.52,138.86 392.79,142.96 381.52,147.07 370.24,142.96" fill="#161b22"/>
<polygon points="223.65,127.86 234.92,131.96 223.65,136.07 212.37,131.96" fill="#0e4429"/>
<polygon points="212.37,142.96 212.37,131.96 223.65,136.07 223.65,147.07" fill="#0c3b24"/>
<polygon points="223.65,147.07 223.65,136.07 234.92,131.96 234.92,142.96" fill="#0a321e"/>
<polygon points="249.96,130.86 261.23,134.96 249.96,139.07 238.68,134.96" fill="#0e4429"/>
<polygon points="238.68,142.96 238.68,134.96 249.96,139.07 249.96,147.07" fill="#0c3b24"/>
<polygon points="249.96,147.07 249.96,139.07 261.23,134.96 261.23,142.96" fill="#0a321e"/>
<polygon points="276.27,121.86 287.55,125.96 276.27,130.07 264.99,125.96" fill="#0e4429"/>
<polygon points="264.99,142.96 264.99,125.96 276.27,130.07 276.27,147.07" fill="#0c3b24"/>
<polygon points="276.27,147.07 276.27,130.07 287.55,125.96 287.55,142.96" fill="#0a321e"/>
<polygon points="302.58,120.86 313.86,124.96 302.58,129.07 291.30,124.96" fill="#0e4429"/>
<polygon points="291.30,142.96 291.30,124.96 302.58,129.07 302.58,147.07" fill="#0c3b24"/>
<polygon points="302.58,147.07 302.58,129.07 313.86,124.96 313.86,142.96" fill="#0a321e"/>
<polygon points="355.20,120.86 366.48,124.96 355.20,129.07 343.93,124.96" fill="#0e4429"/>
<polygon points="343.93,142.96 343.93,124.96 355.20,129.07 355.20,147.07" fill="#0c3b24"/>
<polygon points="355.20,147.07 355.20,129.07 366.48,124.96 366.48,142.96" fill="#0a321e"/>
<polygon points="328.89,120.86 340.17,124.96 328.89,129.07 317.62,124.96" fill="#006d32"/>
<polygon points="317.62,142.96 317.62,124.96 328.89,129.07 328.89,147.07" fill="#005f2c"/>
<polygon points="328.89,147.07 328.89,129.07 340.17,124.96 340.17,142.96" fill="#005025"/>
<polygon points="394.67,143.65 405.95,147.75 394.67,151.86 383.39,147.75" fill="#161b22"/>
<polygon points="236.80,127.65 248.08,131.75 236.80,135.86 225.53,131.75" fill="#0e4429"/>
<polygon points="225.53,147.75 225.53,131.75 236.80,135.86 236.80,151.86" fill="#0c3b24"/>
<polygon points="236.80,151.86 236.80,135.86 248.08,131.75 248.08,147.75" fill="#0a321e"/>
<polygon points="263.11,132.65 274.39,136.75 263.11,140.86 251.84,136.75" fill="#0e4429"/>
<polygon points="251.84,147.75 251.84,136.75 263.11,140.86 263.11,151.86" fill="#0c3b24"/>
<polygon points="263.11,151.86 263.11,140.86 274.39,136.75 274.39,147.75" fill="#0a321e"/>
<polygon points="289.43,126.65 300.70,130.75 289.43,134.86 278.15,130.75" fill="#0e4429"/>
<polygon points="278.15,147.75 278.15,130.75 289.43,134.86 289.43,151.86" fill="#0c3b24"/>
<polygon points="289.43,151.86 289.43,134.86 300.70,130.75 300.70,147.75" fill="#0a321e"/>
<polygon points="315.74,132.65 327.01,136.75 315.74,140.86 304.46,136.75" fill="#0e4429"/>
<polygon points="304.46,147.75 304.46,136.75 315.74,140.86 315.74,151.86" fill="#0c3b24"/>
<polygon points="315.74,151.86 315.74,140.86 327.01,136.75 327.01,147.75" fill="#0a321e"/>
<polygon points="342.05,126.65 353.32,130.75 342.05,134.86 330.77,130.75" fill="#0e4429"/>
<polygon points="330.77,147.75 330.77,130.75 342.05,134.86 342.05,151.86" fill="#0c3b24"/>
<polygon points="342.05,151.86 342.05,134.86 353.32,130.75 353.32,147.75" fill="#0a321e"/>
<polygon points="368.36,132.65 379.64,136.75 368.36,140.86 357.08,136.75" fill="#0e4429"/>
<polygon points="357.08,147.75 357.08,136.75 368.36,140.86 368.36,151.86" fill="#0c3b24"/>
<polygon points="368.36,151.86 368.36,140.86 379.64,136.75 379.64,147.75" fill="#0a321e"/>
<polygon points="249.96,148.44 261.23,152.54 249.96,156.65 238.68,152.54" fill="#161b22"/>
<polygon points="276.27,148.44 287.55,152.54 276.27,156.65 264.99,152.54" fill="#161b22"/>
<polygon points="407.83,148.44 419.10,152.54 407.83,156.65 396.55,152.54" fill="#161b22"/>
<polygon points="302.58,131.44 313.86,135.54 302.58,139.65 291.30,135.54" fill="#0e4429"/>
<polygon points="291.30,152.54 291.30,135.54 302.58,139.65 302.58,156.65" fill="#0c3b24"/>
<polygon points="302.58,156.65 302.58,139.65 313.86,135.54 313.86,152.54" fill="#0a321e"/>
<polygon points="328.89,134.44 340.17,138.54 328.89,142.65 317.62,138.54" fill="#0e4429"/>
<polygon points="317.62,152.54 317.62,138.54 328.89,142.65 328.89,156.65" fill="#0c3b24"/>
<polygon points="328.89,156.65 328.89,142.65 340.17,138.54 340.17,152.54" fill="#0a321e"/>
<polygon points="355.20,130.44 366.48,134.54 355.20,138.65 343.93,134.54" fill="#0e4429"/>
<polygon points="343.93,152.54 343.93,134.54 355.20,138.65 355.20,156.65" fill="#0c3b24"/>
<polygon points="355.20,156.65 355.20,138.65 366.48,134.54 366.48,152.54" fill="#0a321e"/>
<polygon points="381.52,132.44 392.79,136.54 381.52,140.65 370.24,136.54" fill="#0e4429"/>
<polygon points="370.24,152.54 370.24,136.54 381.52,140.65 381.52,156.65" fill="#0c3b24"/>
<polygon points="381.52,156.65 381.52,140.65 392.79,136.54 392.79,152.54" fill="#0a321e"/>
<polygon points="263.11,153.23 274.39,157.33 263.11,161.43 251.84,157.33" fill="#161b22"/>
<polygon points="420.98,153.23 432.26,157.33 420.98,161.43 409.71,157.33" fill="#161b22"/>
<polygon points="289.43,139.23 300.70,143.33 289.43,147.43 278.15,143.33" fill="#0e4429"/>
<polygon points="278.15,157.33 278.15,143.33 289.43,147.43 289.43,161.43" fill="#0c3b24"/>
<polygon points="289.43,161.43 289.43,147.43 300.70,143.33 300.70,157.33" fill="#0a321e"/>
<polygon points="315.74,140.23 327.01,144.33 315.74,148.43 304.46,144.33" fill="#0e4429"/>
<polygon points="304.46,157.33 304.46,144.33 315.74,148.43 315.74,161.43" fill="#0c3b24"/>
<polygon points="315.74,161.43 315.74,148.43 327.01,144.33 327.01,157.33" fill="#0a321e"/>
<polygon points="342.05,135.23 353.32,139.33 342.05,143.43 330.77,139.33" fill="#0e4429"/>
<polygon points="330.77,157.33 330.77,139.33 342.05,143.43 342.05,161.43" fill="#0c3b24"/>
<polygon points="342.05,161.43 342.05,143.43 353.32,139.33 353.32,157.33" fill="#0a321e"/>
<polygon points="368.36,137.23 379.64,141.33 368.36,145.43 357.08,141.33" fill="#0e4429"/>
<polygon points="357.08,157.33 357.08,141.33 368.36,145.43 368.36,161.43" fill="#0c3b24"/>
<polygon points="368.36,161.43 368.36,145.43 379.64,141.33 379.64,157.33" fill="#0a321e"/>
<polygon points="394.67,137.23 405.95,141.33 394.67,145.43 383.39,141.33" fill="#0e4429"/>
<polygon points="383.39,157.33 383.39,141.33 394.67,145.43 394.67,161.43" fill="#0c3b24"/>
<polygon points="394.67,161.43 394.67,145.43 405.95,141.33 405.95,157.33" fill="#0a321e"/>
<polygon points="276.27,158.01 287.55,162.12 276.27,166.22 264.99,162.12" fill="#161b22"/>
<polygon points="434.14,158.01 445.41,162.12 434.14,166.22 422.86,162.12" fill="#161b22"/>
<polygon points="302.58,142.01 313.86,146.12 302.58,150.22 291.30,146.12" fill="#0e4429"/>
<polygon points="291.30,162.12 291.30,146.12 302.58,150.22 302.58,166.22" fill="#0c3b24"/>
<polygon points="302.58,166.22 302.58,150.22 313.86,146.12 313.86,162.12" fill="#0a321e"/>
<polygon points="328.89,143.01 340.17,147.12 328.89,151.22 317.62,147.12" fill="#0e4429"/>
<polygon points="317.62,162.12 317.62,147.12 328.89,151.22 328.89,166.22" fill="#0c3b24"/>
<polygon points="328.89,166.22 328.89,151.22 340.17,147.12 340.17,162.12" fill="#0a321e"/>
<polygon points="355.20,142.01 366.48,146.12 355.20,150.22 343.93,146.12" fill="#0e4429"/>
<polygon points="343.93,162.12 343.93,146.12 355.20,150.22 355.20,166.22" fill="#0c3b24"/>
<polygon points="355.20,166.22 355.20,150.22 366.48,146.12 366.48,162.12" fill="#0a321e"/>
<polygon points="381.52,140.01 392.79,144.12 381.52,148.22 370.24,144.12" fill="#0e4429"/>
<polygon points="370.24,162.12 370.24,144.12 381.52,148.22 381.52,166.22" fill="#0c3b24"/>
<polygon points="381.52,166.22 381.52,148.22 392.79,144.12 392.79,162.12" fill="#0a321e"/>
<polygon points="407.83,140.01 419.10,144.12 407.83,148.22 396.55,144.12" fill="#006d32"/>
<polygon points="396.55,162.12 396.55,144.12 407.83,148.22 407.83,166.22" fill="#005f2c"/>
<polygon points="407.83,166.22 407.83,148.22 419.10,144.12 419.10,162.12" fill="#005025"/>
<polygon points="289.43,162.80 300.70,166.91 289.43,171.01 278.15,166.91" fill="#161b22"/>
<polygon points="447.29,162.80 458.57,166.91 447.29,171.01 436.02,166.91" fill="#161b22"/>
<polygon points="315.74,147.80 327.01,151.91 315.74,156.01 304.46,151.91" fill="#0e4429"/>
<polygon points="304.46,166.91 304.46,151.91 315.74,156.01 315.74,171.01" fill="#0c3b24"/>
<polygon points="315.74,171.01 315.74,156.01 327.01,151.91 327.01,166.91" fill="#0a321e"/>
<polygon points="342.05,144.80 353.32,148.91 342.05,153.01 330.77,148.91" fill="#0e4429"/>
<polygon points="330.77,166.91 330.77,148.91 342.05,153.01 342.05,171.01" fill="#0c3b24"/>
<polygon points="342.05,171.01 342.05,153.01 353.32,148.91 353.32,166.91" fill="#0a321e"/>
<polygon points="368.36,144.80 379.64,148.91 368.36,153.01 357.08,148.91" fill="#0e4429"/>
<polygon points="357.08,166.91 357.08,148.91 368.36,153.01 368.36,171.01" fill="#0c3b24"/>
<polygon points="368.36,171.01 368.36,153.01 379.64,148.91 379.64,166.91" fill="#0a321e"/>
<polygon points="394.67,144.80 405.95,148.91 394.67,153.01 383.39,148.91" fill="#006d32"/>
<polygon points="383.39,166.91 383.39,148.91 394.67,153.01 394.67,171.01" fill="#005f2c"/>
<polygon points="394.67,171.01 394.67,153.01 405.95,148.91 405.95,166.91" fill="#005025"/>
<polygon points="420.98,144.80 432.26,148.91 420.98,153.01 409.71,148.91" fill="#006d32"/>
<polygon points="409.71,166.91 409.71,148.91 420.98,153.01 420.98,171.01" fill="#005f2c"/>
<polygon points="420.98,171.01 420.98,153.01 432.26,148.91 432.26,166.91" fill="#005025"/>
<polygon points="302.58,167.59 313.86,171.69 302.58,175.80 291.30,171.69" fill="#161b22"/>
<polygon points="460.45,167.59 471.73,171.69 460.45,175.80 449.17,171.69" fill="#161b22"/>
<polygon points="328.89,153.59 340.17,157.69 328.89,161.80 317.62,157.69" fill="#0e4429"/>
<polygon points="317.62,171.69 317.62,157.69 328.89,161.80 328.89,175.80" fill="#0c3b24"/>
<polygon points="328.89,175.80 328.89,161.80 340.17,157.69 340.17,171.69" fill="#0a321e"/>
<polygon points="355.20,153.59 366.48,157.69 355.20,161.80 343.93,157.69" fill="#0e4429"/>
<polygon points="343.93,171.69 343.93,157.69 355.20,161.80 355.20,175.80" fill="#0c3b24"/>
<polygon points="355.20,175.80 355.20,161.80 366.48,157.69 366.48,171.69" fill="#0a321e"/>
<polygon points="381.52,151.59 392.79,155.69 381.52,159.80 370.24,155.69" fill="#0e4429"/>
<polygon points="370.24,171.69 370.24,155.69 381.52,159.80 381.52,175.80" fill="#0c3b24"/>
<polygon points="381.52,175.80 381.52,159.80 392.79,155.69 392.79,171.69" fill="#0a321e"/>
<polygon points="407.83,149.59 419.10,153.69 407.83,157.80 396.55,153.69" fill="#0e4429"/>
<polygon points="396.55,171.69 396.55,153.69 407.83,157.80 407.83,175.80" fill="#0c3b24"/>
<polygon points="407.83,175.80 407.83,157.80 419.10,153.69 419.10,171.69" fill="#0a321e"/>
<polygon points="434.14,156.59 445.41,160.69 434.14,164.80 422.86,160.69" fill="#0e4429"/>
<polygon points="422.86,171.69 422.86,160.69 434.14,164.80 434.14,175.80" fill="#0c3b24"/>
<polygon points="434.14,175.80 434.14,164.80 445.41,160.69 445.41,171.69" fill="#0a321e"/>
<polygon points="315.74,172.38 327.01,176.48 315.74,180.59 304.46,176.48" fill="#161b22"/>
<polygon points="368.36,172.38 379.64,176.48 368.36,180.59 357.08,176.48" fill="#161b22"/>
<polygon points="473.61,172.38 484.88,176.48 473.61,180.59 462.33,176.48" fill="#161b22"/>
<polygon points="342.05,161.38 353.32,165.48 342.05,169.59 330.77,165.48" fill="#0e4429"/>
<polygon points="330.77,176.48 330.77,165.48 342.05,169.59 342.05,180.59" fill="#0c3b24"/>
<polygon points="342.05,180.59 342.05,169.59 353.32,165.48 353.32,176.48" fill="#0a321e"/>
<polygon points="394.67,154.38 405.95,158.48 394.67,162.59 383.39,158.48" fill="#0e4429"/>
<polygon points="383.39,176.48 383.39,158.48 394.67,162.59 394.67,180.59" fill="#0c3b24"/>
<polygon points="394.67,180.59 394.67,162.59 405.95,158.48 405.95,176.48" fill="#0a321e"/>
<polygon points="447.29,164.38 458.57,168.48 447.29,172.59 436.02,168.48" fill="#0e4429"/>
<polygon points="436.02,176.48 436.02,168.48 447.29,172.59 447.29,180.59" fill="#0c3b24"/>
<polygon points="447.29,180.59 447.29,172.59 458.57,168.48 458.57,176.48" fill="#0a321e"/>
<polygon points="420.98,154.38 432.26,158.48 420.98,162.59 409.71,158.48" fill="#006d32"/>
<polygon points="409.71,176.48 409.71,158.48 420.98,162.59 420.98,180.59" fill="#005f2c"/>
<polygon points="420.98,180.59 420.98,162.59 432.26,158.48 432.26,176.48" fill="#005025"/>
<polygon points="328.89,177.17 340.17,181.27 328.89,185.37 317.62,181.27" fill="#161b22"/>
<polygon points="355.20,177.17 366.48,181.27 355.20,185.37 343.93,181.27" fill="#161b22"/>
<polygon points="381.52,169.17 392.79,173.27 381.52,177.37 370.24,173.27" fill="#0e4429"/>
<polygon points="370.24,181.27 370.24,173.27 381.52,177.37 381.52,185.37" fill="#0c3b24"/>
<polygon points="381.52,185.37 381.52,177.37 392.79,173.27 392.79,181.27" fill="#0a321e"/>
<polygon points="407.83,159.17 419.10,163.27 407.83,167.37 396.55,163.27" fill="#0e4429"/>
<polygon points="396.55,181.27 396.55,163.27 407.83,167.37 407.83,185.37" fill="#0c3b24"/>
<polygon points="407.83,185.37 407.83,167.37 419.10,163.27 419.10,181.27" fill="#0a321e"/>
<polygon points="434.14,159.17 445.41,163.27 434.14,167.37 422.86,163.27" fill="#0e4429"/>
<polygon points="422.86,181.27 422.86,163.27 434.14,167.37 434.14,185.37" fill="#0c3b24"/>
<polygon points="434.14,185.37 434.14,167.37 445.41,163.27 445.41,181.27" fill="#0a321e"/>
<polygon points="460.45,161.17 471.73,165.27 460.45,169.37 449.17,165.27" fill="#0e4429"/>
<polygon points="449.17,181.27 449.17,165.27 460.45,169.37 460.45,185.37" fill="#0c3b24"/>
<polygon points="460.45,185.37 460.45,169.37 471.73,165.27 471.73,181.27" fill="#0a321e"/>
<polygon points="486.76,159.17 498.04,163.27 486.76,167.37 475.48,163.27" fill="#006d32"/>
<polygon points="475.48,181.27 475.48,163.27 486.76,167.37 486.76,185.37" fill="#005f2c"/>
<polygon points="486.76,185.37 486.76,167.37 498.04,163.27 498.04,181.27" fill="#005025"/>
<polygon points="342.05,181.95 353.32,186.06 342.05,190.16 330.77,186.06" fill="#161b22"/>
<polygon points="368.36,166.95 379.64,171.06 368.36,175.16 357.08,171.06" fill="#0e4429"/>
<polygon points="357.08,186.06 357.08,171.06 368.36,175.16 368.36,190.16" fill="#0c3b24"/>
<polygon points="368.36,190.16 368.36,175.16 379.64,171.06 379.64,186.06" fill="#0a321e"/>
<polygon points="394.67,164.95 405.95,169.06 394.67,173.16 383.39,169.06" fill="#0e4429"/>
<polygon points="383.39,186.06 383.39,169.06 394.67,173.16 394.67,190.16" fill="#0c3b24"/>
<polygon points="394.67,190.16 394.67,173.16 405.95,169.06 405.95,186.06" fill="#0a321e"/>
<polygon points="420.98,170.95 432.26,175.06 420.98,179.16 409.71,175.06" fill="#0e4429"/>
<polygon points="409.71,186.06 409.71,175.06 420.98,179.16 420.98,190.16" fill="#0c3b24"/>
<polygon points="420.98,190.16 420.98,179.16 432.26,175.06 432.26,186.06" fill="#0a321e"/>
<polygon points="447.29,170.95 458.57,175.06 447.29,179.16 436.02,175.06" fill="#0e4429"/>
<polygon points="436.02,186.06 436.02,175.06 447.29,179.16 447.29,190.16" fill="#0c3b24"/>
<polygon points="447.29,190.16 447.29,179.16 458.57,175.06 458.57,186.06" fill="#0a321e"/>
<polygon points="499.92,173.95 511.19,178.06 499.92,182.16 488.64,178.06" fill="#0e4429"/>
<polygon points="488.64,186.06 488.64,178.06 499.92,182.16 499.92,190.16" fill="#0c3b24"/>
<polygon points="499.92,190.16 499.92,182.16 511.19,178.06 511.19,186.06" fill="#0a321e"/>
<polygon points="473.61,163.95 484.88,168.06 473.61,172.16 462.33,168.06" fill="#006d32"/>
<polygon points="462.33,186.06 462.33,168.06 473.61,172.16 473.61,190.16" fill="#005f2c"/>
<polygon points="473.61,190.16 473.61,172.16 484.88,168.06 484.88,186.06" fill="#005025"/>
<polygon points="355.20,186.74 366.48,190.85 355.20,194.95 343.93,190.85" fill="#161b22"/>
<polygon points="486.76,186.74 498.04,190.85 486.76,194.95 475.48,190.85" fill="#161b22"/>
<polygon points="513.07,186.74 524.35,190.85 513.07,194.95 501.80,190.85" fill="#161b22"/>
<polygon points="407.83,175.74 419.10,179.85 407.83,183.95 396.55,179.85" fill="#0e4429"/>
<polygon points="396.55,190.85 396.55,179.85 407.83,183.95 407.83,194.95" fill="#0c3b24"/>
<polygon points="407.83,194.95 407.83,183.95 419.10,179.85 419.10,190.85" fill="#0a321e"/>
<polygon points="381.52,168.74 392.79,172.85 381.52,176.95 370.24,172.85" fill="#006d32"/>
<polygon points="370.24,190.85 370.24,172.85 381.52,176.95 381.52,194.95" fill="#005f2c"/>
<polygon points="381.52,194.95 381.52,176.95 392.79,172.85 392.79,190.85" fill="#005025"/>
<polygon points="434.14,168.74 445.41,172.85 434.14,176.95 422.86,172.85" fill="#006d32"/>
<polygon points="422.86,190.85 422.86,172.85 434.14,176.95 434.14,194.95" fill="#005f2c"/>
<polygon points="434.14,194.95 434.14,176.95 445.41,172.85 445.41,190.85" fill="#005025"/>
<polygon points="460.45,168.74 471.73,172.85 460.45,176.95 449.17,172.85" fill="#006d32"/>
<polygon points="449.17,190.85 449.17,172.85 460.45,176.95 460.45,194.95" fill="#005f2c"/>
<polygon points="460.45,194.95 460.45,176.95 471.73,172.85 471.73,190.85" fill="#005025"/>
<polygon points="368.36,191.53 379.64,195.64 368.36,199.74 357.08,195.64" fill="#161b22"/>
<polygon points="499.92,191.53 511.19,195.64 499.92,199.74 488.64,195.64" fill="#161b22"/>
<polygon points="526.23,191.53 537.50,195.64 526.23,199.74 514.95,195.64" fill="#161b22"/>
<polygon points="420.98,177.53 432.26,181.64 420.98,185.74 409.71,181.64" fill="#0e4429"/>
<polygon points="409.71,195.64 409.71,181.64 420.98,185.74 420.98,199.74" fill="#0c3b24"/>
<polygon points="420.98,199.74 420.98,185.74 432.26,181.64 432.26,195.64" fill="#0a321e"/>
<polygon points="447.29,180.53 458.57,184.64 447.29,188.74 436.02,184.64" fill="#0e4429"/>
<polygon points="436.02,195.64 436.02,184.64 447.29,188.74 447.29,199.74" fill="#0c3b24"/>
<polygon points="447.29,199.74 447.29,188.74 458.57,184.64 458.57,195.64" fill="#0a321e"/>
<polygon points="473.61,178.53 484.88,182.64 473.61,186.74 462.33,182.64" fill="#0e4429"/>
<polygon points="462.33,195.64 462.33,182.64 473.61,186.74 473.61,199.74" fill="#0c3b24"/>
<polygon points="473.61,199.74 473.61,186.74 484.88,182.64 484.88,195.64" fill="#0a321e"/>
<polygon points="394.67,173.53 405.95,177.64 394.67,181.74 383.39,177.64" fill="#006d32"/>
<polygon points="383.39,195.64 383.39,177.64 394.67,181.74 394.67,199.74" fill="#005f2c"/>
<polygon points="394.67,199.74 394.67,181.74 405.95,177.64 405.95,195.64" fill="#005025"/>
<polygon points="381.52,196.32 392.79,200.42 381.52,204.53 370.24,200.42" fill="#161b22"/>
<polygon points="486.76,196.32 498.04,200.42 486.76,204.53 475.48,200.42" fill="#161b22"/>
<polygon points="513.07,196.32 524.35,200.42 513.07,204.53 501.80,200.42" fill="#161b22"/>
<polygon points="407.83,181.32 419.10,185.42 407.83,189.53 396.55,185.42" fill="#0e4429"/>
<polygon points="396.55,200.42 396.55,185.42 407.83,189.53 407.83,204.53" fill="#0c3b24"/>
<polygon points="407.83,204.53 407.83,189.53 419.10,185.42 419.10,200.42" fill="#0a321e"/>
<polygon points="434.14,178.32 445.41,182.42 434.14,186.53 422.86,182.42" fill="#0e4429"/>
<polygon points="422.86,200.42 422.86,182.42 434.14,186.53 434.14,204.53" fill="#0c3b24"/>
<polygon points="434.14,204.53 434.14,186.53 445.41,182.42 445.41,200.42" fill="#0a321e"/>
<polygon points="539.38,185.32 550.66,189.42 539.38,193.53 528.11,189.42" fill="#0e4429"/>
<polygon points="528.11,200.42 528.11,189.42 539.38,193.53 539.38,204.53" fill="#0c3b24"/>
<polygon points="539.38,204.53 539.38,193.53 550.66,189.42 550.66,200.42" fill="#0a321e"/>
<polygon points="460.45,178.32 471.73,182.42 460.45,186.53 449.17,182.42" fill="#006d32"/>
<polygon points="449.17,200.42 449.17,182.42 460.45,186.53 460.45,204.53" fill="#005f2c"/>
<polygon points="460.45,204.53 460.45,186.53 471.73,182.42 471.73,200.42" fill="#005025"/>
<polygon points="394.67,201.11 405.95,205.21 394.67,209.32 383.39,205.21" fill="#161b22"/>
<polygon points="420.98,201.11 432.26,205.21 420.98,209.32 409.71,205.21" fill="#161b22"/>
<polygon points="499.92,201.11 511.19,205.21 499.92,209.32 488.64,205.21" fill="#161b22"/>
<polygon points="526.23,201.11 537.50,205.21 526.23,209.32 514.95,205.21" fill="#161b22"/>
<polygon points="552.54,201.11 563.82,205.21 552.54,209.32 541.26,205.21" fill="#161b22"/>
<polygon points="473.61,185.11 484.88,189.21 473.61,193.32 462.33,189.21" fill="#0e4429"/>
<polygon points="462.33,205.21 462.33,189.21 473.61,193.32 473.61,209.32" fill="#0c3b24"/>
<polygon points="473.61,209.32 473.61,193.32 484.88,189.21 484.88,205.21" fill="#0a321e"/>
<polygon points="447.29,183.11 458.57,187.21 447.29,191.32 436.02,187.21" fill="#006d32"/>
<polygon points="436.02,205.21 436.02,187.21 447.29,191.32 447.29,209.32" fill="#005f2c"/>
<polygon points="447.29,209.32 447.29,191.32 458.57,187.21 458.57,205.21" fill="#005025"/>
<polygon points="407.83,205.90 419.10,210.00 407.83,214.10 396.55,210.00" fill="#161b22"/>
<polygon points="460.45,205.90 471.73,210.00 460.45,214.10 449.17,210.00" fill="#161b22"/>
<polygon points="486.76,205.90 498.04,210.00 486.76,214.10 475.48,210.00" fill="#161b22"/>
<polygon points="539.38,205.90 550.66,210.00 539.38,214.10 528.11,210.00" fill="#161b22"/>
<polygon points="434.14,197.90 445.41,202.00 434.14,206.10 422.86,202.00" fill="#0e4429"/>
<polygon points="422.86,210.00 422.86,202.00 434.14,206.10 434.14,214.10" fill="#0c3b24"/>
<polygon points="434.14,214.10 434.14,206.10 445.41,202.00 445.41,210.00" fill="#0a321e"/>
<polygon points="513.07,194.90 524.35,199.00 513.07,203.10 501.80,199.00" fill="#0e4429"/>
<polygon points="501.80,210.00 501.80,199.00 513.07,203.10 513.07,214.10" fill="#0c3b24"/>
<polygon points="513.07,214.10 513.07,203.10 524.35,199.00 524.35,210.00" fill="#0a321e"/>
<polygon points="565.69,194.90 576.97,199.00 565.69,203.10 554.42,199.00" fill="#0e4429"/>
<polygon points="554.42,210.00 554.42,199.00 565.69,203.10 565.69,214.10" fill="#0c3b24"/>
<polygon points="565.69,214.10 565.69,203.10 576.97,199.00 576.97,210.00" fill="#0a321e"/>
<polygon points="420.98,210.68 432.26,214.79 420.98,218.89 409.71,214.79" fill="#161b22"/>
<polygon points="447.29,210.68 458.57,214.79 447.29,218.89 436.02,214.79" fill="#161b22"/>
<polygon points="473.61,210.68 484.88,214.79 473.61,218.89 462.33,214.79" fill="#161b22"/>
<polygon points="499.92,210.68 511.19,214.79 499.92,218.89 488.64,214.79" fill="#161b22"/>
<polygon points="552.54,210.68 563.82,214.79 552.54,218.89 541.26,214.79" fill="#161b22"/>
<polygon points="578.85,210.68 590.13,214.79 578.85,218.89 567.57,214.79" fill="#161b22"/>
<polygon points="526.23,192.68 537.50,196.79 526.23,200.89 514.95,196.79" fill="#26a641"/>
<polygon points="514.95,214.79 514.95,196.79 526.23,200.89 526.23,218.89" fill="#219239"/>
<polygon points="526.23,218.89 526.23,200.89 537.50,196.79 537.50,214.79" fill="#1c7a30"/>
<polygon points="434.14,215.47 445.41,219.58 434.14,223.68 422.86,219.58" fill="#161b22"/>
<polygon points="460.45,215.47 471.73,219.58 460.45,223.68 449.17,219.58" fill="#161b22"/>
<polygon points="539.38,215.47 550.66,219.58 539.38,223.68 528.11,219.58" fill="#161b22"/>
<polygon points="565.69,215.47 576.97,219.58 565.69,223.68 554.42,219.58" fill="#161b22"/>
<polygon points="592.01,215.47 603.28,219.58 592.01,223.68 580.73,219.58" fill="#161b22"/>
<polygon points="486.76,204.47 498.04,208.58 486.76,212.68 475.48,208.58" fill="#0e4429"/>
<polygon points="475.48,219.58 475.48,208.58 486.76,212.68 486.76,223.68" fill="#0c3b24"/>
<polygon points="486.76,223.68 486.76,212.68 498.04,208.58 498.04,219.58" fill="#0a321e"/>
<polygon points="513.07,197.47 524.35,201.58 513.07,205.68 501.80,201.58" fill="#0e4429"/>
<polygon points="501.80,219.58 501.80,201.58 513.07,205.68 513.07,223.68" fill="#0c3b24"/>
<polygon points="513.07,223.68 513.07,205.68 524.35,201.58 524.35,219.58" fill="#0a321e"/>
<polygon points="447.29,220.26 458.57,224.37 447.29,228.47 436.02,224.37" fill="#161b22"/>
<polygon points="499.92,220.26 511.19,224.37 499.92,228.47 488.64,224.37" fill="#161b22"/>
<polygon points="552.54,220.26 563.82,224.37 552.54,228.47 541.26,224.37" fill="#161b22"/>
<polygon points="473.61,212.26 484.88,216.37 473.61,220.47 462.33,216.37" fill="#0e4429"/>
<polygon points="462.33,224.37 462.33,216.37 473.61,220.47 473.61,228.47" fill="#0c3b24"/>
<polygon points="473.61,228.47 473.61,220.47 484.88,216.37 484.88,224.37" fill="#0a321e"/>
<polygon points="526.23,212.26 537.50,216.37 526.23,220.47 514.95,216.37" fill="#0e4429"/>
<polygon points="514.95,224.37 514.95,216.37 526.23,220.47 526.23,228.47" fill="#0c3b24"/>
<polygon points="526.23,228.47 526.23,220.47 537.50,216.37 537.50,224.37" fill="#0a321e"/>
<polygon points="578.85,212.26 590.13,216.37 578.85,220.47 567.57,216.37" fill="#0e4429"/>
<polygon points="567.57,224.37 567.57,216.37 578.85,220.47 578.85,228.47" fill="#0c3b24"/>
<polygon points="578.85,228.47 578.85,220.47 590.13,216.37 590.13,224.37" fill="#0a321e"/>
<polygon points="605.16,207.26 616.44,211.37 605.16,215.47 593.89,211.37" fill="#0e4429"/>
<polygon points="593.89,224.37 593.89,211.37 605.16,215.47 605.16,228.47" fill="#0c3b24"/>
<polygon points="605.16,228.47 605.16,215.47 616.44,211.37 616.44,224.37" fill="#0a321e"/>
<polygon points="486.76,225.05 498.04,229.15 486.76,233.26 475.48,229.15" fill="#161b22"/>
<polygon points="513.07,225.05 524.35,229.15 513.07,233.26 501.80,229.15" fill="#161b22"/>
<polygon points="539.38,225.05 550.66,229.15 539.38,233.26 528.11,229.15" fill="#161b22"/>
<polygon points="592.01,225.05 603.28,229.15 592.01,233.26 580.73,229.15" fill="#161b22"/>
<polygon points="460.45,209.05 471.73,213.15 460.45,217.26 449.17,213.15" fill="#0e4429"/>
<polygon points="449.17,229.15 449.17,213.15 460.45,217.26 460.45,233.26" fill="#0c3b24"/>
<polygon points="460.45,233.26 460.45,217.26 471.73,213.15 471.73,229.15" fill="#0a321e"/>
<polygon points="565.69,209.05 576.97,213.15 565.69,217.26 554.42,213.15" fill="#0e4429"/>
<polygon points="554.42,229.15 554.42,213.15 565.69,217.26 565.69,233.26" fill="#0c3b24"/>
<polygon points="565.69,233.26 565.69,217.26 576.97,213.15 576.97,229.15" fill="#0a321e"/>
<polygon points="618.32,211.05 629.59,215.15 618.32,219.26 607.04,215.15" fill="#0e4429"/>
<polygon points="607.04,229.15 607.04,215.15 618.32,219.26 618.32,233.26" fill="#0c3b24"/>
<polygon points="618.32,233.26 618.32,219.26 629.59,215.15 629.59,229.15" fill="#0a321e"/>
<polygon points="473.61,229.84 484.88,233.94 473.61,238.05 462.33,233.94" fill="#161b22"/>
<polygon points="526.23,229.84 537.50,233.94 526.23,238.05 514.95,233.94" fill="#161b22"/>
<polygon points="499.92,221.84 511.19,225.94 499.92,230.05 488.64,225.94" fill="#0e4429"/>
<polygon points="488.64,233.94 488.64,225.94 499.92,230.05 499.92,238.05" fill="#0c3b24"/>
<polygon points="499.92,238.05 499.92,230.05 511.19,225.94 511.19,233.94" fill="#0a321e"/>
<polygon points="552.54,214.84 563.82,218.94 552.54,223.05 541.26,218.94" fill="#0e4429"/>
<polygon points="541.26,233.94 541.26,218.94 552.54,223.05 552.54,238.05" fill="#0c3b24"/>
<polygon points="552.54,238.05 552.54,223.05 563.82,218.94 563.82,233.94" fill="#0a321e"/>
<polygon points="578.85,218.84 590.13,222.94 578.85,227.05 567.57,222.94" fill="#0e4429"/>
<polygon points="567.57,233.94 567.57,222.94 578.85,227.05 578.85,238.05" fill="#0c3b24"/>
<polygon points="578.85,238.05 578.85,227.05 590.13,222.94 590.13,233.94" fill="#0a321e"/>
<polygon points="631.47,215.84 642.75,219.94 631.47,224.05 620.20,219.94" fill="#0e4429"/>
<polygon points="620.20,233.94 620.20,219.94 631.47,224.05 631.47,238.05" fill="#0c3b24"/>
<polygon points="631.47,238.05 631.47,224.05 642.75,219.94 642.75,233.94" fill="#0a321e"/>
<polygon points="605.16,211.84 616.44,215.94 605.16,220.05 593.89,215.94" fill="#006d32"/>
<polygon points="593.89,233.94 593.89,215.94 605.16,220.05 605.16,238.05" fill="#005f2c"/>
<polygon points="605.16,238.05 605.16,220.05 616.44,215.94 616.44,233.94" fill="#005025"/>
<polygon points="486.76,234.63 498.04,238.73 486.76,242.83 475.48,238.73" fill="#161b22"/>
<polygon points="565.69,234.63 576.97,238.73 565.69,242.83 554.42,238.73" fill="#161b22"/>
<polygon points="513.07,217.63 524.35,221.73 513.07,225.83 501.80,221.73" fill="#0e4429"/>
<polygon points="501.80,238.73 501.80,221.73 513.07,225.83 513.07,242.83" fill="#0c3b24"/>
<polygon points="513.07,242.83 513.07,225.83 524.35,221.73 524.35,238.73" fill="#0a321e"/>
<polygon points="539.38,221.63 550.66,225.73 539.38,229.83 528.11,225.73" fill="#0e4429"/>
<polygon points="528.11,238.73 528.11,225.73 539.38,229.83 539.38,242.83" fill="#0c3b24"/>
<polygon points="539.38,242.83 539.38,229.83 550.66,225.73 550.66,238.73" fill="#0a321e"/>
<polygon points="592.01,219.63 603.28,223.73 592.01,227.83 580.73,223.73" fill="#0e4429"/>
<polygon points="580.73,238.73 580.73,223.73 592.01,227.83 592.01,242.83" fill="#0c3b24"/>
<polygon points="592.01,242.83 592.01,227.83 603.28,223.73 603.28,238.73" fill="#0a321e"/>
<polygon points="644.63,226.63 655.91,230.73 644.63,234.83 633.35,230.73" fill="#0e4429"/>
<polygon points="633.35,238.73 633.35,230.73 644.63,234.83 644.63,242.83" fill="#0c3b24"/>
<polygon points="644.63,242.83 644.63,234.83 655.91,230.73 655.91,238.73" fill="#0a321e"/>
<polygon points="618.32,216.63 629.59,220.73 618.32,224.83 607.04,220.73" fill="#39d353"/>
<polygon points="607.04,238.73 607.04,220.73 618.32,224.83 618.32,242.83" fill="#32b949"/>
<polygon points="618.32,242.83 618.32,224.83 629.59,220.73 629.59,238.73" fill="#2a9c3d"/>
<polygon points="499.92,239.41 511.19,243.52 499.92,247.62 488.64,243.52" fill="#161b22"/>
<polygon points="526.23,239.41 537.50,243.52 526.23,247.62 514.95,243.52" fill="#161b22"/>
<polygon points="552.54,239.41 563.82,243.52 552.54,247.62 541.26,243.52" fill="#161b22"/>
<polygon points="578.85,239.41 590.13,243.52 578.85,247.62 567.57,243.52" fill="#161b22"/>
<polygon points="657.78,239.41 669.06,243.52 657.78,247.62 646.51,243.52" fill="#161b22"/>
<polygon points="631.47,228.41 642.75,232.52 631.47,236.62 620.20,232.52" fill="#0e4429"/>
<polygon points="620.20,243.52 620.20,232.52 631.47,236.62 631.47,247.62" fill="#0c3b24"/>
<polygon points="631.47,247.62 631.47,236.62 642.75,232.52 642.75,243.52" fill="#0a321e"/>
<polygon points="605.16,221.41 616.44,225.52 605.16,229.62 593.89,225.52" fill="#006d32"/>
<polygon points="593.89,243.52 593.89,225.52 605.16,229.62 605.16,247.62" fill="#005f2c"/>
<polygon points="605.16,247.62 605.16,229.62 616.44,225.52 616.44,243.52" fill="#005025"/>
<polygon points="513.07,244.20 524.35,248.31 513.07,252.41 501.80,248.31" fill="#161b22"/>
<polygon points="539.38,230.20 550.66,234.31 539.38,238.41 528.11,234.31" fill="#0e4429"/>
<polygon points="528.11,248.31 528.11,234.31 539.38,238.41 539.38,252.41" fill="#0c3b24"/>
<polygon points="539.38,252.41 539.38,238.41 550.66,234.31 550.66,248.31" fill="#0a321e"/>
<polygon points="565.69,230.20 576.97,234.31 565.69,238.41 554.42,234.31" fill="#0e4429"/>
<polygon points="554.42,248.31 554.42,234.31 565.69,238.41 565.69,252.41" fill="#0c3b24"/>
<polygon points="565.69,252.41 565.69,238.41 576.97,234.31 576.97,248.31" fill="#0a321e"/>
<polygon points="592.01,231.20 603.28,235.31 592.01,239.41 580.73,235.31" fill="#0e4429"/>
<polygon points="580.73,248.31 580.73,235.31 592.01,239.41 592.01,252.41" fill="#0c3b24"/>
<polygon points="592.01,252.41 592.01,239.41 603.28,235.31 603.28,248.31" fill="#0a321e"/>
<polygon points="618.32,227.20 629.59,231.31 618.32,235.41 607.04,231.31" fill="#0e4429"/>
<polygon points="607.04,248.31 607.04,231.31 618.32,235.41 618.32,252.41" fill="#0c3b24"/>
<polygon points="618.32,252.41 618.32,235.41 629.59,231.31 629.59,248.31" fill="#0a321e"/>
<polygon points="644.63,236.20 655.91,240.31 644.63,244.41 633.35,240.31" fill="#0e4429"/>
<polygon points="633.35,248.31 633.35,240.31 644.63,244.41 644.63,252.41" fill="#0c3b24"/>
<polygon points="644.63,252.41 644.63,244.41 655.91,240.31 655.91,248.31" fill="#0a321e"/>
<polygon points="670.94,226.20 682.22,230.31 670.94,234.41 659.66,230.31" fill="#006d32"/>
<polygon points="659.66,248.31 659.66,230.31 670.94,234.41 670.94,252.41" fill="#005f2c"/>
<polygon points="670.94,252.41 670.94,234.41 682.22,230.31 682.22,248.31" fill="#005025"/>
<polygon points="526.23,234.99 537.50,239.09 526.23,243.20 514.95,239.09" fill="#0e4429"/>
<polygon points="514.95,253.09 514.95,239.09 526.23,243.20 526.23,257.20" fill="#0c3b24"/>
<polygon points="526.23,257.20 526.23,243.20 537.50,239.09 537.50,253.09" fill="#0a321e"/>
<polygon points="578.85,232.99 590.13,237.09 578.85,241.20 567.57,237.09" fill="#0e4429"/>
<polygon points="567.57,253.09 567.57,237.09 578.85,241.20 578.85,257.20" fill="#0c3b24"/>
<polygon points="578.85,257.20 578.85,241.20 590.13,237.09 590.13,253.09" fill="#0a321e"/>
<polygon points="605.16,237.99 616.44,242.09 605.16,246.20 593.89,242.09" fill="#0e4429"/>
<polygon points="593.89,253.09 593.89,242.09 605.16,246.20 605.16,257.20" fill="#0c3b24"/>
<polygon points="605.16,257.20 605.16,246.20 616.44,242.09 616.44,253.09" fill="#0a321e"/>
<polygon points="631.47,240.99 642.75,245.09 631.47,249.20 620.20,245.09" fill="#0e4429"/>
<polygon points="620.20,253.09 620.20,245.09 631.47,249.20 631.47,257.20" fill="#0c3b24"/>
<polygon points="631.47,257.20 631.47,249.20 642.75,245.09 642.75,253.09" fill="#0a321e"/>
<polygon points="684.10,235.99 695.37,240.09 684.10,244.20 672.82,240.09" fill="#0e4429"/>
<polygon points="672.82,253.09 672.82,240.09 684.10,244.20 684.10,257.20" fill="#0c3b24"/>
<polygon points="684.10,257.20 684.10,244.20 695.37,240.09 695.37,253.09" fill="#0a321e"/>
<polygon points="552.54,230.99 563.82,235.09 552.54,239.20 541.26,235.09" fill="#006d32"/>
<polygon points="541.26,253.09 541.26,235.09 552.54,239.20 552.54,257.20" fill="#005f2c"/>
<polygon points="552.54,257.20 552.54,239.20 563.82,235.09 563.82,253.09" fill="#005025"/>
<polygon points="657.78,230.99 669.06,235.09 657.78,239.20 646.51,235.09" fill="#26a641"/>
<polygon points="646.51,253.09 646.51,235.09 657.78,239.20 657.78,257.20" fill="#219239"/>
<polygon points="657.78,257.20 657.78,239.20 669.06,235.09 669.06,253.09" fill="#1c7a30"/>
<polygon points="592.01,253.78 603.28,257.88 592.01,261.99 580.73,257.88" fill="#161b22"/>
<polygon points="539.38,235.78 550.66,239.88 539.38,243.99 528.11,239.88" fill="#0e4429"/>
<polygon points="528.11,257.88 528.11,239.88 539.38,243.99 539.38,261.99" fill="#0c3b24"/>
<polygon points="539.38,261.99 539.38,243.99 550.66,239.88 550.66,257.88" fill="#0a321e"/>
<polygon points="565.69,242.78 576.97,246.88 565.69,250.99 554.42,246.88" fill="#0e4429"/>
<polygon points="554.42,257.88 554.42,246.88 565.69,250.99 565.69,261.99" fill="#0c3b24"/>
<polygon points="565.69,261.99 565.69,250.99 576.97,246.88 576.97,257.88" fill="#0a321e"/>
<polygon points="670.94,235.78 682.22,239.88 670.94,243.99 659.66,239.88" fill="#0e4429"/>
<polygon points="659.66,257.88 659.66,239.88 670.94,243.99 670.94,261.99" fill="#0c3b24"/>
<polygon points="670.94,261.99 670.94,243.99 682.22,239.88 682.22,257.88" fill="#0a321e"/>
<polygon points="618.32,235.78 629.59,239.88 618.32,243.99 607.04,239.88" fill="#006d32"/>
<polygon points="607.04,257.88 607.04,239.88 618.32,243.99 618.32,261.99" fill="#005f2c"/>
<polygon points="618.32,261.99 618.32,243.99 629.59,239.88 629.59,257.88" fill="#005025"/>
<polygon points="644.63,235.78 655.91,239.88 644.63,243.99 633.35,239.88" fill="#26a641"/>
<polygon points="633.35,257.88 633.35,239.88 644.63,243.99 644.63,261.99" fill="#219239"/>
<polygon points="644.63,261.99 644.63,243.99 655.91,239.88 655.91,257.88" fill="#1c7a30"/>
<polygon points="552.54,247.57 563.82,251.67 552.54,255.78 541.26,251.67" fill="#0e4429"/>
<polygon points="541.26,262.67 541.26,251.67 552.54,255.78 552.54,266.78" fill="#0c3b24"/>
<polygon points="552.54,266.78 552.54,255.78 563.82,251.67 563.82,262.67" fill="#0a321e"/>
<polygon points="578.85,247.57 590.13,251.67 578.85,255.78 567.57,251.67" fill="#0e4429"/>
<polygon points="567.57,262.67 567.57,251.67 578.85,255.78 578.85,266.78" fill="#0c3b24"/>
<polygon points="578.85,266.78 578.85,255.78 590.13,251.67 590.13,262.67" fill="#0a321e"/>
<polygon points="657.78,250.57 669.06,254.67 657.78,258.78 646.51,254.67" fill="#0e4429"/>
<polygon points="646.51,262.67 646.51,254.67 657.78,258.78 657.78,266.78" fill="#0c3b24"/>
<polygon points="657.78,266.78 657.78,258.78 669.06,254.67 669.06,262.67" fill="#0a321e"/>
<polygon points="605.16,240.57 616.44,244.67 605.16,248.78 593.89,244.67" fill="#39d353"/>
<polygon points="593.89,262.67 593.89,244.67 605.16,248.78 605.16,266.78" fill="#32b949"/>
<polygon points="605.16,266.78 605.16,248.78 616.44,244.67 616.44,262.67" fill="#2a9c3d"/>
<polygon points="631.47,240.57 642.75,244.67 631.47,248.78 620.20,244.67" fill="#39d353"/>
<polygon points="620.20,262.67 620.20,244.67 631.47,248.78 631.47,266.78" fill="#32b949"/>
<polygon points="631.47,266.78 631.47,248.78 642.75,244.67 642.75,262.67" fill="#2a9c3d"/>
<polygon points="565.69,263.36 576.97,267.46 565.69,271.56 554.42,267.46" fill="#161b22"/>
<polygon points="618.32,245.36 629.59,249.46 618.32,253.56 607.04,249.46" fill="#26a641"/>
<polygon points="607.04,267.46 607.04,249.46 618.32,253.56 618.32,271.56" fill="#219239"/>
<polygon points="618.32,271.56 618.32,253.56 629.59,249.46 629.59,267.46" fill="#1c7a30"/>
<polygon points="592.01,245.36 603.28,249.46 592.01,253.56 580.73,249.46" fill="#39d353"/>
<polygon points="580.73,267.46 580.73,249.46 592.01,253.56 592.01,271.56" fill="#32b949"/>
<polygon points="592.01,271.56 592.01,253.56 603.28,249.46 603.28,267.46" fill="#2a9c3d"/>
<polygon points="644.63,245.36 655.91,249.46 644.63,253.56 633.35,249.46" fill="#39d353"/>
<polygon points="633.35,267.46 633.35,249.46 644.63,253.56 644.63,271.56" fill="#32b949"/>
<polygon points="644.63,271.56 644.63,253.56 655.91,249.46 655.91,267.46" fill="#2a9c3d"/>
<polygon points="631.47,268.14 642.75,272.25 631.47,276.35 620.20,272.25" fill="#161b22"/>
<polygon points="605.16,252.14 616.44,256.25 605.16,260.35 593.89,256.25" fill="#0e4429"/>
<polygon points="593.89,272.25 593.89,256.25 605.16,260.35 605.16,276.35" fill="#0c3b24"/>
<polygon points="605.16,276.35 605.16,260.35 616.44,256.25 616.44,272.25" fill="#0a321e"/>
<polygon points="578.85,250.14 590.13,254.25 578.85,258.35 567.57,254.25" fill="#006d32"/>
<polygon points="567.57,272.25 567.57,254.25 578.85,258.35 578.85,276.35" fill="#005f2c"/>
<polygon points="578.85,276.35 578.85,258.35 590.13,254.25 590.13,272.25" fill="#005025"/>
<polygon points="592.01,256.93 603.28,261.04 592.01,265.14 580.73,261.04" fill="#0e4429"/>
<polygon points="580.73,277.04 580.73,261.04 592.01,265.14 592.01,281.14" fill="#0c3b24"/>
<polygon points="592.01,281.14 592.01,265.14 603.28,261.04 603.28,277.04" fill="#0a321e"/>
<text x="697.25" y="14.00" text-anchor="end" font-family='-apple-system, BlinkMacSystemFont, "Segoe UI", Helvetica, Arial, sans-serif' font-size="34" font-weight="700" fill="#39d353">3,174</text>
<text x="697.25" y="26.00" text-anchor="end" font-family='-apple-system, BlinkMacSystemFont, "Segoe UI", Helvetica, Arial, sans-serif' font-size="10" fill="#7d8590" letter-spacing="0.8">TOTAL CONTRIBUTIONS</text>
<rect x="-92.09" y="225.28" width="12" height="14.02" rx="1" fill="#006d32"/>
<text x="-86.09" y="257.30" text-anchor="middle" font-family='-apple-system, BlinkMacSystemFont, "Segoe UI", Helvetica, Arial, sans-serif' font-size="11" fill="#7d8590">S</text>
<rect x="-76.09" y="192.78" width="12" height="46.52" rx="1" fill="#006d32"/>
<text x="-70.09" y="257.30" text-anchor="middle" font-family='-apple-system, BlinkMacSystemFont, "Segoe UI", Helvetica, Arial, sans-serif' font-size="11" fill="#7d8590">M</text>
<rect x="-60.09" y="185.30" width="12" height="54.00" rx="1" fill="#39d353"/>
<text x="-54.09" y="257.30" text-anchor="middle" font-family='-apple-system, BlinkMacSystemFont, "Segoe UI", Helvetica, Arial, sans-serif' font-size="11" fill="#7d8590">T</text>
<rect x="-44.09" y="186.50" width="12" height="52.80" rx="1" fill="#006d32"/>
<text x="-38.09" y="257.30" text-anchor="middle" font-family='-apple-system, BlinkMacSystemFont, "Segoe UI", Helvetica, Arial, sans-serif' font-size="11" fill="#7d8590">W</text>
<rect x="-28.09" y="188.99" width="12" height="50.30" rx="1" fill="#006d32"/>
<text x="-22.09" y="257.30" text-anchor="middle" font-family='-apple-system, BlinkMacSystemFont, "Segoe UI", Helvetica, Arial, sans-serif' font-size="11" fill="#7d8590">T</text>
<rect x="-12.09" y="192.35" width="12" height="46.95" rx="1" fill="#006d32"/>
<text x="-6.09" y="257.30" text-anchor="middle" font-family='-apple-system, BlinkMacSystemFont, "Segoe UI", Helvetica, Arial, sans-serif' font-size="11" fill="#7d8590">F</text>
<rect x="3.91" y="230.96" width="12" height="8.34" rx="1" fill="#006d32"/>
<text x="9.91" y="257.30" text-anchor="middle" font-family='-apple-system, BlinkMacSystemFont, "Segoe UI", Helvetica, Arial, sans-serif' font-size="11" fill="#7d8590">S</text>
<text x="-92.09" y="277.30" font-family='-apple-system, BlinkMacSystemFont, "Segoe UI", Helvetica, Arial, sans-serif' font-size="12" fill="#7d8590" letter-spacing="0.3">Most active days</text>
<text x="-92.09" y="293.30" font-family='-apple-system, BlinkMacSystemFont, "Segoe UI", Helvetica, Arial, sans-serif' font-size="9" fill="#7d8590">Data pulled daily from GitHub.</text>
<text x="-92.09" y="303.30" font-family='-apple-system, BlinkMacSystemFont, "Segoe UI", Helvetica, Arial, sans-serif' font-size="9" fill="#7d8590">Rolling last-12-month activity.</text>
</svg>